SplineFontDB: 3.2
FontName: Play-Regular
FullName: Play Regular
FamilyName: Play
Weight: Book
Copyright: Copyright (c) 2011, Jonas Hecksher, Playtypes, e-types AS (lasse@e-types.com), with Reserved Font Name 'Play', 'Playtype', 'Playtype Sans'.
Version: 2.101; ttfautohint (v1.6)
ItalicAngle: 0
UnderlinePosition: -100
UnderlineWidth: 50
Ascent: 800
Descent: 200
InvalidEm: 0
sfntRevision: 0x000219db
LayerCount: 3
Layer: 0 1 "Back" 1
Layer: 1 1 "Fore" 0
Layer: 2 0 "Back 2" 1
XUID: [1021 796 -163880829 5807132]
StyleMap: 0x0040
FSType: 0
OS2Version: 4
OS2_WeightWidthSlopeOnly: 0
OS2_UseTypoMetrics: 1
CreationTime: 1488362312
ModificationTime: 1606913942
PfmFamily: 81
TTFWeight: 400
TTFWidth: 5
LineGap: 0
VLineGap: 0
Panose: 0 0 5 0 0 0 0 0 0 0
OS2TypoAscent: 937
OS2TypoAOffset: 0
OS2TypoDescent: -220
OS2TypoDOffset: 0
OS2TypoLinegap: 0
OS2WinAscent: 1052
OS2WinAOffset: 0
OS2WinDescent: 224
OS2WinDOffset: 0
HheadAscent: 937
HheadAOffset: 0
HheadDescent: -220
HheadDOffset: 0
OS2SubXSize: 650
OS2SubYSize: 600
OS2SubXOff: 0
OS2SubYOff: 75
OS2SupXSize: 650
OS2SupYSize: 600
OS2SupXOff: 0
OS2SupYOff: 350
OS2StrikeYSize: 50
OS2StrikeYPos: 290
OS2CapHeight: 649
OS2XHeight: 484
OS2Vendor: 'PLAY'
OS2CodePages: 2000019f.00000000
OS2UnicodeRanges: 20000287.00000001.00000000.00000000
Lookup: 1 0 0 "'aalt' Access All Alternates lookup 0" { "'aalt' Access All Alternates lookup 0 subtable"  } ['aalt' ('DFLT' <'dflt' > 'cyrl' <'dflt' > 'grek' <'dflt' > 'latn' <'dflt' > ) ]
Lookup: 3 0 0 "'aalt' Access All Alternates lookup 1" { "'aalt' Access All Alternates lookup 1 subtable"  } ['aalt' ('DFLT' <'dflt' > 'cyrl' <'dflt' > 'grek' <'dflt' > 'latn' <'dflt' > ) ]

StartChar: A
Encoding: 65 65 4
Width: 550
GlyphClass: 2
Flags: W
AnchorPoint: "Anchor-12" -51 0 basechar 0
AnchorPoint: "Anchor-11" -51 0 basechar 0
AnchorPoint: "Anchor-10" -51 0 basechar 0
AnchorPoint: "Anchor-9" 275 649 basechar 0
AnchorPoint: "Anchor-8" 275 0 basechar 0
LayerCount: 3
Fore
SplineSet
222 649 m 1,0,-1
 334 649 l 1,1,-1
 586 0 l 1,2,-1
 485 0 l 1,3,-1
 411 197 l 1,4,-1
 133 197 l 1,5,-1
 60 0 l 1,6,-1
 -36 0 l 1,7,-1
 222 649 l 1,0,-1
387 264 m 1,8,-1
 277 557 l 1,9,-1
 268 557 l 1,10,-1
 158 264 l 1,11,-1
 387 264 l 1,8,-1
EndSplineSet
Substitution2: "Single Substitution lookup 35 subtable" ordfeminine
Substitution2: "'c2sc' Capitals to Small Capitals lookup 25 subtable" a.smcp
AlternateSubs2: "'aalt' Access All Alternates lookup 1 subtable" ordfeminine a.smcp
EndChar

StartChar: uni1EAE
Encoding: 7854 7854 7
Width: 550
GlyphClass: 2
Flags: W
AnchorPoint: "Anchor-12" -51 0 basechar 0
AnchorPoint: "Anchor-11" -51 0 basechar 0
AnchorPoint: "Anchor-10" -51 0 basechar 0
AnchorPoint: "Anchor-9" 339 995 basechar 0
AnchorPoint: "Anchor-8" 275 0 basechar 0
LayerCount: 3
Fore
SplineSet
279 964 m 1,0,-1
 388 964 l 1,1,-1
 313 868 l 1,2,-1
 239 868 l 1,3,-1
 279 964 l 1,0,-1
190.5 752.5 m 128,-1,5
 159 787 159 787 157 845 c 1,6,-1
 211 845 l 1,7,8
 217 777 217 777 275 777 c 256,9,10
 333 777 333 777 339 845 c 1,11,-1
 393 845 l 1,12,13
 392 788 392 788 360 753 c 256,14,15
 328 718 328 718 275 718 c 256,16,4
 222 718 222 718 190.5 752.5 c 128,-1,5
222 649 m 1,17,-1
 334 649 l 1,18,-1
 586 0 l 1,19,-1
 485 0 l 1,20,-1
 411 197 l 1,21,-1
 133 197 l 1,22,-1
 60 0 l 1,23,-1
 -36 0 l 1,24,-1
 222 649 l 1,17,-1
387 264 m 1,25,-1
 277 557 l 1,26,-1
 268 557 l 1,27,-1
 158 264 l 1,28,-1
 387 264 l 1,25,-1
EndSplineSet
EndChar

StartChar: uni1EB0
Encoding: 7856 7856 9
Width: 550
GlyphClass: 2
Flags: W
AnchorPoint: "Anchor-12" -51 0 basechar 0
AnchorPoint: "Anchor-11" -51 0 basechar 0
AnchorPoint: "Anchor-10" -51 0 basechar 0
AnchorPoint: "Anchor-9" 185 993 basechar 0
AnchorPoint: "Anchor-8" 275 0 basechar 0
LayerCount: 3
Fore
SplineSet
179 962 m 1,0,-1
 288 962 l 1,1,-1
 319 866 l 1,2,-1
 245 866 l 1,3,-1
 179 962 l 1,0,-1
190.5 752.5 m 128,-1,5
 159 787 159 787 157 845 c 1,6,-1
 211 845 l 1,7,8
 217 777 217 777 275 777 c 256,9,10
 333 777 333 777 339 845 c 1,11,-1
 393 845 l 1,12,13
 392 788 392 788 360 753 c 256,14,15
 328 718 328 718 275 718 c 256,16,4
 222 718 222 718 190.5 752.5 c 128,-1,5
222 649 m 1,17,-1
 334 649 l 1,18,-1
 586 0 l 1,19,-1
 485 0 l 1,20,-1
 411 197 l 1,21,-1
 133 197 l 1,22,-1
 60 0 l 1,23,-1
 -36 0 l 1,24,-1
 222 649 l 1,17,-1
387 264 m 1,25,-1
 277 557 l 1,26,-1
 268 557 l 1,27,-1
 158 264 l 1,28,-1
 387 264 l 1,25,-1
EndSplineSet
EndChar

StartChar: uni1EA4
Encoding: 7844 7844 13
Width: 550
GlyphClass: 2
Flags: W
AnchorPoint: "Anchor-12" -51 0 basechar 0
AnchorPoint: "Anchor-11" -51 0 basechar 0
AnchorPoint: "Anchor-10" -51 0 basechar 0
AnchorPoint: "Anchor-9" 479 918 basechar 0
AnchorPoint: "Anchor-8" 275 0 basechar 0
LayerCount: 3
Fore
SplineSet
419 887 m 1,0,-1
 528 887 l 1,1,-1
 453 791 l 1,2,-1
 379 791 l 1,3,-1
 419 887 l 1,0,-1
222 845 m 1,4,-1
 329 845 l 1,5,-1
 395 718 l 1,6,-1
 337 718 l 1,7,-1
 275 805 l 1,8,-1
 212 718 l 1,9,-1
 154 718 l 1,10,-1
 222 845 l 1,4,-1
222 649 m 1,11,-1
 334 649 l 1,12,-1
 586 0 l 1,13,-1
 485 0 l 1,14,-1
 411 197 l 1,15,-1
 133 197 l 1,16,-1
 60 0 l 1,17,-1
 -36 0 l 1,18,-1
 222 649 l 1,11,-1
387 264 m 1,19,-1
 277 557 l 1,20,-1
 268 557 l 1,21,-1
 158 264 l 1,22,-1
 387 264 l 1,19,-1
EndSplineSet
EndChar

StartChar: uni1EA6
Encoding: 7846 7846 15
Width: 550
GlyphClass: 2
Flags: W
AnchorPoint: "Anchor-12" -51 0 basechar 0
AnchorPoint: "Anchor-11" -51 0 basechar 0
AnchorPoint: "Anchor-10" -51 0 basechar 0
AnchorPoint: "Anchor-9" 351 938 basechar 0
AnchorPoint: "Anchor-8" 275 0 basechar 0
LayerCount: 3
Fore
SplineSet
345 907 m 1,0,-1
 454 907 l 1,1,-1
 485 811 l 1,2,-1
 411 811 l 1,3,-1
 345 907 l 1,0,-1
222 845 m 1,4,-1
 329 845 l 1,5,-1
 395 718 l 1,6,-1
 337 718 l 1,7,-1
 275 805 l 1,8,-1
 212 718 l 1,9,-1
 154 718 l 1,10,-1
 222 845 l 1,4,-1
222 649 m 1,11,-1
 334 649 l 1,12,-1
 586 0 l 1,13,-1
 485 0 l 1,14,-1
 411 197 l 1,15,-1
 133 197 l 1,16,-1
 60 0 l 1,17,-1
 -36 0 l 1,18,-1
 222 649 l 1,11,-1
387 264 m 1,19,-1
 277 557 l 1,20,-1
 268 557 l 1,21,-1
 158 264 l 1,22,-1
 387 264 l 1,19,-1
EndSplineSet
EndChar

StartChar: Adieresis
Encoding: 196 196 18
Width: 550
Flags: W
LayerCount: 3
Fore
SplineSet
139 809 m 1,0,-1
 229 809 l 1,1,-1
 229 715 l 1,2,-1
 139 715 l 1,3,-1
 139 809 l 1,0,-1
309 809 m 1,4,-1
 399 809 l 1,5,-1
 399 715 l 1,6,-1
 309 715 l 1,7,-1
 309 809 l 1,4,-1
222 649 m 1,8,-1
 334 649 l 1,9,-1
 586 0 l 1,10,-1
 485 0 l 1,11,-1
 411 197 l 1,12,-1
 133 197 l 1,13,-1
 60 0 l 1,14,-1
 -36 0 l 1,15,-1
 222 649 l 1,8,-1
387 264 m 1,16,-1
 277 557 l 1,17,-1
 268 557 l 1,18,-1
 158 264 l 1,19,-1
 387 264 l 1,16,-1
EndSplineSet
Substitution2: "'c2sc' Capitals to Small Capitals lookup 25 subtable" adieresis.smcp
Substitution2: "'aalt' Access All Alternates lookup 0 subtable" adieresis.smcp
EndChar

StartChar: Amacron
Encoding: 256 256 22
Width: 550
Flags: W
LayerCount: 3
Fore
SplineSet
164 798 m 1,0,-1
 382 798 l 1,1,-1
 382 739 l 1,2,-1
 164 739 l 1,3,-1
 164 798 l 1,0,-1
222 649 m 1,4,-1
 334 649 l 1,5,-1
 586 0 l 1,6,-1
 485 0 l 1,7,-1
 411 197 l 1,8,-1
 133 197 l 1,9,-1
 60 0 l 1,10,-1
 -36 0 l 1,11,-1
 222 649 l 1,4,-1
387 264 m 1,12,-1
 277 557 l 1,13,-1
 268 557 l 1,14,-1
 158 264 l 1,15,-1
 387 264 l 1,12,-1
EndSplineSet
Substitution2: "'c2sc' Capitals to Small Capitals lookup 25 subtable" amacron.smcp
Substitution2: "'aalt' Access All Alternates lookup 0 subtable" amacron.smcp
EndChar

StartChar: Aogonek
Encoding: 260 260 23
Width: 550
Flags: W
LayerCount: 3
Fore
SplineSet
474.5 -167 m 128,-1,1
 450.5 -148 450.5 -148 450.5 -106 c 0,2,3
 450.5 -65 450.5 -65 471.5 0 c 1,4,-1
 397.5 197 l 1,5,-1
 119.5 197 l 1,6,-1
 46.5 0 l 1,7,-1
 -49.5 0 l 1,8,-1
 208.5 649 l 1,9,-1
 320.5 649 l 1,10,-1
 572.5 0 l 1,11,12
 529.5 -52 529.5 -52 529.5 -97 c 0,13,14
 529.5 -130 529.5 -130 568.5 -130 c 0,15,16
 578.5 -130 578.5 -130 599.5 -123 c 1,17,-1
 599.5 -176 l 1,18,19
 579.5 -186 579.5 -186 549.5 -186 c 0,20,0
 498.5 -186 498.5 -186 474.5 -167 c 128,-1,1
373.5 264 m 1,21,-1
 263.5 557 l 1,22,-1
 254.5 557 l 1,23,-1
 144.5 264 l 1,24,-1
 373.5 264 l 1,21,-1
EndSplineSet
Substitution2: "'c2sc' Capitals to Small Capitals lookup 25 subtable" aogonek.smcp
Substitution2: "'aalt' Access All Alternates lookup 0 subtable" aogonek.smcp
EndChar

StartChar: Aring
Encoding: 197 197 24
Width: 550
Flags: W
LayerCount: 3
Fore
SplineSet
191 560 m 1,0,1
 134 577 134 577 134 646 c 2,2,-1
 134 659 l 2,3,4
 134 712 134 712 160 738 c 0,5,6
 170 748 170 748 190 754 c 128,-1,7
 210 760 210 760 229 761 c 0,8,9
 240 762 240 762 275 762 c 0,10,11
 309 762 309 762 324.5 761 c 128,-1,12
 340 760 340 760 359 755 c 0,13,14
 379 749 379 749 390 738.5 c 128,-1,15
 401 728 401 728 409 708 c 0,16,17
 416 690 416 690 416 659 c 2,18,-1
 416 646 l 2,19,20
 416 582 416 582 364 561 c 1,21,-1
 586 0 l 1,22,-1
 485 0 l 1,23,-1
 411 198 l 1,24,-1
 134 198 l 1,25,-1
 60 0 l 1,26,-1
 -36 0 l 1,27,-1
 191 560 l 1,0,1
317.5 598.5 m 128,-1,29
 330 601 330 601 339 611 c 0,30,31
 349 621 349 621 349 643 c 2,32,-1
 349 657 l 2,33,34
 349 689 349 689 333.5 699 c 128,-1,35
 318 709 318 709 275 709 c 256,36,37
 232 709 232 709 216.5 699 c 128,-1,38
 201 689 201 689 201 657 c 2,39,-1
 201 643 l 2,40,41
 201 614 201 614 217 605 c 128,-1,42
 233 596 233 596 275 596 c 0,43,28
 305 596 305 596 317.5 598.5 c 128,-1,29
387 264 m 1,44,-1
 281 545 l 1,45,-1
 264 545 l 1,46,-1
 158 264 l 1,47,-1
 387 264 l 1,44,-1
EndSplineSet
Substitution2: "'c2sc' Capitals to Small Capitals lookup 25 subtable" aring.smcp
Substitution2: "'aalt' Access All Alternates lookup 0 subtable" aring.smcp
EndChar

StartChar: AE
Encoding: 198 198 26
Width: 550
Flags: W
LayerCount: 3
Fore
SplineSet
196.5 649 m 1,0,-1
 701.5 649 l 1,1,-1
 701.5 581 l 1,2,-1
 392.5 581 l 1,3,-1
 392.5 369 l 1,4,-1
 668.5 369 l 1,5,-1
 668.5 301 l 1,6,-1
 392.5 301 l 1,7,-1
 392.5 68 l 1,8,-1
 711.5 68 l 1,9,-1
 711.5 0 l 1,10,-1
 295.5 0 l 1,11,-1
 295.5 197 l 1,12,-1
 49.5 197 l 1,13,-1
 -52.5 0 l 1,14,-1
 -161.5 0 l 1,15,-1
 196.5 649 l 1,0,-1
295.5 264 m 1,16,-1
 295.5 581 l 1,17,-1
 247.5 581 l 1,18,-1
 83.5 264 l 1,19,-1
 295.5 264 l 1,16,-1
EndSplineSet
Substitution2: "'c2sc' Capitals to Small Capitals lookup 25 subtable" ae.smcp
Substitution2: "'aalt' Access All Alternates lookup 0 subtable" ae.smcp
EndChar

StartChar: B
Encoding: 66 66 27
Width: 550
Flags: W
LayerCount: 3
Fore
SplineSet
40.5 649 m 1,0,-1
 272.5 649 l 2,1,2
 355.5 649 355.5 649 404.5 632 c 0,3,4
 449.5 616 449.5 616 465 592 c 128,-1,5
 480.5 568 480.5 568 480.5 526 c 2,6,-1
 480.5 439 l 2,7,8
 480.5 400 480.5 400 458.5 378.5 c 128,-1,9
 436.5 357 436.5 357 391.5 347 c 1,10,-1
 391.5 343 l 1,11,12
 444.5 334 444.5 334 477 306.5 c 128,-1,13
 509.5 279 509.5 279 509.5 238 c 2,14,-1
 509.5 129 l 2,15,16
 509.5 58 509.5 58 456.5 29 c 128,-1,17
 403.5 0 403.5 0 279.5 0 c 2,18,-1
 40.5 0 l 1,19,-1
 40.5 649 l 1,0,-1
275.5 365 m 2,20,21
 336.5 365 336.5 365 363 383.5 c 128,-1,22
 389.5 402 389.5 402 389.5 442 c 2,23,-1
 389.5 518 l 2,24,25
 389.5 555 389.5 555 362.5 570 c 128,-1,26
 335.5 585 335.5 585 272.5 585 c 2,27,-1
 137.5 585 l 1,28,-1
 137.5 365 l 1,29,-1
 275.5 365 l 2,20,21
279.5 67 m 2,30,31
 352.5 67 352.5 67 382.5 82 c 256,32,33
 412.5 97 412.5 97 412.5 133 c 2,34,-1
 412.5 231 l 2,35,36
 412.5 257 412.5 257 402 272.5 c 128,-1,37
 391.5 288 391.5 288 369.5 295 c 0,38,39
 347.5 301 347.5 301 330.5 302.5 c 128,-1,40
 313.5 304 313.5 304 279.5 304 c 2,41,-1
 137.5 304 l 1,42,-1
 137.5 67 l 1,43,-1
 279.5 67 l 2,30,31
EndSplineSet
Substitution2: "'c2sc' Capitals to Small Capitals lookup 25 subtable" b.smcp
Substitution2: "'aalt' Access All Alternates lookup 0 subtable" b.smcp
EndChar

StartChar: C
Encoding: 67 67 28
Width: 550
Flags: W
LayerCount: 3
Fore
SplineSet
47.5 166 m 2,1,-1
 47.5 474 l 2,2,3
 47.5 660 47.5 660 320.5 660 c 0,4,5
 413.5 660 413.5 660 498.5 641 c 1,6,-1
 498.5 569 l 1,7,8
 402.5 593 402.5 593 322.5 593 c 0,9,10
 283.5 593 283.5 593 254.5 588.5 c 128,-1,11
 225.5 584 225.5 584 198.5 573 c 0,12,13
 140.5 548 140.5 548 140.5 475 c 2,14,-1
 140.5 171 l 2,15,16
 140.5 59 140.5 59 326.5 59 c 0,17,18
 406.5 59 406.5 59 502.5 83 c 1,19,-1
 502.5 9 l 1,20,21
 417.5 -10 417.5 -10 320.5 -10 c 0,22,0
 47.5 -10 47.5 -10 47.5 166 c 2,1,-1
EndSplineSet
Substitution2: "'c2sc' Capitals to Small Capitals lookup 25 subtable" c.smcp
Substitution2: "'aalt' Access All Alternates lookup 0 subtable" c.smcp
EndChar

StartChar: Cacute
Encoding: 262 262 29
Width: 550
Flags: W
LayerCount: 3
Fore
SplineSet
338.5 830 m 1,0,-1
 447.5 830 l 1,1,-1
 322.5 703 l 1,2,-1
 248.5 703 l 1,3,-1
 338.5 830 l 1,0,-1
47.5 166 m 2,5,-1
 47.5 474 l 2,6,7
 47.5 660 47.5 660 320.5 660 c 0,8,9
 413.5 660 413.5 660 498.5 641 c 1,10,-1
 498.5 569 l 1,11,12
 402.5 593 402.5 593 322.5 593 c 0,13,14
 283.5 593 283.5 593 254.5 588.5 c 128,-1,15
 225.5 584 225.5 584 198.5 573 c 0,16,17
 140.5 548 140.5 548 140.5 475 c 2,18,-1
 140.5 171 l 2,19,20
 140.5 59 140.5 59 326.5 59 c 0,21,22
 406.5 59 406.5 59 502.5 83 c 1,23,-1
 502.5 9 l 1,24,25
 417.5 -10 417.5 -10 320.5 -10 c 0,26,4
 47.5 -10 47.5 -10 47.5 166 c 2,5,-1
EndSplineSet
Substitution2: "'c2sc' Capitals to Small Capitals lookup 25 subtable" cacute.smcp
Substitution2: "'aalt' Access All Alternates lookup 0 subtable" cacute.smcp
EndChar

StartChar: Ccaron
Encoding: 268 268 30
Width: 550
Flags: W
LayerCount: 3
Fore
SplineSet
166.5 830 m 1,0,-1
 224.5 830 l 1,1,-1
 287.5 743 l 1,2,-1
 349.5 830 l 1,3,-1
 407.5 830 l 1,4,-1
 341.5 703 l 1,5,-1
 234.5 703 l 1,6,-1
 166.5 830 l 1,0,-1
47.5 166 m 2,8,-1
 47.5 474 l 2,9,10
 47.5 660 47.5 660 320.5 660 c 0,11,12
 413.5 660 413.5 660 498.5 641 c 1,13,-1
 498.5 569 l 1,14,15
 402.5 593 402.5 593 322.5 593 c 0,16,17
 283.5 593 283.5 593 254.5 588.5 c 128,-1,18
 225.5 584 225.5 584 198.5 573 c 0,19,20
 140.5 548 140.5 548 140.5 475 c 2,21,-1
 140.5 171 l 2,22,23
 140.5 59 140.5 59 326.5 59 c 0,24,25
 406.5 59 406.5 59 502.5 83 c 1,26,-1
 502.5 9 l 1,27,28
 417.5 -10 417.5 -10 320.5 -10 c 0,29,7
 47.5 -10 47.5 -10 47.5 166 c 2,8,-1
EndSplineSet
Substitution2: "'c2sc' Capitals to Small Capitals lookup 25 subtable" ccaron.smcp
Substitution2: "'aalt' Access All Alternates lookup 0 subtable" ccaron.smcp
EndChar

StartChar: Ccedilla
Encoding: 199 199 31
Width: 550
Flags: W
LayerCount: 3
Fore
SplineSet
220.5 -201 m 1,1,-1
 241.5 -156 l 1,2,3
 272.5 -173 272.5 -173 299.5 -173 c 0,4,5
 346.5 -173 346.5 -173 346.5 -133 c 0,6,7
 346.5 -114 346.5 -114 324.5 -103 c 128,-1,8
 302.5 -92 302.5 -92 268.5 -92 c 2,9,-1
 235.5 -92 l 1,10,11
 256.5 -57 256.5 -57 280.5 -9 c 1,12,13
 47.5 5 47.5 5 47.5 166 c 2,14,-1
 47.5 474 l 2,15,16
 47.5 660 47.5 660 320.5 660 c 0,17,18
 413.5 660 413.5 660 498.5 641 c 1,19,-1
 498.5 569 l 1,20,21
 402.5 593 402.5 593 322.5 593 c 0,22,23
 283.5 593 283.5 593 254.5 588.5 c 128,-1,24
 225.5 584 225.5 584 198.5 573 c 0,25,26
 140.5 548 140.5 548 140.5 475 c 2,27,-1
 140.5 171 l 2,28,29
 140.5 59 140.5 59 326.5 59 c 0,30,31
 406.5 59 406.5 59 502.5 83 c 1,32,-1
 502.5 9 l 1,33,34
 419.5 -9 419.5 -9 342.5 -10 c 1,35,-1
 321.5 -52 l 1,36,37
 360.5 -53 360.5 -53 387.5 -73.5 c 128,-1,38
 414.5 -94 414.5 -94 414.5 -130 c 0,39,40
 414.5 -172 414.5 -172 382 -196 c 128,-1,41
 349.5 -220 349.5 -220 301.5 -220 c 0,42,0
 251.5 -220 251.5 -220 220.5 -201 c 1,1,-1
EndSplineSet
Substitution2: "'c2sc' Capitals to Small Capitals lookup 25 subtable" ccedilla.smcp
Substitution2: "'aalt' Access All Alternates lookup 0 subtable" ccedilla.smcp
EndChar

StartChar: Ccircumflex
Encoding: 264 264 32
Width: 550
Flags: W
LayerCount: 3
Fore
SplineSet
262.5 830 m 1,0,-1
 369.5 830 l 1,1,-1
 435.5 703 l 1,2,-1
 377.5 703 l 1,3,-1
 315.5 790 l 1,4,-1
 252.5 703 l 1,5,-1
 194.5 703 l 1,6,-1
 262.5 830 l 1,0,-1
47.5 166 m 2,8,-1
 47.5 474 l 2,9,10
 47.5 660 47.5 660 320.5 660 c 0,11,12
 413.5 660 413.5 660 498.5 641 c 1,13,-1
 498.5 569 l 1,14,15
 402.5 593 402.5 593 322.5 593 c 0,16,17
 283.5 593 283.5 593 254.5 588.5 c 128,-1,18
 225.5 584 225.5 584 198.5 573 c 0,19,20
 140.5 548 140.5 548 140.5 475 c 2,21,-1
 140.5 171 l 2,22,23
 140.5 59 140.5 59 326.5 59 c 0,24,25
 406.5 59 406.5 59 502.5 83 c 1,26,-1
 502.5 9 l 1,27,28
 417.5 -10 417.5 -10 320.5 -10 c 0,29,7
 47.5 -10 47.5 -10 47.5 166 c 2,8,-1
EndSplineSet
Substitution2: "'c2sc' Capitals to Small Capitals lookup 25 subtable" ccircumflex.smcp
Substitution2: "'aalt' Access All Alternates lookup 0 subtable" ccircumflex.smcp
EndChar

StartChar: Cdotaccent
Encoding: 266 266 33
Width: 550
Flags: W
LayerCount: 3
Fore
SplineSet
273.5 830 m 1,0,-1
 363.5 830 l 1,1,-1
 363.5 732 l 1,2,-1
 273.5 732 l 1,3,-1
 273.5 830 l 1,0,-1
47.5 166 m 2,5,-1
 47.5 474 l 2,6,7
 47.5 660 47.5 660 320.5 660 c 0,8,9
 413.5 660 413.5 660 498.5 641 c 1,10,-1
 498.5 569 l 1,11,12
 402.5 593 402.5 593 322.5 593 c 0,13,14
 283.5 593 283.5 593 254.5 588.5 c 128,-1,15
 225.5 584 225.5 584 198.5 573 c 0,16,17
 140.5 548 140.5 548 140.5 475 c 2,18,-1
 140.5 171 l 2,19,20
 140.5 59 140.5 59 326.5 59 c 0,21,22
 406.5 59 406.5 59 502.5 83 c 1,23,-1
 502.5 9 l 1,24,25
 417.5 -10 417.5 -10 320.5 -10 c 0,26,4
 47.5 -10 47.5 -10 47.5 166 c 2,5,-1
EndSplineSet
Substitution2: "'c2sc' Capitals to Small Capitals lookup 25 subtable" cdotaccent.smcp
Substitution2: "'aalt' Access All Alternates lookup 0 subtable" cdotaccent.smcp
EndChar

StartChar: D
Encoding: 68 68 34
Width: 550
Flags: W
LayerCount: 3
Fore
SplineSet
9.5 649 m 1,0,-1
 267.5 649 l 2,1,2
 540.5 649 540.5 649 540.5 463 c 2,3,-1
 540.5 176 l 2,4,5
 540.5 0 540.5 0 268.5 0 c 2,6,-1
 9.5 0 l 1,7,-1
 9.5 649 l 1,0,-1
261.5 66 m 2,8,9
 447.5 66 447.5 66 447.5 178 c 2,10,-1
 447.5 464 l 2,11,12
 447.5 500 447.5 500 432.5 525 c 128,-1,13
 417.5 550 417.5 550 390.5 562 c 0,14,15
 363.5 573 363.5 573 334.5 577.5 c 128,-1,16
 305.5 582 305.5 582 266.5 582 c 2,17,-1
 106.5 582 l 1,18,-1
 106.5 66 l 1,19,-1
 261.5 66 l 2,8,9
EndSplineSet
Substitution2: "'c2sc' Capitals to Small Capitals lookup 25 subtable" d.smcp
Substitution2: "'aalt' Access All Alternates lookup 0 subtable" d.smcp
EndChar

StartChar: Eth
Encoding: 208 208 35
Width: 550
Flags: W
LayerCount: 3
Fore
SplineSet
41.5 301 m 1,0,-1
 -22.5 301 l 1,1,-1
 -22.5 369 l 1,2,-1
 41.5 369 l 1,3,-1
 41.5 649 l 1,4,-1
 299.5 649 l 2,5,6
 572.5 649 572.5 649 572.5 463 c 2,7,-1
 572.5 176 l 2,8,9
 572.5 0 572.5 0 300.5 0 c 2,10,-1
 41.5 0 l 1,11,-1
 41.5 301 l 1,0,-1
293.5 66 m 2,12,13
 479.5 66 479.5 66 479.5 178 c 2,14,-1
 479.5 464 l 2,15,16
 479.5 500 479.5 500 464.5 525 c 128,-1,17
 449.5 550 449.5 550 422.5 562 c 0,18,19
 395.5 573 395.5 573 366.5 577.5 c 128,-1,20
 337.5 582 337.5 582 298.5 582 c 2,21,-1
 138.5 582 l 1,22,-1
 138.5 369 l 1,23,-1
 244.5 369 l 1,24,-1
 244.5 301 l 1,25,-1
 138.5 301 l 1,26,-1
 138.5 66 l 1,27,-1
 293.5 66 l 2,12,13
EndSplineSet
Substitution2: "'c2sc' Capitals to Small Capitals lookup 25 subtable" eth.smcp
Substitution2: "'aalt' Access All Alternates lookup 0 subtable" eth.smcp
EndChar

StartChar: Dcaron
Encoding: 270 270 36
Width: 550
Flags: W
LayerCount: 3
Fore
SplineSet
144.5 845 m 1,0,-1
 202.5 845 l 1,1,-1
 265.5 758 l 1,2,-1
 327.5 845 l 1,3,-1
 385.5 845 l 1,4,-1
 319.5 718 l 1,5,-1
 212.5 718 l 1,6,-1
 144.5 845 l 1,0,-1
9.5 649 m 1,7,-1
 267.5 649 l 2,8,9
 540.5 649 540.5 649 540.5 463 c 2,10,-1
 540.5 176 l 2,11,12
 540.5 0 540.5 0 268.5 0 c 2,13,-1
 9.5 0 l 1,14,-1
 9.5 649 l 1,7,-1
261.5 66 m 2,15,16
 447.5 66 447.5 66 447.5 178 c 2,17,-1
 447.5 464 l 2,18,19
 447.5 500 447.5 500 432.5 525 c 128,-1,20
 417.5 550 417.5 550 390.5 562 c 0,21,22
 363.5 573 363.5 573 334.5 577.5 c 128,-1,23
 305.5 582 305.5 582 266.5 582 c 2,24,-1
 106.5 582 l 1,25,-1
 106.5 66 l 1,26,-1
 261.5 66 l 2,15,16
EndSplineSet
Substitution2: "'c2sc' Capitals to Small Capitals lookup 25 subtable" dcaron.smcp
Substitution2: "'aalt' Access All Alternates lookup 0 subtable" dcaron.smcp
EndChar

StartChar: E
Encoding: 69 69 38
Width: 550
GlyphClass: 2
Flags: W
AnchorPoint: "Anchor-12" -32 0 basechar 0
AnchorPoint: "Anchor-11" -32 0 basechar 0
AnchorPoint: "Anchor-10" -32 0 basechar 0
AnchorPoint: "Anchor-9" 258 649 basechar 0
AnchorPoint: "Anchor-8" 258 0 basechar 0
LayerCount: 3
Fore
SplineSet
52 649 m 1,0,-1
 488 649 l 1,1,-1
 488 581 l 1,2,-1
 149 581 l 1,3,-1
 149 369 l 1,4,-1
 455 369 l 1,5,-1
 455 301 l 1,6,-1
 149 301 l 1,7,-1
 149 68 l 1,8,-1
 498 68 l 1,9,-1
 498 0 l 1,10,-1
 52 0 l 1,11,-1
 52 649 l 1,0,-1
EndSplineSet
Substitution2: "'c2sc' Capitals to Small Capitals lookup 25 subtable" e.smcp
Substitution2: "'aalt' Access All Alternates lookup 0 subtable" e.smcp
EndChar

StartChar: Ebreve
Encoding: 276 276 40
Width: 550
Flags: W
LayerCount: 3
Fore
SplineSet
189 737 m 128,-1,1
 158 771 158 771 155 830 c 1,2,-1
 191 830 l 1,3,4
 204 793 204 793 222 777.5 c 128,-1,5
 240 762 240 762 273 762 c 256,6,7
 306 762 306 762 324.5 778 c 128,-1,8
 343 794 343 794 354 830 c 1,9,-1
 391 830 l 1,10,11
 387 771 387 771 356 737 c 128,-1,12
 325 703 325 703 273 703 c 0,13,0
 220 703 220 703 189 737 c 128,-1,1
52 649 m 1,14,-1
 488 649 l 1,15,-1
 488 581 l 1,16,-1
 149 581 l 1,17,-1
 149 369 l 1,18,-1
 455 369 l 1,19,-1
 455 301 l 1,20,-1
 149 301 l 1,21,-1
 149 68 l 1,22,-1
 498 68 l 1,23,-1
 498 0 l 1,24,-1
 52 0 l 1,25,-1
 52 649 l 1,14,-1
EndSplineSet
Substitution2: "'c2sc' Capitals to Small Capitals lookup 25 subtable" ebreve.smcp
Substitution2: "'aalt' Access All Alternates lookup 0 subtable" ebreve.smcp
EndChar

StartChar: Ecaron
Encoding: 282 282 41
Width: 550
Flags: W
LayerCount: 3
Fore
SplineSet
149 830 m 1,0,-1
 207 830 l 1,1,-1
 270 743 l 1,2,-1
 332 830 l 1,3,-1
 390 830 l 1,4,-1
 324 703 l 1,5,-1
 217 703 l 1,6,-1
 149 830 l 1,0,-1
52 649 m 1,7,-1
 488 649 l 1,8,-1
 488 581 l 1,9,-1
 149 581 l 1,10,-1
 149 369 l 1,11,-1
 455 369 l 1,12,-1
 455 301 l 1,13,-1
 149 301 l 1,14,-1
 149 68 l 1,15,-1
 498 68 l 1,16,-1
 498 0 l 1,17,-1
 52 0 l 1,18,-1
 52 649 l 1,7,-1
EndSplineSet
Substitution2: "'c2sc' Capitals to Small Capitals lookup 25 subtable" ecaron.smcp
Substitution2: "'aalt' Access All Alternates lookup 0 subtable" ecaron.smcp
EndChar

StartChar: uni1EBE
Encoding: 7870 7870 43
Width: 550
GlyphClass: 2
Flags: W
AnchorPoint: "Anchor-12" -38.5 0 basechar 0
AnchorPoint: "Anchor-11" -38.5 0 basechar 0
AnchorPoint: "Anchor-10" -38.5 0 basechar 0
AnchorPoint: "Anchor-9" 455.5 918 basechar 0
AnchorPoint: "Anchor-8" 251.5 0 basechar 0
LayerCount: 3
Fore
SplineSet
395.5 887 m 1,0,-1
 504.5 887 l 1,1,-1
 429.5 791 l 1,2,-1
 355.5 791 l 1,3,-1
 395.5 887 l 1,0,-1
198.5 845 m 1,4,-1
 305.5 845 l 1,5,-1
 371.5 718 l 1,6,-1
 313.5 718 l 1,7,-1
 251.5 805 l 1,8,-1
 188.5 718 l 1,9,-1
 130.5 718 l 1,10,-1
 198.5 845 l 1,4,-1
45.5 649 m 1,11,-1
 481.5 649 l 1,12,-1
 481.5 581 l 1,13,-1
 142.5 581 l 1,14,-1
 142.5 369 l 1,15,-1
 448.5 369 l 1,16,-1
 448.5 301 l 1,17,-1
 142.5 301 l 1,18,-1
 142.5 68 l 1,19,-1
 491.5 68 l 1,20,-1
 491.5 0 l 1,21,-1
 45.5 0 l 1,22,-1
 45.5 649 l 1,11,-1
EndSplineSet
EndChar

StartChar: uni1EC0
Encoding: 7872 7872 45
Width: 550
GlyphClass: 2
Flags: W
AnchorPoint: "Anchor-12" -32 0 basechar 0
AnchorPoint: "Anchor-11" -32 0 basechar 0
AnchorPoint: "Anchor-10" -32 0 basechar 0
AnchorPoint: "Anchor-9" 334 938 basechar 0
AnchorPoint: "Anchor-8" 258 0 basechar 0
LayerCount: 3
Fore
SplineSet
328 907 m 1,0,-1
 437 907 l 1,1,-1
 468 811 l 1,2,-1
 394 811 l 1,3,-1
 328 907 l 1,0,-1
205 845 m 1,4,-1
 312 845 l 1,5,-1
 378 718 l 1,6,-1
 320 718 l 1,7,-1
 258 805 l 1,8,-1
 195 718 l 1,9,-1
 137 718 l 1,10,-1
 205 845 l 1,4,-1
52 649 m 1,11,-1
 488 649 l 1,12,-1
 488 581 l 1,13,-1
 149 581 l 1,14,-1
 149 369 l 1,15,-1
 455 369 l 1,16,-1
 455 301 l 1,17,-1
 149 301 l 1,18,-1
 149 68 l 1,19,-1
 498 68 l 1,20,-1
 498 0 l 1,21,-1
 52 0 l 1,22,-1
 52 649 l 1,11,-1
EndSplineSet
EndChar

StartChar: Edieresis
Encoding: 203 203 48
Width: 550
Flags: W
LayerCount: 3
Fore
SplineSet
144 809 m 1,0,-1
 234 809 l 1,1,-1
 234 715 l 1,2,-1
 144 715 l 1,3,-1
 144 809 l 1,0,-1
314 809 m 1,4,-1
 404 809 l 1,5,-1
 404 715 l 1,6,-1
 314 715 l 1,7,-1
 314 809 l 1,4,-1
52 649 m 1,8,-1
 488 649 l 1,9,-1
 488 581 l 1,10,-1
 149 581 l 1,11,-1
 149 369 l 1,12,-1
 455 369 l 1,13,-1
 455 301 l 1,14,-1
 149 301 l 1,15,-1
 149 68 l 1,16,-1
 498 68 l 1,17,-1
 498 0 l 1,18,-1
 52 0 l 1,19,-1
 52 649 l 1,8,-1
EndSplineSet
Substitution2: "'c2sc' Capitals to Small Capitals lookup 25 subtable" edieresis.smcp
Substitution2: "'aalt' Access All Alternates lookup 0 subtable" edieresis.smcp
EndChar

StartChar: Edotaccent
Encoding: 278 278 49
Width: 550
Flags: W
LayerCount: 3
Fore
SplineSet
224 830 m 1,0,-1
 314 830 l 1,1,-1
 314 732 l 1,2,-1
 224 732 l 1,3,-1
 224 830 l 1,0,-1
52 649 m 1,4,-1
 488 649 l 1,5,-1
 488 581 l 1,6,-1
 149 581 l 1,7,-1
 149 369 l 1,8,-1
 455 369 l 1,9,-1
 455 301 l 1,10,-1
 149 301 l 1,11,-1
 149 68 l 1,12,-1
 498 68 l 1,13,-1
 498 0 l 1,14,-1
 52 0 l 1,15,-1
 52 649 l 1,4,-1
EndSplineSet
Substitution2: "'c2sc' Capitals to Small Capitals lookup 25 subtable" edotaccent.smcp
Substitution2: "'aalt' Access All Alternates lookup 0 subtable" edotaccent.smcp
EndChar

StartChar: Emacron
Encoding: 274 274 53
Width: 550
Flags: W
LayerCount: 3
Fore
SplineSet
161 798 m 1,0,-1
 379 798 l 1,1,-1
 379 739 l 1,2,-1
 161 739 l 1,3,-1
 161 798 l 1,0,-1
52 649 m 1,4,-1
 488 649 l 1,5,-1
 488 581 l 1,6,-1
 149 581 l 1,7,-1
 149 369 l 1,8,-1
 455 369 l 1,9,-1
 455 301 l 1,10,-1
 149 301 l 1,11,-1
 149 68 l 1,12,-1
 498 68 l 1,13,-1
 498 0 l 1,14,-1
 52 0 l 1,15,-1
 52 649 l 1,4,-1
EndSplineSet
Substitution2: "'c2sc' Capitals to Small Capitals lookup 25 subtable" emacron.smcp
Substitution2: "'aalt' Access All Alternates lookup 0 subtable" emacron.smcp
EndChar

StartChar: Eogonek
Encoding: 280 280 54
Width: 550
Flags: W
LayerCount: 3
Fore
SplineSet
330.5 -167 m 128,-1,1
 306 -148 306 -148 306 -106 c 0,2,3
 306 -56 306 -56 342 0 c 1,4,-1
 52 0 l 1,5,-1
 52 649 l 1,6,-1
 488 649 l 1,7,-1
 488 581 l 1,8,-1
 149 581 l 1,9,-1
 149 369 l 1,10,-1
 455 369 l 1,11,-1
 455 301 l 1,12,-1
 149 301 l 1,13,-1
 149 68 l 1,14,-1
 498 68 l 1,15,-1
 498 0 l 1,16,-1
 417 0 l 1,17,18
 385 -50 385 -50 385 -97 c 0,19,20
 385 -130 385 -130 424 -130 c 0,21,22
 434 -130 434 -130 455 -123 c 1,23,-1
 455 -176 l 1,24,25
 435 -186 435 -186 405 -186 c 0,26,0
 355 -186 355 -186 330.5 -167 c 128,-1,1
EndSplineSet
Substitution2: "'c2sc' Capitals to Small Capitals lookup 25 subtable" eogonek.smcp
Substitution2: "'aalt' Access All Alternates lookup 0 subtable" eogonek.smcp
EndChar

StartChar: F
Encoding: 70 70 56
Width: 550
Flags: W
LayerCount: 3
Fore
SplineSet
52 649 m 1,0,-1
 498 649 l 1,1,-1
 498 581 l 1,2,-1
 149 581 l 1,3,-1
 149 369 l 1,4,-1
 465 369 l 1,5,-1
 465 301 l 1,6,-1
 149 301 l 1,7,-1
 149 0 l 1,8,-1
 52 0 l 1,9,-1
 52 649 l 1,0,-1
EndSplineSet
Substitution2: "'c2sc' Capitals to Small Capitals lookup 25 subtable" f.smcp
Substitution2: "'aalt' Access All Alternates lookup 0 subtable" f.smcp
EndChar

StartChar: G
Encoding: 71 71 57
Width: 550
Flags: W
LayerCount: 3
Fore
SplineSet
223.5 -6 m 128,-1,1
 188 -2 188 -2 149 9 c 0,2,3
 105 21 105 21 75 39.5 c 128,-1,4
 45 58 45 58 26 90 c 0,5,6
 6 124 6 124 6 166 c 2,7,-1
 6 473 l 2,8,9
 6 529 6 529 35 569 c 128,-1,10
 64 609 64 609 115 627 c 0,11,12
 164 644 164 644 208.5 651.5 c 128,-1,13
 253 659 253 659 305 659 c 0,14,15
 429 659 429 659 529 643 c 1,16,-1
 529 568 l 1,17,18
 491 577 491 577 420.5 584.5 c 128,-1,19
 350 592 350 592 307 592 c 0,20,21
 102 592 102 592 102 474 c 2,22,-1
 102 168 l 2,23,24
 102 136 102 136 121.5 112 c 128,-1,25
 141 88 141 88 175 77 c 0,26,27
 207 65 207 65 239 60.5 c 128,-1,28
 271 56 271 56 311 56 c 0,29,30
 378 56 378 56 454 74 c 1,31,-1
 454 301 l 1,32,-1
 302 301 l 1,33,-1
 302 369 l 1,34,-1
 544 369 l 1,35,-1
 544 20 l 1,36,37
 414 -10 414 -10 305 -10 c 0,38,0
 259 -10 259 -10 223.5 -6 c 128,-1,1
EndSplineSet
Substitution2: "'c2sc' Capitals to Small Capitals lookup 25 subtable" g.smcp
Substitution2: "'aalt' Access All Alternates lookup 0 subtable" g.smcp
EndChar

StartChar: Gbreve
Encoding: 286 286 58
Width: 550
Flags: W
LayerCount: 3
Fore
SplineSet
190.5 752.5 m 128,-1,1
 159 787 159 787 157 845 c 1,2,-1
 211 845 l 1,3,4
 217 777 217 777 275 777 c 256,5,6
 333 777 333 777 339 845 c 1,7,-1
 393 845 l 1,8,9
 392 788 392 788 360 753 c 256,10,11
 328 718 328 718 275 718 c 256,12,0
 222 718 222 718 190.5 752.5 c 128,-1,1
223.5 -6 m 128,-1,14
 188 -2 188 -2 149 9 c 0,15,16
 105 21 105 21 75 39.5 c 128,-1,17
 45 58 45 58 26 90 c 0,18,19
 6 124 6 124 6 166 c 2,20,-1
 6 473 l 2,21,22
 6 529 6 529 35 569 c 128,-1,23
 64 609 64 609 115 627 c 0,24,25
 164 644 164 644 208.5 651.5 c 128,-1,26
 253 659 253 659 305 659 c 0,27,28
 429 659 429 659 529 643 c 1,29,-1
 529 568 l 1,30,31
 491 577 491 577 420.5 584.5 c 128,-1,32
 350 592 350 592 307 592 c 0,33,34
 102 592 102 592 102 474 c 2,35,-1
 102 168 l 2,36,37
 102 136 102 136 121.5 112 c 128,-1,38
 141 88 141 88 175 77 c 0,39,40
 207 65 207 65 239 60.5 c 128,-1,41
 271 56 271 56 311 56 c 0,42,43
 378 56 378 56 454 74 c 1,44,-1
 454 301 l 1,45,-1
 302 301 l 1,46,-1
 302 369 l 1,47,-1
 544 369 l 1,48,-1
 544 20 l 1,49,50
 414 -10 414 -10 305 -10 c 0,51,13
 259 -10 259 -10 223.5 -6 c 128,-1,14
EndSplineSet
Substitution2: "'c2sc' Capitals to Small Capitals lookup 25 subtable" gbreve.smcp
Substitution2: "'aalt' Access All Alternates lookup 0 subtable" gbreve.smcp
EndChar

StartChar: Gcircumflex
Encoding: 284 284 59
Width: 550
Flags: W
LayerCount: 3
Fore
SplineSet
222 845 m 1,0,-1
 329 845 l 1,1,-1
 395 718 l 1,2,-1
 337 718 l 1,3,-1
 275 805 l 1,4,-1
 212 718 l 1,5,-1
 154 718 l 1,6,-1
 222 845 l 1,0,-1
223.5 -6 m 128,-1,8
 188 -2 188 -2 149 9 c 0,9,10
 105 21 105 21 75 39.5 c 128,-1,11
 45 58 45 58 26 90 c 0,12,13
 6 124 6 124 6 166 c 2,14,-1
 6 473 l 2,15,16
 6 529 6 529 35 569 c 128,-1,17
 64 609 64 609 115 627 c 0,18,19
 164 644 164 644 208.5 651.5 c 128,-1,20
 253 659 253 659 305 659 c 0,21,22
 429 659 429 659 529 643 c 1,23,-1
 529 568 l 1,24,25
 491 577 491 577 420.5 584.5 c 128,-1,26
 350 592 350 592 307 592 c 0,27,28
 102 592 102 592 102 474 c 2,29,-1
 102 168 l 2,30,31
 102 136 102 136 121.5 112 c 128,-1,32
 141 88 141 88 175 77 c 0,33,34
 207 65 207 65 239 60.5 c 128,-1,35
 271 56 271 56 311 56 c 0,36,37
 378 56 378 56 454 74 c 1,38,-1
 454 301 l 1,39,-1
 302 301 l 1,40,-1
 302 369 l 1,41,-1
 544 369 l 1,42,-1
 544 20 l 1,43,44
 414 -10 414 -10 305 -10 c 0,45,7
 259 -10 259 -10 223.5 -6 c 128,-1,8
EndSplineSet
Substitution2: "'c2sc' Capitals to Small Capitals lookup 25 subtable" gcircumflex.smcp
Substitution2: "'aalt' Access All Alternates lookup 0 subtable" gcircumflex.smcp
EndChar

StartChar: Gcommaaccent
Encoding: 290 290 60
Width: 550
Flags: W
LayerCount: 3
Fore
SplineSet
223.5 -6 m 128,-1,1
 188 -2 188 -2 149 9 c 0,2,3
 105 21 105 21 75 39.5 c 128,-1,4
 45 58 45 58 26 90 c 0,5,6
 6 124 6 124 6 166 c 2,7,-1
 6 473 l 2,8,9
 6 529 6 529 35 569 c 128,-1,10
 64 609 64 609 115 627 c 0,11,12
 164 644 164 644 208.5 651.5 c 128,-1,13
 253 659 253 659 305 659 c 0,14,15
 429 659 429 659 529 643 c 1,16,-1
 529 568 l 1,17,18
 491 577 491 577 420.5 584.5 c 128,-1,19
 350 592 350 592 307 592 c 0,20,21
 102 592 102 592 102 474 c 2,22,-1
 102 168 l 2,23,24
 102 136 102 136 121.5 112 c 128,-1,25
 141 88 141 88 175 77 c 0,26,27
 207 65 207 65 239 60.5 c 128,-1,28
 271 56 271 56 311 56 c 0,29,30
 378 56 378 56 454 74 c 1,31,-1
 454 301 l 1,32,-1
 302 301 l 1,33,-1
 302 369 l 1,34,-1
 544 369 l 1,35,-1
 544 20 l 1,36,37
 414 -10 414 -10 305 -10 c 0,38,0
 259 -10 259 -10 223.5 -6 c 128,-1,1
251 -40 m 1,39,-1
 345 -40 l 1,40,-1
 262 -190 l 1,41,-1
 205 -190 l 1,42,-1
 251 -40 l 1,39,-1
EndSplineSet
Substitution2: "'c2sc' Capitals to Small Capitals lookup 25 subtable" gcommaaccent.smcp
Substitution2: "'aalt' Access All Alternates lookup 0 subtable" gcommaaccent.smcp
EndChar

StartChar: Gdotaccent
Encoding: 288 288 61
Width: 550
Flags: W
LayerCount: 3
Fore
SplineSet
230 831 m 1,0,-1
 320 831 l 1,1,-1
 320 733 l 1,2,-1
 230 733 l 1,3,-1
 230 831 l 1,0,-1
223.5 -6 m 128,-1,5
 188 -2 188 -2 149 9 c 0,6,7
 105 21 105 21 75 39.5 c 128,-1,8
 45 58 45 58 26 90 c 0,9,10
 6 124 6 124 6 166 c 2,11,-1
 6 473 l 2,12,13
 6 529 6 529 35 569 c 128,-1,14
 64 609 64 609 115 627 c 0,15,16
 164 644 164 644 208.5 651.5 c 128,-1,17
 253 659 253 659 305 659 c 0,18,19
 429 659 429 659 529 643 c 1,20,-1
 529 568 l 1,21,22
 491 577 491 577 420.5 584.5 c 128,-1,23
 350 592 350 592 307 592 c 0,24,25
 102 592 102 592 102 474 c 2,26,-1
 102 168 l 2,27,28
 102 136 102 136 121.5 112 c 128,-1,29
 141 88 141 88 175 77 c 0,30,31
 207 65 207 65 239 60.5 c 128,-1,32
 271 56 271 56 311 56 c 0,33,34
 378 56 378 56 454 74 c 1,35,-1
 454 301 l 1,36,-1
 302 301 l 1,37,-1
 302 369 l 1,38,-1
 544 369 l 1,39,-1
 544 20 l 1,40,41
 414 -10 414 -10 305 -10 c 0,42,4
 259 -10 259 -10 223.5 -6 c 128,-1,5
EndSplineSet
Substitution2: "'c2sc' Capitals to Small Capitals lookup 25 subtable" gdotaccent.smcp
Substitution2: "'aalt' Access All Alternates lookup 0 subtable" gdotaccent.smcp
EndChar

StartChar: H
Encoding: 72 72 62
Width: 550
Flags: W
LayerCount: 3
Fore
SplineSet
5.5 649 m 1,0,-1
 102.5 649 l 1,1,-1
 102.5 369 l 1,2,-1
 447.5 369 l 1,3,-1
 447.5 649 l 1,4,-1
 544.5 649 l 1,5,-1
 544.5 0 l 1,6,-1
 447.5 0 l 1,7,-1
 447.5 301 l 1,8,-1
 102.5 301 l 1,9,-1
 102.5 0 l 1,10,-1
 5.5 0 l 1,11,-1
 5.5 649 l 1,0,-1
EndSplineSet
Substitution2: "'c2sc' Capitals to Small Capitals lookup 25 subtable" h.smcp
Substitution2: "'aalt' Access All Alternates lookup 0 subtable" h.smcp
EndChar

StartChar: Hbar
Encoding: 294 294 63
Width: 550
Flags: W
LayerCount: 3
Fore
SplineSet
5.5 649 m 1,0,-1
 102.5 649 l 1,1,-1
 102.5 469 l 1,2,-1
 447.5 469 l 1,3,-1
 447.5 649 l 1,4,-1
 544.5 649 l 1,5,-1
 544.5 0 l 1,6,-1
 447.5 0 l 1,7,-1
 447.5 241 l 1,8,-1
 102.5 241 l 1,9,-1
 102.5 0 l 1,10,-1
 5.5 0 l 1,11,-1
 5.5 649 l 1,0,-1
447.5 309 m 1,12,-1
 447.5 401 l 1,13,-1
 102.5 401 l 1,14,-1
 102.5 309 l 1,15,-1
 447.5 309 l 1,12,-1
EndSplineSet
Substitution2: "'c2sc' Capitals to Small Capitals lookup 25 subtable" hbar.smcp
Substitution2: "'aalt' Access All Alternates lookup 0 subtable" hbar.smcp
EndChar

StartChar: Hcircumflex
Encoding: 292 292 64
Width: 550
Flags: W
LayerCount: 3
Fore
SplineSet
219.5 830 m 1,0,-1
 326.5 830 l 1,1,-1
 392.5 703 l 1,2,-1
 334.5 703 l 1,3,-1
 272.5 790 l 1,4,-1
 209.5 703 l 1,5,-1
 151.5 703 l 1,6,-1
 219.5 830 l 1,0,-1
5.5 649 m 1,7,-1
 102.5 649 l 1,8,-1
 102.5 369 l 1,9,-1
 447.5 369 l 1,10,-1
 447.5 649 l 1,11,-1
 544.5 649 l 1,12,-1
 544.5 0 l 1,13,-1
 447.5 0 l 1,14,-1
 447.5 301 l 1,15,-1
 102.5 301 l 1,16,-1
 102.5 0 l 1,17,-1
 5.5 0 l 1,18,-1
 5.5 649 l 1,7,-1
EndSplineSet
Substitution2: "'c2sc' Capitals to Small Capitals lookup 25 subtable" hcircumflex.smcp
Substitution2: "'aalt' Access All Alternates lookup 0 subtable" hcircumflex.smcp
EndChar

StartChar: I
Encoding: 73 73 65
Width: 550
GlyphClass: 2
Flags: W
AnchorPoint: "Anchor-12" 142.5 0 basechar 0
AnchorPoint: "Anchor-11" 142.5 0 basechar 0
AnchorPoint: "Anchor-10" 142.5 0 basechar 0
AnchorPoint: "Anchor-9" 275.5 649 basechar 0
AnchorPoint: "Anchor-8" 275.5 0 basechar 0
LayerCount: 3
Fore
SplineSet
226.5 649 m 1,0,-1
 323.5 649 l 1,1,-1
 323.5 0 l 1,2,-1
 226.5 0 l 1,3,-1
 226.5 649 l 1,0,-1
EndSplineSet
Substitution2: "'c2sc' Capitals to Small Capitals lookup 25 subtable" i.smcp
Substitution2: "'aalt' Access All Alternates lookup 0 subtable" i.smcp
EndChar

StartChar: IJ
Encoding: 306 306 66
Width: 550
Flags: W
LayerCount: 3
Fore
SplineSet
58.5 649 m 1,0,-1
 155.5 649 l 1,1,-1
 155.5 0 l 1,2,-1
 58.5 0 l 1,3,-1
 58.5 649 l 1,0,-1
192.5 1 m 1,5,-1
 192.5 66 l 1,6,-1
 219.5 63 l 2,7,8
 267.5 55 267.5 55 299.5 55 c 0,9,10
 339.5 55 339.5 55 359 61 c 128,-1,11
 378.5 67 378.5 67 386.5 84.5 c 128,-1,12
 394.5 102 394.5 102 394.5 139 c 2,13,-1
 394.5 649 l 1,14,-1
 491.5 649 l 1,15,-1
 491.5 143 l 2,16,17
 491.5 82 491.5 82 474 50 c 128,-1,18
 456.5 18 456.5 18 418.5 6.5 c 128,-1,19
 380.5 -5 380.5 -5 311.5 -5 c 0,20,4
 294.5 -5 294.5 -5 192.5 1 c 1,5,-1
EndSplineSet
Substitution2: "'c2sc' Capitals to Small Capitals lookup 25 subtable" ij.smcp
Substitution2: "'aalt' Access All Alternates lookup 0 subtable" ij.smcp
EndChar

StartChar: Ibreve
Encoding: 300 300 68
Width: 550
Flags: W
LayerCount: 3
Fore
SplineSet
190.5 752.5 m 128,-1,1
 159 787 159 787 157 845 c 1,2,-1
 211 845 l 1,3,4
 217 777 217 777 275 777 c 256,5,6
 333 777 333 777 339 845 c 1,7,-1
 393 845 l 1,8,9
 392 788 392 788 360 753 c 256,10,11
 328 718 328 718 275 718 c 256,12,0
 222 718 222 718 190.5 752.5 c 128,-1,1
226 649 m 1,13,-1
 323 649 l 1,14,-1
 323 0 l 1,15,-1
 226 0 l 1,16,-1
 226 649 l 1,13,-1
EndSplineSet
Substitution2: "'c2sc' Capitals to Small Capitals lookup 25 subtable" ibreve.smcp
Substitution2: "'aalt' Access All Alternates lookup 0 subtable" ibreve.smcp
EndChar

StartChar: Icircumflex
Encoding: 206 206 69
Width: 550
Flags: W
LayerCount: 3
Fore
SplineSet
222.5 830 m 1,0,-1
 329.5 830 l 1,1,-1
 395.5 703 l 1,2,-1
 337.5 703 l 1,3,-1
 275.5 790 l 1,4,-1
 212.5 703 l 1,5,-1
 154.5 703 l 1,6,-1
 222.5 830 l 1,0,-1
227.5 649 m 1,7,-1
 324.5 649 l 1,8,-1
 324.5 0 l 1,9,-1
 227.5 0 l 1,10,-1
 227.5 649 l 1,7,-1
EndSplineSet
Substitution2: "'c2sc' Capitals to Small Capitals lookup 25 subtable" icircumflex.smcp
Substitution2: "'aalt' Access All Alternates lookup 0 subtable" icircumflex.smcp
EndChar

StartChar: Idieresis
Encoding: 207 207 70
Width: 550
Flags: W
LayerCount: 3
Fore
SplineSet
145 809 m 1,0,-1
 235 809 l 1,1,-1
 235 715 l 1,2,-1
 145 715 l 1,3,-1
 145 809 l 1,0,-1
315 809 m 1,4,-1
 405 809 l 1,5,-1
 405 715 l 1,6,-1
 315 715 l 1,7,-1
 315 809 l 1,4,-1
225 649 m 1,8,-1
 322 649 l 1,9,-1
 322 0 l 1,10,-1
 225 0 l 1,11,-1
 225 649 l 1,8,-1
EndSplineSet
Substitution2: "'c2sc' Capitals to Small Capitals lookup 25 subtable" idieresis.smcp
Substitution2: "'aalt' Access All Alternates lookup 0 subtable" idieresis.smcp
EndChar

StartChar: Idotaccent
Encoding: 304 304 71
Width: 550
Flags: W
LayerCount: 3
Fore
SplineSet
229.5 811 m 1,0,-1
 319.5 811 l 1,1,-1
 319.5 713 l 1,2,-1
 229.5 713 l 1,3,-1
 229.5 811 l 1,0,-1
226.5 649 m 1,4,-1
 323.5 649 l 1,5,-1
 323.5 0 l 1,6,-1
 226.5 0 l 1,7,-1
 226.5 649 l 1,4,-1
EndSplineSet
Substitution2: "'c2sc' Capitals to Small Capitals lookup 25 subtable" i.loclTRK.smcp
Substitution2: "'aalt' Access All Alternates lookup 0 subtable" i.loclTRK.smcp
EndChar

StartChar: Imacron
Encoding: 298 298 75
Width: 550
Flags: W
LayerCount: 3
Fore
SplineSet
166 798 m 1,0,-1
 384 798 l 1,1,-1
 384 739 l 1,2,-1
 166 739 l 1,3,-1
 166 798 l 1,0,-1
226 649 m 1,4,-1
 323 649 l 1,5,-1
 323 0 l 1,6,-1
 226 0 l 1,7,-1
 226 649 l 1,4,-1
EndSplineSet
Substitution2: "'c2sc' Capitals to Small Capitals lookup 25 subtable" imacron.smcp
Substitution2: "'aalt' Access All Alternates lookup 0 subtable" imacron.smcp
EndChar

StartChar: Iogonek
Encoding: 302 302 76
Width: 550
Flags: W
LayerCount: 3
Fore
SplineSet
224.5 -167 m 128,-1,1
 200.5 -148 200.5 -148 200.5 -106 c 0,2,3
 200.5 -59 200.5 -59 225.5 0 c 1,4,-1
 225.5 649 l 1,5,-1
 322.5 649 l 1,6,-1
 322.5 0 l 1,7,8
 279.5 -46 279.5 -46 279.5 -97 c 0,9,10
 279.5 -130 279.5 -130 318.5 -130 c 0,11,12
 328.5 -130 328.5 -130 349.5 -123 c 1,13,-1
 349.5 -176 l 1,14,15
 329.5 -186 329.5 -186 299.5 -186 c 0,16,0
 248.5 -186 248.5 -186 224.5 -167 c 128,-1,1
EndSplineSet
Substitution2: "'c2sc' Capitals to Small Capitals lookup 25 subtable" iogonek.smcp
Substitution2: "'aalt' Access All Alternates lookup 0 subtable" iogonek.smcp
EndChar

StartChar: J
Encoding: 74 74 78
Width: 550
Flags: W
LayerCount: 3
Fore
SplineSet
125.5 1 m 1,1,-1
 125.5 66 l 1,2,3
 185.5 50 185.5 50 232.5 50 c 0,4,5
 271.5 50 271.5 50 291.5 57 c 128,-1,6
 311.5 64 311.5 64 319.5 82.5 c 128,-1,7
 327.5 101 327.5 101 327.5 139 c 2,8,-1
 327.5 649 l 1,9,-1
 424.5 649 l 1,10,-1
 424.5 143 l 2,11,12
 424.5 81 424.5 81 406.5 48.5 c 128,-1,13
 388.5 16 388.5 16 350.5 3 c 128,-1,14
 312.5 -10 312.5 -10 244.5 -10 c 0,15,0
 164.5 -10 164.5 -10 125.5 1 c 1,1,-1
EndSplineSet
Substitution2: "'c2sc' Capitals to Small Capitals lookup 25 subtable" j.smcp
Substitution2: "'aalt' Access All Alternates lookup 0 subtable" j.smcp
EndChar

StartChar: Jcircumflex
Encoding: 308 308 79
Width: 550
Flags: W
LayerCount: 3
Fore
SplineSet
287 839 m 1,0,-1
 394 839 l 1,1,-1
 460 712 l 1,2,-1
 402 712 l 1,3,-1
 340 799 l 1,4,-1
 277 712 l 1,5,-1
 219 712 l 1,6,-1
 287 839 l 1,0,-1
90 1 m 1,8,-1
 90 66 l 1,9,10
 150 50 150 50 197 50 c 0,11,12
 236 50 236 50 256 57 c 128,-1,13
 276 64 276 64 284 82.5 c 128,-1,14
 292 101 292 101 292 139 c 2,15,-1
 292 649 l 1,16,-1
 389 649 l 1,17,-1
 389 143 l 2,18,19
 389 81 389 81 371 48.5 c 128,-1,20
 353 16 353 16 315 3 c 128,-1,21
 277 -10 277 -10 209 -10 c 0,22,7
 129 -10 129 -10 90 1 c 1,8,-1
EndSplineSet
Substitution2: "'c2sc' Capitals to Small Capitals lookup 25 subtable" jcircumflex.smcp
Substitution2: "'aalt' Access All Alternates lookup 0 subtable" jcircumflex.smcp
EndChar

StartChar: K
Encoding: 75 75 80
Width: 550
Flags: W
LayerCount: 3
Fore
SplineSet
7.5 649 m 1,0,-1
 104.5 649 l 1,1,-1
 104.5 0 l 1,2,-1
 7.5 0 l 1,3,-1
 7.5 649 l 1,0,-1
106.5 345 m 1,4,-1
 396.5 649 l 1,5,-1
 513.5 649 l 1,6,-1
 221.5 349 l 1,7,-1
 542.5 0 l 1,8,-1
 416.5 0 l 1,9,-1
 106.5 345 l 1,4,-1
EndSplineSet
Substitution2: "'c2sc' Capitals to Small Capitals lookup 25 subtable" k.smcp
Substitution2: "'aalt' Access All Alternates lookup 0 subtable" k.smcp
EndChar

StartChar: Kcommaaccent
Encoding: 310 310 81
Width: 550
Flags: W
LayerCount: 3
Fore
SplineSet
7.5 649 m 1,0,-1
 104.5 649 l 1,1,-1
 104.5 0 l 1,2,-1
 7.5 0 l 1,3,-1
 7.5 649 l 1,0,-1
106.5 345 m 1,4,-1
 396.5 649 l 1,5,-1
 513.5 649 l 1,6,-1
 221.5 349 l 1,7,-1
 542.5 0 l 1,8,-1
 416.5 0 l 1,9,-1
 106.5 345 l 1,4,-1
213.5 -40 m 1,10,-1
 314.5 -40 l 1,11,-1
 231.5 -190 l 1,12,-1
 167.5 -190 l 1,13,-1
 213.5 -40 l 1,10,-1
EndSplineSet
Substitution2: "'c2sc' Capitals to Small Capitals lookup 25 subtable" kcommaaccent.smcp
Substitution2: "'aalt' Access All Alternates lookup 0 subtable" kcommaaccent.smcp
EndChar

StartChar: L
Encoding: 76 76 82
Width: 550
Flags: W
LayerCount: 3
Fore
SplineSet
67 649 m 1,0,-1
 164 649 l 1,1,-1
 164 68 l 1,2,-1
 483 68 l 1,3,-1
 483 0 l 1,4,-1
 67 0 l 1,5,-1
 67 649 l 1,0,-1
EndSplineSet
Substitution2: "'c2sc' Capitals to Small Capitals lookup 25 subtable" l.smcp
Substitution2: "'aalt' Access All Alternates lookup 0 subtable" l.smcp
EndChar

StartChar: Lacute
Encoding: 313 313 83
Width: 550
Flags: W
LayerCount: 3
Fore
SplineSet
167 830 m 1,0,-1
 276 830 l 1,1,-1
 151 703 l 1,2,-1
 77 703 l 1,3,-1
 167 830 l 1,0,-1
67 649 m 1,4,-1
 164 649 l 1,5,-1
 164 68 l 1,6,-1
 483 68 l 1,7,-1
 483 0 l 1,8,-1
 67 0 l 1,9,-1
 67 649 l 1,4,-1
EndSplineSet
Substitution2: "'c2sc' Capitals to Small Capitals lookup 25 subtable" lacute.smcp
Substitution2: "'aalt' Access All Alternates lookup 0 subtable" lacute.smcp
EndChar

StartChar: Lcaron
Encoding: 317 317 84
Width: 550
Flags: W
LayerCount: 3
Fore
SplineSet
67 649 m 1,0,-1
 164 649 l 1,1,-1
 164 68 l 1,2,-1
 483 68 l 1,3,-1
 483 0 l 1,4,-1
 67 0 l 1,5,-1
 67 649 l 1,0,-1
271 649 m 1,6,-1
 372 649 l 1,7,-1
 289 499 l 1,8,-1
 225 499 l 1,9,-1
 271 649 l 1,6,-1
EndSplineSet
Substitution2: "'c2sc' Capitals to Small Capitals lookup 25 subtable" lcaron.smcp
Substitution2: "'aalt' Access All Alternates lookup 0 subtable" lcaron.smcp
EndChar

StartChar: Lcommaaccent
Encoding: 315 315 85
Width: 550
Flags: W
LayerCount: 3
Fore
SplineSet
67 649 m 1,0,-1
 164 649 l 1,1,-1
 164 68 l 1,2,-1
 483 68 l 1,3,-1
 483 0 l 1,4,-1
 67 0 l 1,5,-1
 67 649 l 1,0,-1
243 -40 m 1,6,-1
 344 -40 l 1,7,-1
 261 -190 l 1,8,-1
 197 -190 l 1,9,-1
 243 -40 l 1,6,-1
EndSplineSet
Substitution2: "'c2sc' Capitals to Small Capitals lookup 25 subtable" lcommaaccent.smcp
Substitution2: "'aalt' Access All Alternates lookup 0 subtable" lcommaaccent.smcp
EndChar

StartChar: Ldot
Encoding: 319 319 86
Width: 550
Flags: W
LayerCount: 3
Fore
SplineSet
67 649 m 1,0,-1
 164 649 l 1,1,-1
 164 68 l 1,2,-1
 483 68 l 1,3,-1
 483 0 l 1,4,-1
 67 0 l 1,5,-1
 67 649 l 1,0,-1
223 381 m 1,6,-1
 313 381 l 1,7,-1
 313 283 l 1,8,-1
 223 283 l 1,9,-1
 223 381 l 1,6,-1
EndSplineSet
Ligature2: "Ligature Substitution lookup 34 subtable" L periodcentered
Substitution2: "'c2sc' Capitals to Small Capitals lookup 25 subtable" ldot.smcp
Substitution2: "'aalt' Access All Alternates lookup 0 subtable" ldot.smcp
EndChar

StartChar: Lslash
Encoding: 321 321 87
Width: 550
Flags: W
LayerCount: 3
Fore
SplineSet
109 283 m 1,0,-1
 25 259 l 1,1,-1
 25 330 l 1,2,-1
 109 354 l 1,3,-1
 109 649 l 1,4,-1
 206 649 l 1,5,-1
 206 382 l 1,6,-1
 317 414 l 1,7,-1
 317 343 l 1,8,-1
 206 311 l 1,9,-1
 206 68 l 1,10,-1
 525 68 l 1,11,-1
 525 0 l 1,12,-1
 109 0 l 1,13,-1
 109 283 l 1,0,-1
EndSplineSet
Substitution2: "'c2sc' Capitals to Small Capitals lookup 25 subtable" lslash.smcp
Substitution2: "'aalt' Access All Alternates lookup 0 subtable" lslash.smcp
EndChar

StartChar: M
Encoding: 77 77 88
Width: 550
Flags: W
LayerCount: 3
Fore
SplineSet
-71.5 649 m 1,0,-1
 73.5 649 l 1,1,-1
 281.5 109 l 1,2,-1
 284.5 108 l 1,3,-1
 481.5 649 l 1,4,-1
 621.5 649 l 1,5,-1
 621.5 0 l 1,6,-1
 536.5 0 l 1,7,-1
 536.5 549 l 1,8,-1
 531.5 549 l 1,9,-1
 322.5 0 l 1,10,-1
 235.5 0 l 1,11,-1
 20.5 549 l 1,12,-1
 15.5 549 l 1,13,-1
 15.5 0 l 1,14,-1
 -71.5 0 l 1,15,-1
 -71.5 649 l 1,0,-1
EndSplineSet
Substitution2: "'c2sc' Capitals to Small Capitals lookup 25 subtable" m.smcp
Substitution2: "'aalt' Access All Alternates lookup 0 subtable" m.smcp
EndChar

StartChar: N
Encoding: 78 78 89
Width: 550
Flags: W
LayerCount: 3
Fore
SplineSet
-2.5 649 m 1,0,-1
 114.5 649 l 1,1,-1
 467.5 113 l 1,2,-1
 467.5 649 l 1,3,-1
 552.5 649 l 1,4,-1
 552.5 0 l 1,5,-1
 435.5 0 l 1,6,-1
 82.5 545 l 1,7,-1
 82.5 0 l 1,8,-1
 -2.5 0 l 1,9,-1
 -2.5 649 l 1,0,-1
EndSplineSet
Substitution2: "'c2sc' Capitals to Small Capitals lookup 25 subtable" n.smcp
Substitution2: "'aalt' Access All Alternates lookup 0 subtable" n.smcp
EndChar

StartChar: Nacute
Encoding: 323 323 90
Width: 550
Flags: W
LayerCount: 3
Fore
SplineSet
283.5 830 m 1,0,-1
 392.5 830 l 1,1,-1
 267.5 703 l 1,2,-1
 193.5 703 l 1,3,-1
 283.5 830 l 1,0,-1
-2.5 649 m 1,4,-1
 114.5 649 l 1,5,-1
 467.5 113 l 1,6,-1
 467.5 649 l 1,7,-1
 552.5 649 l 1,8,-1
 552.5 0 l 1,9,-1
 435.5 0 l 1,10,-1
 82.5 545 l 1,11,-1
 82.5 0 l 1,12,-1
 -2.5 0 l 1,13,-1
 -2.5 649 l 1,4,-1
EndSplineSet
Substitution2: "'c2sc' Capitals to Small Capitals lookup 25 subtable" nacute.smcp
Substitution2: "'aalt' Access All Alternates lookup 0 subtable" nacute.smcp
EndChar

StartChar: Ncaron
Encoding: 327 327 91
Width: 550
Flags: W
LayerCount: 3
Fore
SplineSet
171.5 830 m 1,0,-1
 229.5 830 l 1,1,-1
 292.5 743 l 1,2,-1
 354.5 830 l 1,3,-1
 412.5 830 l 1,4,-1
 346.5 703 l 1,5,-1
 239.5 703 l 1,6,-1
 171.5 830 l 1,0,-1
-2.5 649 m 1,7,-1
 114.5 649 l 1,8,-1
 467.5 113 l 1,9,-1
 467.5 649 l 1,10,-1
 552.5 649 l 1,11,-1
 552.5 0 l 1,12,-1
 435.5 0 l 1,13,-1
 82.5 545 l 1,14,-1
 82.5 0 l 1,15,-1
 -2.5 0 l 1,16,-1
 -2.5 649 l 1,7,-1
EndSplineSet
Substitution2: "'c2sc' Capitals to Small Capitals lookup 25 subtable" ncaron.smcp
Substitution2: "'aalt' Access All Alternates lookup 0 subtable" ncaron.smcp
EndChar

StartChar: Ncommaaccent
Encoding: 325 325 92
Width: 550
Flags: W
LayerCount: 3
Fore
SplineSet
-2.5 649 m 1,0,-1
 114.5 649 l 1,1,-1
 467.5 113 l 1,2,-1
 467.5 649 l 1,3,-1
 552.5 649 l 1,4,-1
 552.5 0 l 1,5,-1
 435.5 0 l 1,6,-1
 82.5 545 l 1,7,-1
 82.5 0 l 1,8,-1
 -2.5 0 l 1,9,-1
 -2.5 649 l 1,0,-1
246.5 -40 m 1,10,-1
 347.5 -40 l 1,11,-1
 264.5 -190 l 1,12,-1
 200.5 -190 l 1,13,-1
 246.5 -40 l 1,10,-1
EndSplineSet
Substitution2: "'c2sc' Capitals to Small Capitals lookup 25 subtable" ncommaaccent.smcp
Substitution2: "'aalt' Access All Alternates lookup 0 subtable" ncommaaccent.smcp
EndChar

StartChar: Eng
Encoding: 330 330 93
Width: 550
Flags: W
LayerCount: 3
Fore
SplineSet
368.5 -126 m 1,0,1
 421.5 -126 421.5 -126 442.5 -102.5 c 128,-1,2
 463.5 -79 463.5 -79 463.5 -36 c 1,3,-1
 82.5 545 l 1,4,-1
 82.5 0 l 1,5,-1
 -2.5 0 l 1,6,-1
 -2.5 649 l 1,7,-1
 114.5 649 l 1,8,-1
 467.5 113 l 1,9,-1
 467.5 649 l 1,10,-1
 552.5 649 l 1,11,-1
 552.5 -41 l 2,12,13
 552.5 -93 552.5 -93 538.5 -125 c 128,-1,14
 524.5 -157 524.5 -157 490 -173.5 c 128,-1,15
 455.5 -190 455.5 -190 394.5 -190 c 2,16,-1
 368.5 -190 l 1,17,-1
 368.5 -126 l 1,0,1
EndSplineSet
Substitution2: "'c2sc' Capitals to Small Capitals lookup 25 subtable" eng.smcp
Substitution2: "'aalt' Access All Alternates lookup 0 subtable" eng.smcp
EndChar

StartChar: Ntilde
Encoding: 209 209 94
Width: 550
Flags: W
LayerCount: 3
Fore
SplineSet
147.5 764 m 1,0,1
 171.5 793 171.5 793 212.5 793 c 0,2,3
 235.5 793 235.5 793 277.5 776 c 256,4,5
 319.5 759 319.5 759 337.5 759 c 0,6,7
 358.5 759 358.5 759 372.5 769 c 128,-1,8
 386.5 779 386.5 779 402.5 802 c 1,9,-1
 402.5 733 l 1,10,11
 380.5 694 380.5 694 337.5 694 c 0,12,13
 311.5 694 311.5 694 271.5 712 c 0,14,15
 230.5 730 230.5 730 212.5 730 c 0,16,17
 173.5 730 173.5 730 147.5 691 c 1,18,-1
 147.5 764 l 1,0,1
-2.5 649 m 1,19,-1
 114.5 649 l 1,20,-1
 467.5 113 l 1,21,-1
 467.5 649 l 1,22,-1
 552.5 649 l 1,23,-1
 552.5 0 l 1,24,-1
 435.5 0 l 1,25,-1
 82.5 545 l 1,26,-1
 82.5 0 l 1,27,-1
 -2.5 0 l 1,28,-1
 -2.5 649 l 1,19,-1
EndSplineSet
Substitution2: "'c2sc' Capitals to Small Capitals lookup 25 subtable" ntilde.smcp
Substitution2: "'aalt' Access All Alternates lookup 0 subtable" ntilde.smcp
EndChar

StartChar: O
Encoding: 79 79 95
Width: 550
GlyphClass: 2
Flags: W
AnchorPoint: "Anchor-12" -64.5 0 basechar 0
AnchorPoint: "Anchor-11" 471.5 649 basechar 0
AnchorPoint: "Anchor-10" 275.5 325 basechar 0
AnchorPoint: "Anchor-9" 275.5 649 basechar 0
AnchorPoint: "Anchor-8" 275.5 0 basechar 0
LayerCount: 3
Fore
SplineSet
1.5 166 m 2,1,-1
 1.5 473 l 2,2,3
 1.5 659 1.5 659 273.5 659 c 0,4,5
 548.5 659 548.5 659 548.5 474 c 2,6,-1
 548.5 166 l 2,7,8
 548.5 72 548.5 72 472.5 31 c 128,-1,9
 396.5 -10 396.5 -10 273.5 -10 c 0,10,0
 1.5 -10 1.5 -10 1.5 166 c 2,1,-1
454.5 167 m 2,12,-1
 454.5 476 l 2,13,14
 454.5 596 454.5 596 274.5 596 c 0,15,16
 187.5 596 187.5 596 141 569 c 128,-1,17
 94.5 542 94.5 542 94.5 476 c 2,18,-1
 94.5 167 l 2,19,20
 94.5 55 94.5 55 275.5 55 c 0,21,11
 454.5 55 454.5 55 454.5 167 c 2,12,-1
EndSplineSet
Substitution2: "Single Substitution lookup 35 subtable" ordmasculine
Substitution2: "'c2sc' Capitals to Small Capitals lookup 25 subtable" o.smcp
AlternateSubs2: "'aalt' Access All Alternates lookup 1 subtable" ordmasculine o.smcp
EndChar

StartChar: Obreve
Encoding: 334 334 97
Width: 550
Flags: W
LayerCount: 3
Fore
SplineSet
190 752.5 m 128,-1,1
 158.5 787 158.5 787 156.5 845 c 1,2,-1
 210.5 845 l 1,3,4
 216.5 777 216.5 777 274.5 777 c 256,5,6
 332.5 777 332.5 777 338.5 845 c 1,7,-1
 392.5 845 l 1,8,9
 391.5 788 391.5 788 359.5 753 c 256,10,11
 327.5 718 327.5 718 274.5 718 c 256,12,0
 221.5 718 221.5 718 190 752.5 c 128,-1,1
1.5 166 m 2,14,-1
 1.5 473 l 2,15,16
 1.5 659 1.5 659 273.5 659 c 0,17,18
 548.5 659 548.5 659 548.5 474 c 2,19,-1
 548.5 166 l 2,20,21
 548.5 114 548.5 114 523.5 77 c 128,-1,22
 498.5 40 498.5 40 453.5 22 c 0,23,24
 410.5 5 410.5 5 368 -2.5 c 128,-1,25
 325.5 -10 325.5 -10 273.5 -10 c 0,26,13
 1.5 -10 1.5 -10 1.5 166 c 2,14,-1
454.5 167 m 2,28,-1
 454.5 476 l 2,29,30
 454.5 596 454.5 596 274.5 596 c 0,31,32
 234.5 596 234.5 596 206 591.5 c 128,-1,33
 177.5 587 177.5 587 151.5 575 c 0,34,35
 94.5 548 94.5 548 94.5 476 c 2,36,-1
 94.5 167 l 2,37,38
 94.5 55 94.5 55 275.5 55 c 0,39,27
 454.5 55 454.5 55 454.5 167 c 2,28,-1
EndSplineSet
Substitution2: "'c2sc' Capitals to Small Capitals lookup 25 subtable" obreve.smcp
Substitution2: "'aalt' Access All Alternates lookup 0 subtable" obreve.smcp
EndChar

StartChar: uni1ED0
Encoding: 7888 7888 99
Width: 550
GlyphClass: 2
Flags: W
AnchorPoint: "Anchor-12" -64.5 0 basechar 0
AnchorPoint: "Anchor-11" 471.5 649 basechar 0
AnchorPoint: "Anchor-10" 275.5 325 basechar 0
AnchorPoint: "Anchor-9" 479.5 918 basechar 0
AnchorPoint: "Anchor-8" 275.5 0 basechar 0
LayerCount: 3
Fore
SplineSet
419.5 887 m 1,0,-1
 528.5 887 l 1,1,-1
 453.5 791 l 1,2,-1
 379.5 791 l 1,3,-1
 419.5 887 l 1,0,-1
222.5 845 m 1,4,-1
 329.5 845 l 1,5,-1
 395.5 718 l 1,6,-1
 337.5 718 l 1,7,-1
 275.5 805 l 1,8,-1
 212.5 718 l 1,9,-1
 154.5 718 l 1,10,-1
 222.5 845 l 1,4,-1
1.5 166 m 2,12,-1
 1.5 473 l 2,13,14
 1.5 659 1.5 659 273.5 659 c 0,15,16
 548.5 659 548.5 659 548.5 474 c 2,17,-1
 548.5 166 l 2,18,19
 548.5 72 548.5 72 472.5 31 c 128,-1,20
 396.5 -10 396.5 -10 273.5 -10 c 0,21,11
 1.5 -10 1.5 -10 1.5 166 c 2,12,-1
454.5 167 m 2,23,-1
 454.5 476 l 2,24,25
 454.5 596 454.5 596 274.5 596 c 0,26,27
 187.5 596 187.5 596 141 569 c 128,-1,28
 94.5 542 94.5 542 94.5 476 c 2,29,-1
 94.5 167 l 2,30,31
 94.5 55 94.5 55 275.5 55 c 0,32,22
 454.5 55 454.5 55 454.5 167 c 2,23,-1
EndSplineSet
EndChar

StartChar: uni1ED2
Encoding: 7890 7890 101
Width: 550
GlyphClass: 2
Flags: W
AnchorPoint: "Anchor-12" -64.5 0 basechar 0
AnchorPoint: "Anchor-11" 471.5 649 basechar 0
AnchorPoint: "Anchor-10" 275.5 325 basechar 0
AnchorPoint: "Anchor-9" 351.5 938 basechar 0
AnchorPoint: "Anchor-8" 275.5 0 basechar 0
LayerCount: 3
Fore
SplineSet
345.5 907 m 1,0,-1
 454.5 907 l 1,1,-1
 485.5 811 l 1,2,-1
 411.5 811 l 1,3,-1
 345.5 907 l 1,0,-1
222.5 845 m 1,4,-1
 329.5 845 l 1,5,-1
 395.5 718 l 1,6,-1
 337.5 718 l 1,7,-1
 275.5 805 l 1,8,-1
 212.5 718 l 1,9,-1
 154.5 718 l 1,10,-1
 222.5 845 l 1,4,-1
1.5 166 m 2,12,-1
 1.5 473 l 2,13,14
 1.5 659 1.5 659 273.5 659 c 0,15,16
 548.5 659 548.5 659 548.5 474 c 2,17,-1
 548.5 166 l 2,18,19
 548.5 72 548.5 72 472.5 31 c 128,-1,20
 396.5 -10 396.5 -10 273.5 -10 c 0,21,11
 1.5 -10 1.5 -10 1.5 166 c 2,12,-1
454.5 167 m 2,23,-1
 454.5 476 l 2,24,25
 454.5 596 454.5 596 274.5 596 c 0,26,27
 187.5 596 187.5 596 141 569 c 128,-1,28
 94.5 542 94.5 542 94.5 476 c 2,29,-1
 94.5 167 l 2,30,31
 94.5 55 94.5 55 275.5 55 c 0,32,22
 454.5 55 454.5 55 454.5 167 c 2,23,-1
EndSplineSet
EndChar

StartChar: Odieresis
Encoding: 214 214 104
Width: 550
Flags: W
LayerCount: 3
Fore
SplineSet
135.5 809 m 1,0,-1
 225.5 809 l 1,1,-1
 225.5 715 l 1,2,-1
 135.5 715 l 1,3,-1
 135.5 809 l 1,0,-1
305.5 809 m 1,4,-1
 395.5 809 l 1,5,-1
 395.5 715 l 1,6,-1
 305.5 715 l 1,7,-1
 305.5 809 l 1,4,-1
1.5 166 m 2,9,-1
 1.5 473 l 2,10,11
 1.5 659 1.5 659 273.5 659 c 0,12,13
 548.5 659 548.5 659 548.5 474 c 2,14,-1
 548.5 166 l 2,15,16
 548.5 114 548.5 114 523.5 77 c 128,-1,17
 498.5 40 498.5 40 453.5 22 c 0,18,19
 410.5 5 410.5 5 368 -2.5 c 128,-1,20
 325.5 -10 325.5 -10 273.5 -10 c 0,21,8
 1.5 -10 1.5 -10 1.5 166 c 2,9,-1
454.5 167 m 2,23,-1
 454.5 476 l 2,24,25
 454.5 596 454.5 596 274.5 596 c 0,26,27
 234.5 596 234.5 596 206 591.5 c 128,-1,28
 177.5 587 177.5 587 151.5 575 c 0,29,30
 94.5 548 94.5 548 94.5 476 c 2,31,-1
 94.5 167 l 2,32,33
 94.5 55 94.5 55 275.5 55 c 0,34,22
 454.5 55 454.5 55 454.5 167 c 2,23,-1
EndSplineSet
Substitution2: "'c2sc' Capitals to Small Capitals lookup 25 subtable" odieresis.smcp
Substitution2: "'aalt' Access All Alternates lookup 0 subtable" odieresis.smcp
EndChar

StartChar: Ohorn
Encoding: 416 416 108
Width: 550
GlyphClass: 2
Flags: W
AnchorPoint: "Anchor-12" -68.5 0 basechar 0
AnchorPoint: "Anchor-11" 467.5 649 basechar 0
AnchorPoint: "Anchor-10" 271.5 325 basechar 0
AnchorPoint: "Anchor-9" 271.5 649 basechar 0
AnchorPoint: "Anchor-8" 271.5 0 basechar 0
LayerCount: 3
Fore
SplineSet
544.5 474 m 2,1,-1
 544.5 166 l 2,2,3
 544.5 72 544.5 72 468.5 31 c 128,-1,4
 392.5 -10 392.5 -10 269.5 -10 c 0,5,6
 -2.5 -10 -2.5 -10 -2.5 166 c 2,7,-1
 -2.5 473 l 2,8,9
 -2.5 659 -2.5 659 269.5 659 c 0,10,11
 335.5 659 335.5 659 382.5 649 c 1,12,13
 422.5 650 422.5 650 440 656 c 128,-1,14
 457.5 662 457.5 662 463.5 679.5 c 128,-1,15
 469.5 697 469.5 697 469.5 737 c 1,16,-1
 552.5 736 l 1,17,18
 552.5 677 552.5 677 540 645.5 c 128,-1,19
 527.5 614 527.5 614 492.5 600 c 1,20,0
 544.5 555 544.5 555 544.5 474 c 2,1,-1
450.5 476 m 2,21,22
 450.5 596 450.5 596 270.5 596 c 0,23,24
 183.5 596 183.5 596 137 569 c 128,-1,25
 90.5 542 90.5 542 90.5 476 c 2,26,-1
 90.5 167 l 2,27,28
 90.5 55 90.5 55 271.5 55 c 0,29,30
 450.5 55 450.5 55 450.5 167 c 2,31,-1
 450.5 476 l 2,21,22
EndSplineSet
EndChar

StartChar: Ohungarumlaut
Encoding: 336 336 114
Width: 550
Flags: W
LayerCount: 3
Fore
SplineSet
213.5 831 m 1,0,-1
 289.5 831 l 1,1,-1
 219.5 703 l 1,2,-1
 143.5 703 l 1,3,-1
 213.5 831 l 1,0,-1
340.5 831 m 1,4,-1
 416.5 831 l 1,5,-1
 346.5 703 l 1,6,-1
 270.5 703 l 1,7,-1
 340.5 831 l 1,4,-1
1.5 166 m 2,9,-1
 1.5 473 l 2,10,11
 1.5 659 1.5 659 273.5 659 c 0,12,13
 548.5 659 548.5 659 548.5 474 c 2,14,-1
 548.5 166 l 2,15,16
 548.5 114 548.5 114 523.5 77 c 128,-1,17
 498.5 40 498.5 40 453.5 22 c 0,18,19
 410.5 5 410.5 5 368 -2.5 c 128,-1,20
 325.5 -10 325.5 -10 273.5 -10 c 0,21,8
 1.5 -10 1.5 -10 1.5 166 c 2,9,-1
454.5 167 m 2,23,-1
 454.5 476 l 2,24,25
 454.5 596 454.5 596 274.5 596 c 0,26,27
 234.5 596 234.5 596 206 591.5 c 128,-1,28
 177.5 587 177.5 587 151.5 575 c 0,29,30
 94.5 548 94.5 548 94.5 476 c 2,31,-1
 94.5 167 l 2,32,33
 94.5 55 94.5 55 275.5 55 c 0,34,22
 454.5 55 454.5 55 454.5 167 c 2,23,-1
EndSplineSet
Substitution2: "'c2sc' Capitals to Small Capitals lookup 25 subtable" ohungarumlaut.smcp
Substitution2: "'aalt' Access All Alternates lookup 0 subtable" ohungarumlaut.smcp
EndChar

StartChar: Omacron
Encoding: 332 332 115
Width: 550
Flags: W
LayerCount: 3
Fore
SplineSet
158.5 798 m 1,0,-1
 376.5 798 l 1,1,-1
 376.5 739 l 1,2,-1
 158.5 739 l 1,3,-1
 158.5 798 l 1,0,-1
1.5 166 m 2,5,-1
 1.5 473 l 2,6,7
 1.5 659 1.5 659 273.5 659 c 0,8,9
 548.5 659 548.5 659 548.5 474 c 2,10,-1
 548.5 166 l 2,11,12
 548.5 114 548.5 114 523.5 77 c 128,-1,13
 498.5 40 498.5 40 453.5 22 c 0,14,15
 410.5 5 410.5 5 368 -2.5 c 128,-1,16
 325.5 -10 325.5 -10 273.5 -10 c 0,17,4
 1.5 -10 1.5 -10 1.5 166 c 2,5,-1
454.5 167 m 2,19,-1
 454.5 476 l 2,20,21
 454.5 596 454.5 596 274.5 596 c 0,22,23
 234.5 596 234.5 596 206 591.5 c 128,-1,24
 177.5 587 177.5 587 151.5 575 c 0,25,26
 94.5 548 94.5 548 94.5 476 c 2,27,-1
 94.5 167 l 2,28,29
 94.5 55 94.5 55 275.5 55 c 0,30,18
 454.5 55 454.5 55 454.5 167 c 2,19,-1
EndSplineSet
Substitution2: "'c2sc' Capitals to Small Capitals lookup 25 subtable" omacron.smcp
Substitution2: "'aalt' Access All Alternates lookup 0 subtable" omacron.smcp
EndChar

StartChar: Oslash
Encoding: 216 216 116
Width: 550
Flags: W
LayerCount: 3
Fore
SplineSet
1.5 166 m 2,1,-1
 1.5 473 l 2,2,3
 1.5 659 1.5 659 273.5 659 c 0,4,5
 548.5 659 548.5 659 548.5 474 c 2,6,-1
 548.5 166 l 2,7,8
 548.5 114 548.5 114 523.5 77 c 128,-1,9
 498.5 40 498.5 40 453.5 22 c 0,10,11
 410.5 5 410.5 5 368 -2.5 c 128,-1,12
 325.5 -10 325.5 -10 273.5 -10 c 0,13,0
 1.5 -10 1.5 -10 1.5 166 c 2,1,-1
410.5 566 m 1,14,15
 367.5 596 367.5 596 274.5 596 c 0,16,17
 234.5 596 234.5 596 206 591.5 c 128,-1,18
 177.5 587 177.5 587 151.5 575 c 0,19,20
 94.5 548 94.5 548 94.5 476 c 2,21,-1
 94.5 167 l 2,22,23
 94.5 150 94.5 150 96.5 140 c 1,24,-1
 410.5 566 l 1,14,15
454.5 167 m 2,26,-1
 454.5 476 l 2,27,28
 454.5 492 454.5 492 451.5 507 c 1,29,-1
 138.5 83 l 1,30,31
 181.5 55 181.5 55 275.5 55 c 0,32,25
 454.5 55 454.5 55 454.5 167 c 2,26,-1
EndSplineSet
Substitution2: "'c2sc' Capitals to Small Capitals lookup 25 subtable" oslash.smcp
Substitution2: "'aalt' Access All Alternates lookup 0 subtable" oslash.smcp
EndChar

StartChar: OE
Encoding: 338 338 118
Width: 550
Flags: W
LayerCount: 3
Fore
SplineSet
-150 176 m 2,1,-1
 -150 463 l 2,2,3
 -150 649 -150 649 122 649 c 2,4,-1
 690 649 l 1,5,-1
 690 581 l 1,6,-1
 351 581 l 1,7,-1
 351 369 l 1,8,-1
 657 369 l 1,9,-1
 657 301 l 1,10,-1
 351 301 l 1,11,-1
 351 68 l 1,12,-1
 700 68 l 1,13,-1
 700 0 l 1,14,-1
 122 0 l 2,15,0
 -150 0 -150 0 -150 176 c 2,1,-1
254 66 m 1,16,-1
 254 582 l 1,17,-1
 124 582 l 2,18,19
 85 582 85 582 56 577.5 c 128,-1,20
 27 573 27 573 1 562 c 0,21,22
 -57 537 -57 537 -57 464 c 2,23,-1
 -57 178 l 2,24,25
 -57 66 -57 66 128 66 c 2,26,-1
 254 66 l 1,16,-1
EndSplineSet
Substitution2: "'c2sc' Capitals to Small Capitals lookup 25 subtable" oe.smcp
Substitution2: "'aalt' Access All Alternates lookup 0 subtable" oe.smcp
EndChar

StartChar: P
Encoding: 80 80 119
Width: 550
Flags: W
LayerCount: 3
Fore
SplineSet
54.5 649 m 1,0,-1
 266.5 649 l 2,1,2
 311.5 649 311.5 649 339 647 c 128,-1,3
 366.5 645 366.5 645 397.5 638 c 0,4,5
 429.5 631 429.5 631 449 617 c 128,-1,6
 468.5 603 468.5 603 482.5 579 c 0,7,8
 495.5 556 495.5 556 495.5 521 c 2,9,-1
 495.5 386 l 2,10,11
 495.5 305 495.5 305 433 269.5 c 128,-1,12
 370.5 234 370.5 234 248.5 234 c 2,13,-1
 151.5 234 l 1,14,-1
 151.5 0 l 1,15,-1
 54.5 0 l 1,16,-1
 54.5 649 l 1,0,-1
261.5 295 m 2,17,18
 324.5 295 324.5 295 362.5 318 c 128,-1,19
 400.5 341 400.5 341 400.5 391 c 2,20,-1
 400.5 509 l 2,21,22
 400.5 536 400.5 536 386.5 553.5 c 128,-1,23
 372.5 571 372.5 571 346.5 578 c 0,24,25
 321.5 584 321.5 584 304.5 586 c 128,-1,26
 287.5 588 287.5 588 259.5 588 c 2,27,-1
 150.5 588 l 1,28,-1
 150.5 295 l 1,29,-1
 261.5 295 l 2,17,18
EndSplineSet
Substitution2: "'c2sc' Capitals to Small Capitals lookup 25 subtable" p.smcp
Substitution2: "'aalt' Access All Alternates lookup 0 subtable" p.smcp
EndChar

StartChar: Thorn
Encoding: 222 222 120
Width: 550
Flags: W
LayerCount: 3
Fore
SplineSet
54.5 649 m 1,0,-1
 151.5 649 l 1,1,-1
 151.5 534 l 1,2,-1
 266.5 534 l 2,3,4
 311.5 534 311.5 534 339 532 c 128,-1,5
 366.5 530 366.5 530 397.5 523 c 0,6,7
 429.5 516 429.5 516 449 502 c 128,-1,8
 468.5 488 468.5 488 482.5 464 c 0,9,10
 495.5 441 495.5 441 495.5 406 c 2,11,-1
 495.5 271 l 2,12,13
 495.5 190 495.5 190 433 154.5 c 128,-1,14
 370.5 119 370.5 119 248.5 119 c 2,15,-1
 151.5 119 l 1,16,-1
 151.5 0 l 1,17,-1
 54.5 0 l 1,18,-1
 54.5 649 l 1,0,-1
261.5 180 m 2,19,20
 324.5 180 324.5 180 362.5 203 c 128,-1,21
 400.5 226 400.5 226 400.5 276 c 2,22,-1
 400.5 394 l 2,23,24
 400.5 421 400.5 421 386.5 438.5 c 128,-1,25
 372.5 456 372.5 456 346.5 463 c 0,26,27
 321.5 469 321.5 469 304.5 471 c 128,-1,28
 287.5 473 287.5 473 259.5 473 c 2,29,-1
 151.5 473 l 1,30,-1
 151.5 180 l 1,31,-1
 261.5 180 l 2,19,20
EndSplineSet
Substitution2: "'c2sc' Capitals to Small Capitals lookup 25 subtable" thorn.smcp
Substitution2: "'aalt' Access All Alternates lookup 0 subtable" thorn.smcp
EndChar

StartChar: Q
Encoding: 81 81 121
Width: 550
Flags: W
LayerCount: 3
Fore
SplineSet
-34 176 m 2,1,-1
 -34 473 l 2,2,3
 -34 659 -34 659 239 659 c 0,4,5
 513 659 513 659 513 474 c 2,6,-1
 513 206 l 2,7,8
 513 114 513 114 424 55 c 1,9,-1
 584 55 l 1,10,-1
 584 0 l 1,11,-1
 239 0 l 2,12,0
 -34 0 -34 0 -34 176 c 2,1,-1
420 177 m 2,14,-1
 420 476 l 2,15,16
 420 596 420 596 240 596 c 0,17,18
 200 596 200 596 171 591.5 c 128,-1,19
 142 587 142 587 116 575 c 0,20,21
 59 548 59 548 59 476 c 2,22,-1
 59 177 l 2,23,24
 59 65 59 65 241 65 c 0,25,13
 420 65 420 65 420 177 c 2,14,-1
EndSplineSet
Substitution2: "'c2sc' Capitals to Small Capitals lookup 25 subtable" q.smcp
Substitution2: "'aalt' Access All Alternates lookup 0 subtable" q.smcp
EndChar

StartChar: R
Encoding: 82 82 122
Width: 550
Flags: W
LayerCount: 3
Fore
SplineSet
27 649 m 1,0,-1
 255 649 l 2,1,2
 341 649 341 649 389.5 638.5 c 128,-1,3
 438 628 438 628 460.5 601 c 128,-1,4
 483 574 483 574 483 522 c 2,5,-1
 483 410 l 2,6,7
 483 352 483 352 435.5 320.5 c 128,-1,8
 388 289 388 289 315 289 c 1,9,-1
 523 0 l 1,10,-1
 404 0 l 1,11,-1
 218 277 l 1,12,-1
 124 277 l 1,13,-1
 124 0 l 1,14,-1
 27 0 l 1,15,-1
 27 649 l 1,0,-1
251 341 m 2,16,17
 323 341 323 341 354.5 358.5 c 128,-1,18
 386 376 386 376 386 422 c 2,19,-1
 386 512 l 2,20,21
 386 585 386 585 260 585 c 2,22,-1
 124 585 l 1,23,-1
 124 341 l 1,24,-1
 251 341 l 2,16,17
EndSplineSet
Substitution2: "'c2sc' Capitals to Small Capitals lookup 25 subtable" r.smcp
Substitution2: "'aalt' Access All Alternates lookup 0 subtable" r.smcp
EndChar

StartChar: Racute
Encoding: 340 340 123
Width: 550
Flags: W
LayerCount: 3
Fore
SplineSet
249 830 m 1,0,-1
 358 830 l 1,1,-1
 233 703 l 1,2,-1
 159 703 l 1,3,-1
 249 830 l 1,0,-1
27 649 m 1,4,-1
 255 649 l 2,5,6
 341 649 341 649 389.5 638.5 c 128,-1,7
 438 628 438 628 460.5 601 c 128,-1,8
 483 574 483 574 483 522 c 2,9,-1
 483 410 l 2,10,11
 483 352 483 352 435.5 320.5 c 128,-1,12
 388 289 388 289 315 289 c 1,13,-1
 523 0 l 1,14,-1
 404 0 l 1,15,-1
 218 277 l 1,16,-1
 124 277 l 1,17,-1
 124 0 l 1,18,-1
 27 0 l 1,19,-1
 27 649 l 1,4,-1
251 341 m 2,20,21
 323 341 323 341 354.5 358.5 c 128,-1,22
 386 376 386 376 386 422 c 2,23,-1
 386 512 l 2,24,25
 386 585 386 585 260 585 c 2,26,-1
 124 585 l 1,27,-1
 124 341 l 1,28,-1
 251 341 l 2,20,21
EndSplineSet
Substitution2: "'c2sc' Capitals to Small Capitals lookup 25 subtable" racute.smcp
Substitution2: "'aalt' Access All Alternates lookup 0 subtable" racute.smcp
EndChar

StartChar: Rcaron
Encoding: 344 344 124
Width: 550
Flags: W
LayerCount: 3
Fore
SplineSet
115 830 m 1,0,-1
 173 830 l 1,1,-1
 236 743 l 1,2,-1
 298 830 l 1,3,-1
 356 830 l 1,4,-1
 290 703 l 1,5,-1
 183 703 l 1,6,-1
 115 830 l 1,0,-1
27 649 m 1,7,-1
 255 649 l 2,8,9
 341 649 341 649 389.5 638.5 c 128,-1,10
 438 628 438 628 460.5 601 c 128,-1,11
 483 574 483 574 483 522 c 2,12,-1
 483 410 l 2,13,14
 483 352 483 352 435.5 320.5 c 128,-1,15
 388 289 388 289 315 289 c 1,16,-1
 523 0 l 1,17,-1
 404 0 l 1,18,-1
 218 277 l 1,19,-1
 124 277 l 1,20,-1
 124 0 l 1,21,-1
 27 0 l 1,22,-1
 27 649 l 1,7,-1
251 341 m 2,23,24
 323 341 323 341 354.5 358.5 c 128,-1,25
 386 376 386 376 386 422 c 2,26,-1
 386 512 l 2,27,28
 386 585 386 585 260 585 c 2,29,-1
 124 585 l 1,30,-1
 124 341 l 1,31,-1
 251 341 l 2,23,24
EndSplineSet
Substitution2: "'c2sc' Capitals to Small Capitals lookup 25 subtable" rcaron.smcp
Substitution2: "'aalt' Access All Alternates lookup 0 subtable" rcaron.smcp
EndChar

StartChar: Rcommaaccent
Encoding: 342 342 125
Width: 550
Flags: W
LayerCount: 3
Fore
SplineSet
27 649 m 1,0,-1
 255 649 l 2,1,2
 341 649 341 649 389.5 638.5 c 128,-1,3
 438 628 438 628 460.5 601 c 128,-1,4
 483 574 483 574 483 522 c 2,5,-1
 483 410 l 2,6,7
 483 352 483 352 435.5 320.5 c 128,-1,8
 388 289 388 289 315 289 c 1,9,-1
 523 0 l 1,10,-1
 404 0 l 1,11,-1
 218 277 l 1,12,-1
 124 277 l 1,13,-1
 124 0 l 1,14,-1
 27 0 l 1,15,-1
 27 649 l 1,0,-1
251 341 m 2,16,17
 323 341 323 341 354.5 358.5 c 128,-1,18
 386 376 386 376 386 422 c 2,19,-1
 386 512 l 2,20,21
 386 585 386 585 260 585 c 2,22,-1
 124 585 l 1,23,-1
 124 341 l 1,24,-1
 251 341 l 2,16,17
231 -40 m 1,25,-1
 332 -40 l 1,26,-1
 249 -190 l 1,27,-1
 185 -190 l 1,28,-1
 231 -40 l 1,25,-1
EndSplineSet
Substitution2: "'c2sc' Capitals to Small Capitals lookup 25 subtable" rcommaaccent.smcp
Substitution2: "'aalt' Access All Alternates lookup 0 subtable" rcommaaccent.smcp
EndChar

StartChar: S
Encoding: 83 83 126
Width: 550
Flags: W
LayerCount: 3
Fore
SplineSet
61 6 m 1,1,-1
 61 87 l 1,2,3
 177 62 177 62 265 62 c 0,4,5
 339 62 339 62 373 78.5 c 128,-1,6
 407 95 407 95 407 140 c 2,7,-1
 407 224 l 2,8,9
 407 266 407 266 383 283 c 128,-1,10
 359 300 359 300 299 300 c 2,11,-1
 223 300 l 2,12,13
 128 300 128 300 88 338 c 128,-1,14
 48 376 48 376 48 456 c 2,15,-1
 48 508 l 2,16,17
 48 561 48 561 71.5 594 c 128,-1,18
 95 627 95 627 150.5 643 c 128,-1,19
 206 659 206 659 303 659 c 0,20,21
 368 659 368 659 470 648 c 1,22,-1
 470 575 l 1,23,24
 356 592 356 592 296 592 c 0,25,26
 203 592 203 592 173 574 c 0,27,28
 142 555 142 555 142 511 c 2,29,-1
 142 437 l 2,30,31
 142 403 142 403 166.5 387.5 c 128,-1,32
 191 372 191 372 251 372 c 2,33,-1
 329 372 l 2,34,35
 396 372 396 372 433.5 356 c 128,-1,36
 471 340 471 340 486.5 307.5 c 128,-1,37
 502 275 502 275 502 220 c 2,38,-1
 502 173 l 2,39,40
 502 104 502 104 476.5 64 c 128,-1,41
 451 24 451 24 398 7 c 128,-1,42
 345 -10 345 -10 259 -10 c 0,43,0
 176 -10 176 -10 61 6 c 1,1,-1
EndSplineSet
Substitution2: "'c2sc' Capitals to Small Capitals lookup 25 subtable" s.smcp
Substitution2: "'aalt' Access All Alternates lookup 0 subtable" s.smcp
EndChar

StartChar: Sacute
Encoding: 346 346 127
Width: 550
Flags: W
LayerCount: 3
Fore
SplineSet
310 830 m 1,0,-1
 419 830 l 1,1,-1
 294 703 l 1,2,-1
 220 703 l 1,3,-1
 310 830 l 1,0,-1
61 6 m 1,5,-1
 61 87 l 1,6,7
 177 62 177 62 265 62 c 0,8,9
 339 62 339 62 373 78.5 c 128,-1,10
 407 95 407 95 407 140 c 2,11,-1
 407 224 l 2,12,13
 407 266 407 266 383 283 c 128,-1,14
 359 300 359 300 299 300 c 2,15,-1
 223 300 l 2,16,17
 128 300 128 300 88 338 c 128,-1,18
 48 376 48 376 48 456 c 2,19,-1
 48 508 l 2,20,21
 48 561 48 561 71.5 594 c 128,-1,22
 95 627 95 627 150.5 643 c 128,-1,23
 206 659 206 659 303 659 c 0,24,25
 368 659 368 659 470 648 c 1,26,-1
 470 575 l 1,27,28
 356 592 356 592 296 592 c 0,29,30
 203 592 203 592 173 574 c 0,31,32
 142 555 142 555 142 511 c 2,33,-1
 142 437 l 2,34,35
 142 403 142 403 166.5 387.5 c 128,-1,36
 191 372 191 372 251 372 c 2,37,-1
 329 372 l 2,38,39
 396 372 396 372 433.5 356 c 128,-1,40
 471 340 471 340 486.5 307.5 c 128,-1,41
 502 275 502 275 502 220 c 2,42,-1
 502 173 l 2,43,44
 502 104 502 104 476.5 64 c 128,-1,45
 451 24 451 24 398 7 c 128,-1,46
 345 -10 345 -10 259 -10 c 0,47,4
 176 -10 176 -10 61 6 c 1,5,-1
EndSplineSet
Substitution2: "'c2sc' Capitals to Small Capitals lookup 25 subtable" sacute.smcp
Substitution2: "'aalt' Access All Alternates lookup 0 subtable" sacute.smcp
EndChar

StartChar: Scaron
Encoding: 352 352 128
Width: 550
Flags: W
LayerCount: 3
Fore
SplineSet
138 830 m 1,0,-1
 196 830 l 1,1,-1
 259 743 l 1,2,-1
 321 830 l 1,3,-1
 379 830 l 1,4,-1
 313 703 l 1,5,-1
 206 703 l 1,6,-1
 138 830 l 1,0,-1
61 6 m 1,8,-1
 61 87 l 1,9,10
 177 62 177 62 265 62 c 0,11,12
 339 62 339 62 373 78.5 c 128,-1,13
 407 95 407 95 407 140 c 2,14,-1
 407 224 l 2,15,16
 407 266 407 266 383 283 c 128,-1,17
 359 300 359 300 299 300 c 2,18,-1
 223 300 l 2,19,20
 128 300 128 300 88 338 c 128,-1,21
 48 376 48 376 48 456 c 2,22,-1
 48 508 l 2,23,24
 48 561 48 561 71.5 594 c 128,-1,25
 95 627 95 627 150.5 643 c 128,-1,26
 206 659 206 659 303 659 c 0,27,28
 368 659 368 659 470 648 c 1,29,-1
 470 575 l 1,30,31
 356 592 356 592 296 592 c 0,32,33
 203 592 203 592 173 574 c 0,34,35
 142 555 142 555 142 511 c 2,36,-1
 142 437 l 2,37,38
 142 403 142 403 166.5 387.5 c 128,-1,39
 191 372 191 372 251 372 c 2,40,-1
 329 372 l 2,41,42
 396 372 396 372 433.5 356 c 128,-1,43
 471 340 471 340 486.5 307.5 c 128,-1,44
 502 275 502 275 502 220 c 2,45,-1
 502 173 l 2,46,47
 502 104 502 104 476.5 64 c 128,-1,48
 451 24 451 24 398 7 c 128,-1,49
 345 -10 345 -10 259 -10 c 0,50,7
 176 -10 176 -10 61 6 c 1,8,-1
EndSplineSet
Substitution2: "'c2sc' Capitals to Small Capitals lookup 25 subtable" scaron.smcp
Substitution2: "'aalt' Access All Alternates lookup 0 subtable" scaron.smcp
EndChar

StartChar: Scedilla
Encoding: 350 350 129
Width: 550
Flags: W
LayerCount: 3
Fore
SplineSet
175 -201 m 1,1,-1
 196 -156 l 1,2,3
 227 -173 227 -173 254 -173 c 0,4,5
 301 -173 301 -173 301 -133 c 0,6,7
 301 -114 301 -114 279 -103 c 128,-1,8
 257 -92 257 -92 223 -92 c 2,9,-1
 190 -92 l 1,10,11
 214 -51 214 -51 234 -10 c 1,12,13
 172 -9 172 -9 61 6 c 1,14,-1
 61 87 l 1,15,16
 177 62 177 62 265 62 c 0,17,18
 339 62 339 62 373 78.5 c 128,-1,19
 407 95 407 95 407 140 c 2,20,-1
 407 224 l 2,21,22
 407 266 407 266 383 283 c 128,-1,23
 359 300 359 300 299 300 c 2,24,-1
 223 300 l 2,25,26
 128 300 128 300 88 338 c 128,-1,27
 48 376 48 376 48 456 c 2,28,-1
 48 508 l 2,29,30
 48 561 48 561 71.5 594 c 128,-1,31
 95 627 95 627 150.5 643 c 128,-1,32
 206 659 206 659 303 659 c 0,33,34
 368 659 368 659 470 648 c 1,35,-1
 470 575 l 1,36,37
 356 592 356 592 296 592 c 0,38,39
 203 592 203 592 173 574 c 0,40,41
 142 555 142 555 142 511 c 2,42,-1
 142 437 l 2,43,44
 142 403 142 403 166.5 387.5 c 128,-1,45
 191 372 191 372 251 372 c 2,46,-1
 329 372 l 2,47,48
 396 372 396 372 433.5 356 c 128,-1,49
 471 340 471 340 486.5 307.5 c 128,-1,50
 502 275 502 275 502 220 c 2,51,-1
 502 173 l 2,52,53
 502 79 502 79 453.5 37.5 c 128,-1,54
 405 -4 405 -4 297 -9 c 1,55,-1
 276 -52 l 1,56,57
 315 -53 315 -53 342 -73.5 c 128,-1,58
 369 -94 369 -94 369 -130 c 0,59,60
 369 -172 369 -172 336.5 -196 c 128,-1,61
 304 -220 304 -220 256 -220 c 0,62,0
 206 -220 206 -220 175 -201 c 1,1,-1
EndSplineSet
Substitution2: "'c2sc' Capitals to Small Capitals lookup 25 subtable" scedilla.smcp
Substitution2: "'locl' Localized Forms in Latin lookup 7 subtable" Scommaaccent
Substitution2: "'locl' Localized Forms in Latin lookup 6 subtable" Scommaaccent
AlternateSubs2: "'aalt' Access All Alternates lookup 1 subtable" Scommaaccent scedilla.smcp
EndChar

StartChar: Scircumflex
Encoding: 348 348 130
Width: 550
Flags: W
LayerCount: 3
Fore
SplineSet
229 830 m 1,0,-1
 336 830 l 1,1,-1
 402 703 l 1,2,-1
 344 703 l 1,3,-1
 282 790 l 1,4,-1
 219 703 l 1,5,-1
 161 703 l 1,6,-1
 229 830 l 1,0,-1
61 6 m 1,8,-1
 61 87 l 1,9,10
 177 62 177 62 265 62 c 0,11,12
 339 62 339 62 373 78.5 c 128,-1,13
 407 95 407 95 407 140 c 2,14,-1
 407 224 l 2,15,16
 407 266 407 266 383 283 c 128,-1,17
 359 300 359 300 299 300 c 2,18,-1
 223 300 l 2,19,20
 128 300 128 300 88 338 c 128,-1,21
 48 376 48 376 48 456 c 2,22,-1
 48 508 l 2,23,24
 48 561 48 561 71.5 594 c 128,-1,25
 95 627 95 627 150.5 643 c 128,-1,26
 206 659 206 659 303 659 c 0,27,28
 368 659 368 659 470 648 c 1,29,-1
 470 575 l 1,30,31
 356 592 356 592 296 592 c 0,32,33
 203 592 203 592 173 574 c 0,34,35
 142 555 142 555 142 511 c 2,36,-1
 142 437 l 2,37,38
 142 403 142 403 166.5 387.5 c 128,-1,39
 191 372 191 372 251 372 c 2,40,-1
 329 372 l 2,41,42
 396 372 396 372 433.5 356 c 128,-1,43
 471 340 471 340 486.5 307.5 c 128,-1,44
 502 275 502 275 502 220 c 2,45,-1
 502 173 l 2,46,47
 502 104 502 104 476.5 64 c 128,-1,48
 451 24 451 24 398 7 c 128,-1,49
 345 -10 345 -10 259 -10 c 0,50,7
 176 -10 176 -10 61 6 c 1,8,-1
EndSplineSet
Substitution2: "'c2sc' Capitals to Small Capitals lookup 25 subtable" scircumflex.smcp
Substitution2: "'aalt' Access All Alternates lookup 0 subtable" scircumflex.smcp
EndChar

StartChar: Scommaaccent
Encoding: 536 536 131
Width: 550
Flags: W
LayerCount: 3
Fore
SplineSet
61 6 m 1,1,-1
 61 87 l 1,2,3
 177 62 177 62 265 62 c 0,4,5
 339 62 339 62 373 78.5 c 128,-1,6
 407 95 407 95 407 140 c 2,7,-1
 407 224 l 2,8,9
 407 266 407 266 383 283 c 128,-1,10
 359 300 359 300 299 300 c 2,11,-1
 223 300 l 2,12,13
 128 300 128 300 88 338 c 128,-1,14
 48 376 48 376 48 456 c 2,15,-1
 48 508 l 2,16,17
 48 561 48 561 71.5 594 c 128,-1,18
 95 627 95 627 150.5 643 c 128,-1,19
 206 659 206 659 303 659 c 0,20,21
 368 659 368 659 470 648 c 1,22,-1
 470 575 l 1,23,24
 356 592 356 592 296 592 c 0,25,26
 203 592 203 592 173 574 c 0,27,28
 142 555 142 555 142 511 c 2,29,-1
 142 437 l 2,30,31
 142 403 142 403 166.5 387.5 c 128,-1,32
 191 372 191 372 251 372 c 2,33,-1
 329 372 l 2,34,35
 396 372 396 372 433.5 356 c 128,-1,36
 471 340 471 340 486.5 307.5 c 128,-1,37
 502 275 502 275 502 220 c 2,38,-1
 502 173 l 2,39,40
 502 104 502 104 476.5 64 c 128,-1,41
 451 24 451 24 398 7 c 128,-1,42
 345 -10 345 -10 259 -10 c 0,43,0
 176 -10 176 -10 61 6 c 1,1,-1
243 -40 m 1,44,-1
 344 -40 l 1,45,-1
 261 -190 l 1,46,-1
 197 -190 l 1,47,-1
 243 -40 l 1,44,-1
EndSplineSet
Substitution2: "'c2sc' Capitals to Small Capitals lookup 25 subtable" scommaaccent.smcp
Substitution2: "'aalt' Access All Alternates lookup 0 subtable" scommaaccent.smcp
EndChar

StartChar: T
Encoding: 84 84 132
Width: 550
Flags: W
LayerCount: 3
Fore
SplineSet
226.5 581 m 1,0,-1
 6.5 581 l 1,1,-1
 6.5 649 l 1,2,-1
 543.5 649 l 1,3,-1
 543.5 581 l 1,4,-1
 324.5 581 l 1,5,-1
 324.5 0 l 1,6,-1
 226.5 0 l 1,7,-1
 226.5 581 l 1,0,-1
EndSplineSet
Substitution2: "'c2sc' Capitals to Small Capitals lookup 25 subtable" t.smcp
Substitution2: "'aalt' Access All Alternates lookup 0 subtable" t.smcp
EndChar

StartChar: Tbar
Encoding: 358 358 133
Width: 550
Flags: W
LayerCount: 3
Fore
SplineSet
226.5 301 m 1,0,-1
 126.5 301 l 1,1,-1
 126.5 369 l 1,2,-1
 226.5 369 l 1,3,-1
 226.5 581 l 1,4,-1
 6.5 581 l 1,5,-1
 6.5 649 l 1,6,-1
 543.5 649 l 1,7,-1
 543.5 581 l 1,8,-1
 324.5 581 l 1,9,-1
 324.5 369 l 1,10,-1
 424.5 369 l 1,11,-1
 424.5 301 l 1,12,-1
 324.5 301 l 1,13,-1
 324.5 0 l 1,14,-1
 226.5 0 l 1,15,-1
 226.5 301 l 1,0,-1
EndSplineSet
Substitution2: "'c2sc' Capitals to Small Capitals lookup 25 subtable" tbar.smcp
Substitution2: "'aalt' Access All Alternates lookup 0 subtable" tbar.smcp
EndChar

StartChar: Tcaron
Encoding: 356 356 134
Width: 550
Flags: W
LayerCount: 3
Fore
SplineSet
155.5 830 m 1,0,-1
 213.5 830 l 1,1,-1
 276.5 743 l 1,2,-1
 338.5 830 l 1,3,-1
 396.5 830 l 1,4,-1
 330.5 703 l 1,5,-1
 223.5 703 l 1,6,-1
 155.5 830 l 1,0,-1
226.5 581 m 1,7,-1
 6.5 581 l 1,8,-1
 6.5 649 l 1,9,-1
 543.5 649 l 1,10,-1
 543.5 581 l 1,11,-1
 324.5 581 l 1,12,-1
 324.5 0 l 1,13,-1
 226.5 0 l 1,14,-1
 226.5 581 l 1,7,-1
EndSplineSet
Substitution2: "'c2sc' Capitals to Small Capitals lookup 25 subtable" tcaron.smcp
Substitution2: "'aalt' Access All Alternates lookup 0 subtable" tcaron.smcp
EndChar

StartChar: uni0162
Encoding: 354 354 135
Width: 550
Flags: W
LayerCount: 3
Fore
SplineSet
304.5 0 m 1,0,-1
 282.5 -44 l 1,1,2
 321.5 -45 321.5 -45 348.5 -65.5 c 128,-1,3
 375.5 -86 375.5 -86 375.5 -122 c 0,4,5
 375.5 -164 375.5 -164 343 -188 c 128,-1,6
 310.5 -212 310.5 -212 262.5 -212 c 0,7,8
 212.5 -212 212.5 -212 181.5 -193 c 1,9,-1
 202.5 -148 l 1,10,11
 233.5 -165 233.5 -165 260.5 -165 c 0,12,13
 307.5 -165 307.5 -165 307.5 -125 c 0,14,15
 307.5 -106 307.5 -106 285.5 -95 c 128,-1,16
 263.5 -84 263.5 -84 229.5 -84 c 2,17,-1
 196.5 -84 l 1,18,19
 217.5 -48 217.5 -48 241.5 0 c 1,20,-1
 226.5 0 l 1,21,-1
 226.5 581 l 1,22,-1
 6.5 581 l 1,23,-1
 6.5 649 l 1,24,-1
 543.5 649 l 1,25,-1
 543.5 581 l 1,26,-1
 324.5 581 l 1,27,-1
 324.5 0 l 1,28,-1
 304.5 0 l 1,0,-1
EndSplineSet
Substitution2: "'locl' Localized Forms in Latin lookup 7 subtable" uni021A
Substitution2: "'locl' Localized Forms in Latin lookup 6 subtable" uni021A
Substitution2: "'aalt' Access All Alternates lookup 0 subtable" uni021A
EndChar

StartChar: uni021A
Encoding: 538 538 136
Width: 550
Flags: W
LayerCount: 3
Fore
SplineSet
226.5 581 m 1,0,-1
 6.5 581 l 1,1,-1
 6.5 649 l 1,2,-1
 543.5 649 l 1,3,-1
 543.5 581 l 1,4,-1
 324.5 581 l 1,5,-1
 324.5 0 l 1,6,-1
 226.5 0 l 1,7,-1
 226.5 581 l 1,0,-1
231.5 -40 m 1,8,-1
 332.5 -40 l 1,9,-1
 249.5 -190 l 1,10,-1
 185.5 -190 l 1,11,-1
 231.5 -40 l 1,8,-1
EndSplineSet
Substitution2: "'c2sc' Capitals to Small Capitals lookup 25 subtable" uni021B.smcp
Substitution2: "'aalt' Access All Alternates lookup 0 subtable" uni021B.smcp
EndChar

StartChar: U
Encoding: 85 85 137
Width: 550
GlyphClass: 2
Flags: W
AnchorPoint: "Anchor-12" -62.5 0 basechar 0
AnchorPoint: "Anchor-11" 542.5 649 basechar 0
AnchorPoint: "Anchor-10" -62.5 0 basechar 0
AnchorPoint: "Anchor-9" 275.5 649 basechar 0
AnchorPoint: "Anchor-8" 275.5 0 basechar 0
LayerCount: 3
Fore
SplineSet
182 -3 m 128,-1,1
 142.5 4 142.5 4 104.5 21 c 0,2,3
 64.5 39 64.5 39 43 76 c 128,-1,4
 21.5 113 21.5 113 21.5 166 c 2,5,-1
 21.5 649 l 1,6,-1
 114.5 649 l 1,7,-1
 114.5 167 l 2,8,9
 114.5 106 114.5 106 155.5 80.5 c 128,-1,10
 196.5 55 196.5 55 276.5 55 c 256,11,12
 356.5 55 356.5 55 396 80.5 c 128,-1,13
 435.5 106 435.5 106 435.5 167 c 2,14,-1
 435.5 649 l 1,15,-1
 528.5 649 l 1,16,-1
 528.5 166 l 2,17,18
 528.5 -10 528.5 -10 274.5 -10 c 0,19,0
 221.5 -10 221.5 -10 182 -3 c 128,-1,1
EndSplineSet
Substitution2: "'c2sc' Capitals to Small Capitals lookup 25 subtable" u.smcp
Substitution2: "'aalt' Access All Alternates lookup 0 subtable" u.smcp
EndChar

StartChar: Ubreve
Encoding: 364 364 139
Width: 550
Flags: W
LayerCount: 3
Fore
SplineSet
191 752.5 m 128,-1,1
 159.5 787 159.5 787 157.5 845 c 1,2,-1
 211.5 845 l 1,3,4
 217.5 777 217.5 777 275.5 777 c 256,5,6
 333.5 777 333.5 777 339.5 845 c 1,7,-1
 393.5 845 l 1,8,9
 392.5 788 392.5 788 360.5 753 c 256,10,11
 328.5 718 328.5 718 275.5 718 c 256,12,0
 222.5 718 222.5 718 191 752.5 c 128,-1,1
182 -3 m 128,-1,14
 142.5 4 142.5 4 104.5 21 c 0,15,16
 64.5 39 64.5 39 43 76 c 128,-1,17
 21.5 113 21.5 113 21.5 166 c 2,18,-1
 21.5 649 l 1,19,-1
 114.5 649 l 1,20,-1
 114.5 167 l 2,21,22
 114.5 106 114.5 106 155.5 80.5 c 128,-1,23
 196.5 55 196.5 55 276.5 55 c 256,24,25
 356.5 55 356.5 55 396 80.5 c 128,-1,26
 435.5 106 435.5 106 435.5 167 c 2,27,-1
 435.5 649 l 1,28,-1
 528.5 649 l 1,29,-1
 528.5 166 l 2,30,31
 528.5 -10 528.5 -10 274.5 -10 c 0,32,13
 221.5 -10 221.5 -10 182 -3 c 128,-1,14
EndSplineSet
Substitution2: "'c2sc' Capitals to Small Capitals lookup 25 subtable" ubreve.smcp
Substitution2: "'aalt' Access All Alternates lookup 0 subtable" ubreve.smcp
EndChar

StartChar: Ucircumflex
Encoding: 219 219 140
Width: 550
Flags: W
LayerCount: 3
Fore
SplineSet
216.5 830 m 1,0,-1
 323.5 830 l 1,1,-1
 389.5 703 l 1,2,-1
 331.5 703 l 1,3,-1
 269.5 790 l 1,4,-1
 206.5 703 l 1,5,-1
 148.5 703 l 1,6,-1
 216.5 830 l 1,0,-1
182 -3 m 128,-1,8
 142.5 4 142.5 4 104.5 21 c 0,9,10
 64.5 39 64.5 39 43 76 c 128,-1,11
 21.5 113 21.5 113 21.5 166 c 2,12,-1
 21.5 649 l 1,13,-1
 114.5 649 l 1,14,-1
 114.5 167 l 2,15,16
 114.5 106 114.5 106 155.5 80.5 c 128,-1,17
 196.5 55 196.5 55 276.5 55 c 256,18,19
 356.5 55 356.5 55 396 80.5 c 128,-1,20
 435.5 106 435.5 106 435.5 167 c 2,21,-1
 435.5 649 l 1,22,-1
 528.5 649 l 1,23,-1
 528.5 166 l 2,24,25
 528.5 -10 528.5 -10 274.5 -10 c 0,26,7
 221.5 -10 221.5 -10 182 -3 c 128,-1,8
EndSplineSet
Substitution2: "'c2sc' Capitals to Small Capitals lookup 25 subtable" ucircumflex.smcp
Substitution2: "'aalt' Access All Alternates lookup 0 subtable" ucircumflex.smcp
EndChar

StartChar: Udieresis
Encoding: 220 220 141
Width: 550
Flags: W
LayerCount: 3
Fore
SplineSet
138.5 809 m 1,0,-1
 228.5 809 l 1,1,-1
 228.5 715 l 1,2,-1
 138.5 715 l 1,3,-1
 138.5 809 l 1,0,-1
308.5 809 m 1,4,-1
 398.5 809 l 1,5,-1
 398.5 715 l 1,6,-1
 308.5 715 l 1,7,-1
 308.5 809 l 1,4,-1
182 -3 m 128,-1,9
 142.5 4 142.5 4 104.5 21 c 0,10,11
 64.5 39 64.5 39 43 76 c 128,-1,12
 21.5 113 21.5 113 21.5 166 c 2,13,-1
 21.5 649 l 1,14,-1
 114.5 649 l 1,15,-1
 114.5 167 l 2,16,17
 114.5 106 114.5 106 155.5 80.5 c 128,-1,18
 196.5 55 196.5 55 276.5 55 c 256,19,20
 356.5 55 356.5 55 396 80.5 c 128,-1,21
 435.5 106 435.5 106 435.5 167 c 2,22,-1
 435.5 649 l 1,23,-1
 528.5 649 l 1,24,-1
 528.5 166 l 2,25,26
 528.5 -10 528.5 -10 274.5 -10 c 0,27,8
 221.5 -10 221.5 -10 182 -3 c 128,-1,9
EndSplineSet
Substitution2: "'c2sc' Capitals to Small Capitals lookup 25 subtable" udieresis.smcp
Substitution2: "'aalt' Access All Alternates lookup 0 subtable" udieresis.smcp
EndChar

StartChar: Uhorn
Encoding: 431 431 145
Width: 550
GlyphClass: 2
Flags: W
AnchorPoint: "Anchor-12" -112 0 basechar 0
AnchorPoint: "Anchor-11" 493 649 basechar 0
AnchorPoint: "Anchor-10" -112 0 basechar 0
AnchorPoint: "Anchor-9" 226 649 basechar 0
AnchorPoint: "Anchor-8" 226 0 basechar 0
LayerCount: 3
Fore
SplineSet
558 631.5 m 128,-1,1
 538 599 538 599 479 589 c 1,2,-1
 479 166 l 2,3,4
 479 -10 479 -10 225 -10 c 0,5,6
 172 -10 172 -10 132.5 -3 c 128,-1,7
 93 4 93 4 55 21 c 0,8,9
 15 39 15 39 -6.5 76 c 128,-1,10
 -28 113 -28 113 -28 166 c 2,11,-1
 -28 649 l 1,12,-1
 65 649 l 1,13,-1
 65 167 l 2,14,15
 65 106 65 106 106 80.5 c 128,-1,16
 147 55 147 55 227 55 c 256,17,18
 307 55 307 55 346.5 80.5 c 128,-1,19
 386 106 386 106 386 167 c 2,20,-1
 386 649 l 1,21,-1
 399 649 l 2,22,23
 444 649 444 649 462.5 654.5 c 128,-1,24
 481 660 481 660 488 677.5 c 128,-1,25
 495 695 495 695 495 737 c 1,26,-1
 578 736 l 1,27,0
 578 664 578 664 558 631.5 c 128,-1,1
EndSplineSet
EndChar

StartChar: Uhungarumlaut
Encoding: 368 368 151
Width: 550
Flags: W
LayerCount: 3
Fore
SplineSet
216.5 831 m 1,0,-1
 292.5 831 l 1,1,-1
 222.5 703 l 1,2,-1
 146.5 703 l 1,3,-1
 216.5 831 l 1,0,-1
343.5 831 m 1,4,-1
 419.5 831 l 1,5,-1
 349.5 703 l 1,6,-1
 273.5 703 l 1,7,-1
 343.5 831 l 1,4,-1
182 -3 m 128,-1,9
 142.5 4 142.5 4 104.5 21 c 0,10,11
 64.5 39 64.5 39 43 76 c 128,-1,12
 21.5 113 21.5 113 21.5 166 c 2,13,-1
 21.5 649 l 1,14,-1
 114.5 649 l 1,15,-1
 114.5 167 l 2,16,17
 114.5 106 114.5 106 155.5 80.5 c 128,-1,18
 196.5 55 196.5 55 276.5 55 c 256,19,20
 356.5 55 356.5 55 396 80.5 c 128,-1,21
 435.5 106 435.5 106 435.5 167 c 2,22,-1
 435.5 649 l 1,23,-1
 528.5 649 l 1,24,-1
 528.5 166 l 2,25,26
 528.5 -10 528.5 -10 274.5 -10 c 0,27,8
 221.5 -10 221.5 -10 182 -3 c 128,-1,9
EndSplineSet
Substitution2: "'c2sc' Capitals to Small Capitals lookup 25 subtable" uhungarumlaut.smcp
Substitution2: "'aalt' Access All Alternates lookup 0 subtable" uhungarumlaut.smcp
EndChar

StartChar: Umacron
Encoding: 362 362 152
Width: 550
Flags: W
LayerCount: 3
Fore
SplineSet
162.5 798 m 1,0,-1
 380.5 798 l 1,1,-1
 380.5 739 l 1,2,-1
 162.5 739 l 1,3,-1
 162.5 798 l 1,0,-1
182 -3 m 128,-1,5
 142.5 4 142.5 4 104.5 21 c 0,6,7
 64.5 39 64.5 39 43 76 c 128,-1,8
 21.5 113 21.5 113 21.5 166 c 2,9,-1
 21.5 649 l 1,10,-1
 114.5 649 l 1,11,-1
 114.5 167 l 2,12,13
 114.5 106 114.5 106 155.5 80.5 c 128,-1,14
 196.5 55 196.5 55 276.5 55 c 256,15,16
 356.5 55 356.5 55 396 80.5 c 128,-1,17
 435.5 106 435.5 106 435.5 167 c 2,18,-1
 435.5 649 l 1,19,-1
 528.5 649 l 1,20,-1
 528.5 166 l 2,21,22
 528.5 -10 528.5 -10 274.5 -10 c 0,23,4
 221.5 -10 221.5 -10 182 -3 c 128,-1,5
EndSplineSet
Substitution2: "'c2sc' Capitals to Small Capitals lookup 25 subtable" umacron.smcp
Substitution2: "'aalt' Access All Alternates lookup 0 subtable" umacron.smcp
EndChar

StartChar: Uogonek
Encoding: 370 370 153
Width: 550
Flags: W
LayerCount: 3
Fore
SplineSet
242 -167 m 128,-1,1
 217.5 -148 217.5 -148 217.5 -106 c 0,2,3
 217.5 -60 217.5 -60 247.5 -9 c 1,4,5
 21.5 -2 21.5 -2 21.5 166 c 2,6,-1
 21.5 649 l 1,7,-1
 114.5 649 l 1,8,-1
 114.5 167 l 2,9,10
 114.5 106 114.5 106 155.5 80.5 c 128,-1,11
 196.5 55 196.5 55 276.5 55 c 256,12,13
 356.5 55 356.5 55 396 80.5 c 128,-1,14
 435.5 106 435.5 106 435.5 167 c 2,15,-1
 435.5 649 l 1,16,-1
 528.5 649 l 1,17,-1
 528.5 166 l 2,18,19
 528.5 9 528.5 9 322.5 -8 c 1,20,21
 296.5 -54 296.5 -54 296.5 -97 c 0,22,23
 296.5 -130 296.5 -130 335.5 -130 c 0,24,25
 345.5 -130 345.5 -130 366.5 -123 c 1,26,-1
 366.5 -176 l 1,27,28
 346.5 -186 346.5 -186 316.5 -186 c 0,29,0
 266.5 -186 266.5 -186 242 -167 c 128,-1,1
EndSplineSet
Substitution2: "'c2sc' Capitals to Small Capitals lookup 25 subtable" uogonek.smcp
Substitution2: "'aalt' Access All Alternates lookup 0 subtable" uogonek.smcp
EndChar

StartChar: Uring
Encoding: 366 366 154
Width: 550
Flags: W
LayerCount: 3
Fore
SplineSet
225.5 705.5 m 128,-1,1
 206.5 708 206.5 708 186.5 717 c 256,2,3
 166.5 726 166.5 726 157.5 746 c 128,-1,4
 148.5 766 148.5 766 148.5 801 c 2,5,-1
 148.5 813 l 2,6,7
 148.5 850 148.5 850 157.5 871.5 c 128,-1,8
 166.5 893 166.5 893 186.5 903 c 0,9,10
 206.5 912 206.5 912 225.5 914.5 c 128,-1,11
 244.5 917 244.5 917 281.5 917 c 0,12,13
 311.5 917 311.5 917 328 915.5 c 128,-1,14
 344.5 914 344.5 914 362.5 909 c 0,15,16
 381.5 903 381.5 903 391.5 892.5 c 128,-1,17
 401.5 882 401.5 882 408.5 862 c 0,18,19
 415.5 844 415.5 844 415.5 813 c 2,20,-1
 415.5 801 l 2,21,22
 415.5 766 415.5 766 407 746 c 128,-1,23
 398.5 726 398.5 726 378.5 717 c 256,24,25
 358.5 708 358.5 708 339 705.5 c 128,-1,26
 319.5 703 319.5 703 281.5 703 c 0,27,0
 244.5 703 244.5 703 225.5 705.5 c 128,-1,1
326 748 m 128,-1,29
 340.5 751 340.5 751 346.5 761.5 c 128,-1,30
 352.5 772 352.5 772 352.5 794 c 2,31,-1
 352.5 821 l 2,32,33
 352.5 845 352.5 845 346.5 856.5 c 128,-1,34
 340.5 868 340.5 868 326 871.5 c 128,-1,35
 311.5 875 311.5 875 281.5 875 c 256,36,37
 251.5 875 251.5 875 237.5 871.5 c 128,-1,38
 223.5 868 223.5 868 217.5 856.5 c 128,-1,39
 211.5 845 211.5 845 211.5 821 c 2,40,-1
 211.5 794 l 2,41,42
 211.5 772 211.5 772 217.5 761.5 c 128,-1,43
 223.5 751 223.5 751 237.5 748 c 128,-1,44
 251.5 745 251.5 745 281.5 745 c 256,45,28
 311.5 745 311.5 745 326 748 c 128,-1,29
182 -3 m 128,-1,47
 142.5 4 142.5 4 104.5 21 c 0,48,49
 64.5 39 64.5 39 43 76 c 128,-1,50
 21.5 113 21.5 113 21.5 166 c 2,51,-1
 21.5 649 l 1,52,-1
 114.5 649 l 1,53,-1
 114.5 167 l 2,54,55
 114.5 106 114.5 106 155.5 80.5 c 128,-1,56
 196.5 55 196.5 55 276.5 55 c 256,57,58
 356.5 55 356.5 55 396 80.5 c 128,-1,59
 435.5 106 435.5 106 435.5 167 c 2,60,-1
 435.5 649 l 1,61,-1
 528.5 649 l 1,62,-1
 528.5 166 l 2,63,64
 528.5 -10 528.5 -10 274.5 -10 c 0,65,46
 221.5 -10 221.5 -10 182 -3 c 128,-1,47
EndSplineSet
Substitution2: "'c2sc' Capitals to Small Capitals lookup 25 subtable" uring.smcp
Substitution2: "'aalt' Access All Alternates lookup 0 subtable" uring.smcp
EndChar

StartChar: V
Encoding: 86 86 156
Width: 550
Flags: W
LayerCount: 3
Fore
SplineSet
-36 649 m 1,0,-1
 65 649 l 1,1,-1
 273 92 l 1,2,-1
 282 92 l 1,3,-1
 490 649 l 1,4,-1
 586 649 l 1,5,-1
 328 0 l 1,6,-1
 216 0 l 1,7,-1
 -36 649 l 1,0,-1
EndSplineSet
Substitution2: "'c2sc' Capitals to Small Capitals lookup 25 subtable" v.smcp
Substitution2: "'aalt' Access All Alternates lookup 0 subtable" v.smcp
EndChar

StartChar: W
Encoding: 87 87 157
Width: 550
Flags: WO
LayerCount: 3
Fore
SplineSet
428.405600182 305.093668936 m 1,0,-1
 490 92 l 1,1,-1
 492 92 l 1,2,-1
 653 649 l 1,3,-1
 751 649 l 1,4,-1
 542 0 l 1,5,-1
 429 0 l 1,6,-1
 382.719387755 155.867346939 l 1,7,-1
 335 0 l 1,8,-1
 222 0 l 1,9,-1
 19 649 l 1,10,-1
 122 649 l 1,11,-1
 283 92 l 1,12,-1
 285 92 l 1,13,-1
 342.557513281 291.127545946 l 1,14,-1
 382.719387755 155.867346939 l 1,15,-1
 428.405600182 305.093668936 l 1,0,-1
428.405600182 305.093668936 m 1,16,-1
 534 650 l 1,17,-1
 446 649 l 1,18,-1
 387.5 446.611801242 l 1,19,-1
 428.405600182 305.093668936 l 1,16,-1
387.5 446.611801242 m 1,20,-1
 342.557513281 291.127545946 l 1,21,-1
 236 650 l 1,22,-1
 329 649 l 1,23,-1
 387.5 446.611801242 l 1,20,-1
EndSplineSet
Substitution2: "'c2sc' Capitals to Small Capitals lookup 25 subtable" w.smcp
Substitution2: "'aalt' Access All Alternates lookup 0 subtable" w.smcp
EndChar

StartChar: Wacute
Encoding: 7810 7810 158
Width: 550
Flags: W
LayerCount: 3
Fore
SplineSet
311 830 m 1,0,-1
 420 830 l 1,1,-1
 295 703 l 1,2,-1
 221 703 l 1,3,-1
 311 830 l 1,0,-1
-201 649 m 1,4,-1
 -98 649 l 1,5,-1
 63 92 l 1,6,-1
 65 92 l 1,7,-1
 226 649 l 1,8,-1
 329 649 l 1,9,-1
 490 92 l 1,10,-1
 492 92 l 1,11,-1
 653 649 l 1,12,-1
 751 649 l 1,13,-1
 542 0 l 1,14,-1
 429 0 l 1,15,-1
 274 540 l 1,16,-1
 115 0 l 1,17,-1
 2 0 l 1,18,-1
 -201 649 l 1,4,-1
EndSplineSet
Substitution2: "'c2sc' Capitals to Small Capitals lookup 25 subtable" wacute.smcp
Substitution2: "'aalt' Access All Alternates lookup 0 subtable" wacute.smcp
EndChar

StartChar: Wcircumflex
Encoding: 372 372 159
Width: 550
Flags: W
LayerCount: 3
Fore
SplineSet
224 830 m 1,0,-1
 331 830 l 1,1,-1
 397 703 l 1,2,-1
 339 703 l 1,3,-1
 277 790 l 1,4,-1
 214 703 l 1,5,-1
 156 703 l 1,6,-1
 224 830 l 1,0,-1
-201 649 m 1,7,-1
 -98 649 l 1,8,-1
 63 92 l 1,9,-1
 65 92 l 1,10,-1
 226 649 l 1,11,-1
 329 649 l 1,12,-1
 490 92 l 1,13,-1
 492 92 l 1,14,-1
 653 649 l 1,15,-1
 751 649 l 1,16,-1
 542 0 l 1,17,-1
 429 0 l 1,18,-1
 274 540 l 1,19,-1
 115 0 l 1,20,-1
 2 0 l 1,21,-1
 -201 649 l 1,7,-1
EndSplineSet
Substitution2: "'c2sc' Capitals to Small Capitals lookup 25 subtable" wcircumflex.smcp
Substitution2: "'aalt' Access All Alternates lookup 0 subtable" wcircumflex.smcp
EndChar

StartChar: Wdieresis
Encoding: 7812 7812 160
Width: 550
Flags: W
LayerCount: 3
Fore
SplineSet
144 829 m 1,0,-1
 234 829 l 1,1,-1
 234 735 l 1,2,-1
 144 735 l 1,3,-1
 144 829 l 1,0,-1
314 829 m 1,4,-1
 404 829 l 1,5,-1
 404 735 l 1,6,-1
 314 735 l 1,7,-1
 314 829 l 1,4,-1
-201 649 m 1,8,-1
 -98 649 l 1,9,-1
 63 92 l 1,10,-1
 65 92 l 1,11,-1
 226 649 l 1,12,-1
 329 649 l 1,13,-1
 490 92 l 1,14,-1
 492 92 l 1,15,-1
 653 649 l 1,16,-1
 751 649 l 1,17,-1
 542 0 l 1,18,-1
 429 0 l 1,19,-1
 274 540 l 1,20,-1
 115 0 l 1,21,-1
 2 0 l 1,22,-1
 -201 649 l 1,8,-1
EndSplineSet
Substitution2: "'c2sc' Capitals to Small Capitals lookup 25 subtable" wdieresis.smcp
Substitution2: "'aalt' Access All Alternates lookup 0 subtable" wdieresis.smcp
EndChar

StartChar: Wgrave
Encoding: 7808 7808 161
Width: 550
Flags: W
LayerCount: 3
Fore
SplineSet
115 830 m 1,0,-1
 224 830 l 1,1,-1
 314 703 l 1,2,-1
 240 703 l 1,3,-1
 115 830 l 1,0,-1
-201 649 m 1,4,-1
 -98 649 l 1,5,-1
 63 92 l 1,6,-1
 65 92 l 1,7,-1
 226 649 l 1,8,-1
 329 649 l 1,9,-1
 490 92 l 1,10,-1
 492 92 l 1,11,-1
 653 649 l 1,12,-1
 751 649 l 1,13,-1
 542 0 l 1,14,-1
 429 0 l 1,15,-1
 274 540 l 1,16,-1
 115 0 l 1,17,-1
 2 0 l 1,18,-1
 -201 649 l 1,4,-1
EndSplineSet
Substitution2: "'c2sc' Capitals to Small Capitals lookup 25 subtable" wgrave.smcp
Substitution2: "'aalt' Access All Alternates lookup 0 subtable" wgrave.smcp
EndChar

StartChar: X
Encoding: 88 88 162
Width: 550
Flags: W
LayerCount: 3
Fore
SplineSet
220 331 m 1,0,-1
 -9 649 l 1,1,-1
 102 649 l 1,2,-1
 275 398 l 1,3,-1
 448 649 l 1,4,-1
 559 649 l 1,5,-1
 330 331 l 1,6,-1
 569 0 l 1,7,-1
 458 0 l 1,8,-1
 275 264 l 1,9,-1
 92 0 l 1,10,-1
 -19 0 l 1,11,-1
 220 331 l 1,0,-1
EndSplineSet
Substitution2: "'c2sc' Capitals to Small Capitals lookup 25 subtable" x.smcp
Substitution2: "'aalt' Access All Alternates lookup 0 subtable" x.smcp
EndChar

StartChar: Y
Encoding: 89 89 163
Width: 550
GlyphClass: 2
Flags: W
AnchorPoint: "Anchor-12" -17 0 basechar 0
AnchorPoint: "Anchor-11" -17 0 basechar 0
AnchorPoint: "Anchor-10" -17 0 basechar 0
AnchorPoint: "Anchor-9" 275 649 basechar 0
AnchorPoint: "Anchor-8" 275 0 basechar 0
LayerCount: 3
Fore
SplineSet
226 262 m 1,0,-1
 -9 649 l 1,1,-1
 102 649 l 1,2,-1
 275 344 l 1,3,-1
 448 649 l 1,4,-1
 559 649 l 1,5,-1
 323 265 l 1,6,-1
 323 0 l 1,7,-1
 226 0 l 1,8,-1
 226 262 l 1,0,-1
EndSplineSet
Substitution2: "'c2sc' Capitals to Small Capitals lookup 25 subtable" y.smcp
Substitution2: "'aalt' Access All Alternates lookup 0 subtable" y.smcp
EndChar

StartChar: Ycircumflex
Encoding: 374 374 165
Width: 550
Flags: W
LayerCount: 3
Fore
SplineSet
223 830 m 1,0,-1
 330 830 l 1,1,-1
 396 703 l 1,2,-1
 338 703 l 1,3,-1
 276 790 l 1,4,-1
 213 703 l 1,5,-1
 155 703 l 1,6,-1
 223 830 l 1,0,-1
226 262 m 1,7,-1
 -9 649 l 1,8,-1
 102 649 l 1,9,-1
 275 344 l 1,10,-1
 448 649 l 1,11,-1
 559 649 l 1,12,-1
 323 265 l 1,13,-1
 323 0 l 1,14,-1
 226 0 l 1,15,-1
 226 262 l 1,7,-1
EndSplineSet
Substitution2: "'c2sc' Capitals to Small Capitals lookup 25 subtable" ycircumflex.smcp
Substitution2: "'aalt' Access All Alternates lookup 0 subtable" ycircumflex.smcp
EndChar

StartChar: Ydieresis
Encoding: 376 376 166
Width: 550
Flags: W
LayerCount: 3
Fore
SplineSet
143 809 m 1,0,-1
 233 809 l 1,1,-1
 233 715 l 1,2,-1
 143 715 l 1,3,-1
 143 809 l 1,0,-1
313 809 m 1,4,-1
 403 809 l 1,5,-1
 403 715 l 1,6,-1
 313 715 l 1,7,-1
 313 809 l 1,4,-1
226 262 m 1,8,-1
 -9 649 l 1,9,-1
 102 649 l 1,10,-1
 275 344 l 1,11,-1
 448 649 l 1,12,-1
 559 649 l 1,13,-1
 323 265 l 1,14,-1
 323 0 l 1,15,-1
 226 0 l 1,16,-1
 226 262 l 1,8,-1
EndSplineSet
Substitution2: "'c2sc' Capitals to Small Capitals lookup 25 subtable" ydieresis.smcp
Substitution2: "'aalt' Access All Alternates lookup 0 subtable" ydieresis.smcp
EndChar

StartChar: Z
Encoding: 90 90 171
Width: 550
Flags: W
LayerCount: 3
Fore
SplineSet
25 68 m 1,0,-1
 407 581 l 1,1,-1
 35 581 l 1,2,-1
 35 649 l 1,3,-1
 519 649 l 1,4,-1
 519 581 l 1,5,-1
 137 68 l 1,6,-1
 525 68 l 1,7,-1
 525 0 l 1,8,-1
 25 0 l 1,9,-1
 25 68 l 1,0,-1
EndSplineSet
Substitution2: "'c2sc' Capitals to Small Capitals lookup 25 subtable" z.smcp
Substitution2: "'aalt' Access All Alternates lookup 0 subtable" z.smcp
EndChar

StartChar: Zacute
Encoding: 377 377 172
Width: 550
Flags: W
LayerCount: 3
Fore
SplineSet
288 830 m 1,0,-1
 397 830 l 1,1,-1
 272 703 l 1,2,-1
 198 703 l 1,3,-1
 288 830 l 1,0,-1
25 68 m 1,4,-1
 407 581 l 1,5,-1
 35 581 l 1,6,-1
 35 649 l 1,7,-1
 519 649 l 1,8,-1
 519 581 l 1,9,-1
 137 68 l 1,10,-1
 525 68 l 1,11,-1
 525 0 l 1,12,-1
 25 0 l 1,13,-1
 25 68 l 1,4,-1
EndSplineSet
Substitution2: "'c2sc' Capitals to Small Capitals lookup 25 subtable" zacute.smcp
Substitution2: "'aalt' Access All Alternates lookup 0 subtable" zacute.smcp
EndChar

StartChar: Zcaron
Encoding: 381 381 173
Width: 550
Flags: W
LayerCount: 3
Fore
SplineSet
145 830 m 1,0,-1
 203 830 l 1,1,-1
 266 743 l 1,2,-1
 328 830 l 1,3,-1
 386 830 l 1,4,-1
 320 703 l 1,5,-1
 213 703 l 1,6,-1
 145 830 l 1,0,-1
25 68 m 1,7,-1
 407 581 l 1,8,-1
 35 581 l 1,9,-1
 35 649 l 1,10,-1
 519 649 l 1,11,-1
 519 581 l 1,12,-1
 137 68 l 1,13,-1
 525 68 l 1,14,-1
 525 0 l 1,15,-1
 25 0 l 1,16,-1
 25 68 l 1,7,-1
EndSplineSet
Substitution2: "'c2sc' Capitals to Small Capitals lookup 25 subtable" zcaron.smcp
Substitution2: "'aalt' Access All Alternates lookup 0 subtable" zcaron.smcp
EndChar

StartChar: Zdotaccent
Encoding: 379 379 174
Width: 550
Flags: W
LayerCount: 3
Fore
SplineSet
222 830 m 1,0,-1
 312 830 l 1,1,-1
 312 732 l 1,2,-1
 222 732 l 1,3,-1
 222 830 l 1,0,-1
25 68 m 1,4,-1
 407 581 l 1,5,-1
 35 581 l 1,6,-1
 35 649 l 1,7,-1
 519 649 l 1,8,-1
 519 581 l 1,9,-1
 137 68 l 1,10,-1
 525 68 l 1,11,-1
 525 0 l 1,12,-1
 25 0 l 1,13,-1
 25 68 l 1,4,-1
EndSplineSet
Substitution2: "'c2sc' Capitals to Small Capitals lookup 25 subtable" zdotaccent.smcp
Substitution2: "'aalt' Access All Alternates lookup 0 subtable" zdotaccent.smcp
EndChar

StartChar: a
Encoding: 97 97 175
Width: 550
GlyphClass: 2
Flags: W
AnchorPoint: "Anchor-12" 20 0 basechar 0
AnchorPoint: "Anchor-11" 20 0 basechar 0
AnchorPoint: "Anchor-10" 20 0 basechar 0
AnchorPoint: "Anchor-9" 289 484 basechar 0
AnchorPoint: "Anchor-8" 289 0 basechar 0
LayerCount: 3
Fore
SplineSet
140.5 3 m 128,-1,1
 103 16 103 16 86.5 49 c 128,-1,2
 70 82 70 82 70 144 c 0,3,4
 70 199 70 199 85.5 229.5 c 128,-1,5
 101 260 101 260 138.5 273 c 128,-1,6
 176 286 176 286 245 286 c 2,7,-1
 390 286 l 1,8,-1
 390 363 l 2,9,10
 390 390 390 390 379.5 404.5 c 128,-1,11
 369 419 369 419 344.5 425 c 128,-1,12
 320 431 320 431 273 431 c 0,13,14
 198 431 198 431 107 419 c 1,15,-1
 107 485 l 1,16,17
 206 494 206 494 286 494 c 0,18,19
 370 494 370 494 410 481.5 c 128,-1,20
 450 469 450 469 465 438 c 128,-1,21
 480 407 480 407 480 342 c 2,22,-1
 480 0 l 1,23,-1
 393 0 l 1,24,-1
 393 46 l 1,25,26
 382 -10 382 -10 247 -10 c 0,27,0
 178 -10 178 -10 140.5 3 c 128,-1,1
262 49 m 2,28,29
 311 49 311 49 345 56 c 0,30,31
 390 65 390 65 390 98 c 2,32,-1
 390 230 l 1,33,-1
 251 230 l 2,34,35
 208 230 208 230 189 223.5 c 128,-1,36
 170 217 170 217 164 199 c 128,-1,37
 158 181 158 181 158 141 c 0,38,39
 158 105 158 105 165 85.5 c 128,-1,40
 172 66 172 66 190 57.5 c 128,-1,41
 208 49 208 49 244 49 c 2,42,-1
 262 49 l 2,28,29
EndSplineSet
Substitution2: "Single Substitution lookup 35 subtable" ordfeminine
Substitution2: "'smcp' Lowercase to Small Capitals lookup 26 subtable" a.smcp
AlternateSubs2: "'aalt' Access All Alternates lookup 1 subtable" ordfeminine a.smcp
EndChar

StartChar: uni1EAF
Encoding: 7855 7855 178
Width: 550
GlyphClass: 2
Flags: W
AnchorPoint: "Anchor-12" 20 0 basechar 0
AnchorPoint: "Anchor-11" 20 0 basechar 0
AnchorPoint: "Anchor-10" 20 0 basechar 0
AnchorPoint: "Anchor-9" 353 830 basechar 0
AnchorPoint: "Anchor-8" 289 0 basechar 0
LayerCount: 3
Fore
SplineSet
293 799 m 1,0,-1
 402 799 l 1,1,-1
 327 703 l 1,2,-1
 253 703 l 1,3,-1
 293 799 l 1,0,-1
204.5 587.5 m 128,-1,5
 173 622 173 622 171 680 c 1,6,-1
 225 680 l 1,7,8
 231 612 231 612 289 612 c 256,9,10
 347 612 347 612 353 680 c 1,11,-1
 407 680 l 1,12,13
 406 623 406 623 374 588 c 256,14,15
 342 553 342 553 289 553 c 256,16,4
 236 553 236 553 204.5 587.5 c 128,-1,5
140.5 3 m 128,-1,18
 103 16 103 16 86.5 49 c 128,-1,19
 70 82 70 82 70 144 c 0,20,21
 70 199 70 199 85.5 229.5 c 128,-1,22
 101 260 101 260 138.5 273 c 128,-1,23
 176 286 176 286 245 286 c 2,24,-1
 390 286 l 1,25,-1
 390 363 l 2,26,27
 390 390 390 390 379.5 404.5 c 128,-1,28
 369 419 369 419 344.5 425 c 128,-1,29
 320 431 320 431 273 431 c 0,30,31
 198 431 198 431 107 419 c 1,32,-1
 107 485 l 1,33,34
 206 494 206 494 286 494 c 0,35,36
 370 494 370 494 410 481.5 c 128,-1,37
 450 469 450 469 465 438 c 128,-1,38
 480 407 480 407 480 342 c 2,39,-1
 480 0 l 1,40,-1
 393 0 l 1,41,-1
 393 46 l 1,42,43
 382 -10 382 -10 247 -10 c 0,44,17
 178 -10 178 -10 140.5 3 c 128,-1,18
262 49 m 2,45,46
 311 49 311 49 345 56 c 0,47,48
 390 65 390 65 390 98 c 2,49,-1
 390 230 l 1,50,-1
 251 230 l 2,51,52
 208 230 208 230 189 223.5 c 128,-1,53
 170 217 170 217 164 199 c 128,-1,54
 158 181 158 181 158 141 c 0,55,56
 158 105 158 105 165 85.5 c 128,-1,57
 172 66 172 66 190 57.5 c 128,-1,58
 208 49 208 49 244 49 c 2,59,-1
 262 49 l 2,45,46
EndSplineSet
EndChar

StartChar: uni1EB1
Encoding: 7857 7857 180
Width: 550
GlyphClass: 2
Flags: W
AnchorPoint: "Anchor-12" 20 0 basechar 0
AnchorPoint: "Anchor-11" 20 0 basechar 0
AnchorPoint: "Anchor-10" 20 0 basechar 0
AnchorPoint: "Anchor-9" 199 828 basechar 0
AnchorPoint: "Anchor-8" 289 0 basechar 0
LayerCount: 3
Fore
SplineSet
193 797 m 1,0,-1
 302 797 l 1,1,-1
 333 701 l 1,2,-1
 259 701 l 1,3,-1
 193 797 l 1,0,-1
204.5 587.5 m 128,-1,5
 173 622 173 622 171 680 c 1,6,-1
 225 680 l 1,7,8
 231 612 231 612 289 612 c 256,9,10
 347 612 347 612 353 680 c 1,11,-1
 407 680 l 1,12,13
 406 623 406 623 374 588 c 256,14,15
 342 553 342 553 289 553 c 256,16,4
 236 553 236 553 204.5 587.5 c 128,-1,5
140.5 3 m 128,-1,18
 103 16 103 16 86.5 49 c 128,-1,19
 70 82 70 82 70 144 c 0,20,21
 70 199 70 199 85.5 229.5 c 128,-1,22
 101 260 101 260 138.5 273 c 128,-1,23
 176 286 176 286 245 286 c 2,24,-1
 390 286 l 1,25,-1
 390 363 l 2,26,27
 390 390 390 390 379.5 404.5 c 128,-1,28
 369 419 369 419 344.5 425 c 128,-1,29
 320 431 320 431 273 431 c 0,30,31
 198 431 198 431 107 419 c 1,32,-1
 107 485 l 1,33,34
 206 494 206 494 286 494 c 0,35,36
 370 494 370 494 410 481.5 c 128,-1,37
 450 469 450 469 465 438 c 128,-1,38
 480 407 480 407 480 342 c 2,39,-1
 480 0 l 1,40,-1
 393 0 l 1,41,-1
 393 46 l 1,42,43
 382 -10 382 -10 247 -10 c 0,44,17
 178 -10 178 -10 140.5 3 c 128,-1,18
262 49 m 2,45,46
 311 49 311 49 345 56 c 0,47,48
 390 65 390 65 390 98 c 2,49,-1
 390 230 l 1,50,-1
 251 230 l 2,51,52
 208 230 208 230 189 223.5 c 128,-1,53
 170 217 170 217 164 199 c 128,-1,54
 158 181 158 181 158 141 c 0,55,56
 158 105 158 105 165 85.5 c 128,-1,57
 172 66 172 66 190 57.5 c 128,-1,58
 208 49 208 49 244 49 c 2,59,-1
 262 49 l 2,45,46
EndSplineSet
EndChar

StartChar: uni1EA5
Encoding: 7845 7845 184
Width: 550
GlyphClass: 2
Flags: W
AnchorPoint: "Anchor-12" -11 0 basechar 0
AnchorPoint: "Anchor-11" -11 0 basechar 0
AnchorPoint: "Anchor-10" -11 0 basechar 0
AnchorPoint: "Anchor-9" 462 753 basechar 0
AnchorPoint: "Anchor-8" 258 0 basechar 0
LayerCount: 3
Fore
SplineSet
402 722 m 1,0,-1
 511 722 l 1,1,-1
 436 626 l 1,2,-1
 362 626 l 1,3,-1
 402 722 l 1,0,-1
205 680 m 1,4,-1
 312 680 l 1,5,-1
 378 553 l 1,6,-1
 320 553 l 1,7,-1
 258 640 l 1,8,-1
 195 553 l 1,9,-1
 137 553 l 1,10,-1
 205 680 l 1,4,-1
109.5 3 m 128,-1,12
 72 16 72 16 55.5 49 c 128,-1,13
 39 82 39 82 39 144 c 0,14,15
 39 199 39 199 54.5 229.5 c 128,-1,16
 70 260 70 260 107.5 273 c 128,-1,17
 145 286 145 286 214 286 c 2,18,-1
 359 286 l 1,19,-1
 359 363 l 2,20,21
 359 390 359 390 348.5 404.5 c 128,-1,22
 338 419 338 419 313.5 425 c 128,-1,23
 289 431 289 431 242 431 c 0,24,25
 167 431 167 431 76 419 c 1,26,-1
 76 485 l 1,27,28
 175 494 175 494 255 494 c 0,29,30
 339 494 339 494 379 481.5 c 128,-1,31
 419 469 419 469 434 438 c 128,-1,32
 449 407 449 407 449 342 c 2,33,-1
 449 0 l 1,34,-1
 362 0 l 1,35,-1
 362 46 l 1,36,37
 351 -10 351 -10 216 -10 c 0,38,11
 147 -10 147 -10 109.5 3 c 128,-1,12
231 49 m 2,39,40
 280 49 280 49 314 56 c 0,41,42
 359 65 359 65 359 98 c 2,43,-1
 359 230 l 1,44,-1
 220 230 l 2,45,46
 177 230 177 230 158 223.5 c 128,-1,47
 139 217 139 217 133 199 c 128,-1,48
 127 181 127 181 127 141 c 0,49,50
 127 105 127 105 134 85.5 c 128,-1,51
 141 66 141 66 159 57.5 c 128,-1,52
 177 49 177 49 213 49 c 2,53,-1
 231 49 l 2,39,40
EndSplineSet
EndChar

StartChar: uni1EA7
Encoding: 7847 7847 186
Width: 550
GlyphClass: 2
Flags: W
AnchorPoint: "Anchor-12" 10.5 0 basechar 0
AnchorPoint: "Anchor-11" 10.5 0 basechar 0
AnchorPoint: "Anchor-10" 10.5 0 basechar 0
AnchorPoint: "Anchor-9" 355.5 773 basechar 0
AnchorPoint: "Anchor-8" 279.5 0 basechar 0
LayerCount: 3
Fore
SplineSet
349.5 742 m 1,0,-1
 458.5 742 l 1,1,-1
 489.5 646 l 1,2,-1
 415.5 646 l 1,3,-1
 349.5 742 l 1,0,-1
226.5 680 m 1,4,-1
 333.5 680 l 1,5,-1
 399.5 553 l 1,6,-1
 341.5 553 l 1,7,-1
 279.5 640 l 1,8,-1
 216.5 553 l 1,9,-1
 158.5 553 l 1,10,-1
 226.5 680 l 1,4,-1
131 3 m 128,-1,12
 93.5 16 93.5 16 77 49 c 128,-1,13
 60.5 82 60.5 82 60.5 144 c 0,14,15
 60.5 199 60.5 199 76 229.5 c 128,-1,16
 91.5 260 91.5 260 129 273 c 128,-1,17
 166.5 286 166.5 286 235.5 286 c 2,18,-1
 380.5 286 l 1,19,-1
 380.5 363 l 2,20,21
 380.5 390 380.5 390 370 404.5 c 128,-1,22
 359.5 419 359.5 419 335 425 c 128,-1,23
 310.5 431 310.5 431 263.5 431 c 0,24,25
 188.5 431 188.5 431 97.5 419 c 1,26,-1
 97.5 485 l 1,27,28
 196.5 494 196.5 494 276.5 494 c 0,29,30
 360.5 494 360.5 494 400.5 481.5 c 128,-1,31
 440.5 469 440.5 469 455.5 438 c 128,-1,32
 470.5 407 470.5 407 470.5 342 c 2,33,-1
 470.5 0 l 1,34,-1
 383.5 0 l 1,35,-1
 383.5 46 l 1,36,37
 372.5 -10 372.5 -10 237.5 -10 c 0,38,11
 168.5 -10 168.5 -10 131 3 c 128,-1,12
252.5 49 m 2,39,40
 301.5 49 301.5 49 335.5 56 c 0,41,42
 380.5 65 380.5 65 380.5 98 c 2,43,-1
 380.5 230 l 1,44,-1
 241.5 230 l 2,45,46
 198.5 230 198.5 230 179.5 223.5 c 128,-1,47
 160.5 217 160.5 217 154.5 199 c 128,-1,48
 148.5 181 148.5 181 148.5 141 c 0,49,50
 148.5 105 148.5 105 155.5 85.5 c 128,-1,51
 162.5 66 162.5 66 180.5 57.5 c 128,-1,52
 198.5 49 198.5 49 234.5 49 c 2,53,-1
 252.5 49 l 2,39,40
EndSplineSet
EndChar

StartChar: adieresis
Encoding: 228 228 189
Width: 550
Flags: W
LayerCount: 3
Fore
SplineSet
150 659 m 1,0,-1
 240 659 l 1,1,-1
 240 565 l 1,2,-1
 150 565 l 1,3,-1
 150 659 l 1,0,-1
320 659 m 1,4,-1
 410 659 l 1,5,-1
 410 565 l 1,6,-1
 320 565 l 1,7,-1
 320 659 l 1,4,-1
140.5 3 m 128,-1,9
 103 16 103 16 86.5 49 c 128,-1,10
 70 82 70 82 70 144 c 0,11,12
 70 199 70 199 85.5 229.5 c 128,-1,13
 101 260 101 260 138.5 273 c 128,-1,14
 176 286 176 286 245 286 c 2,15,-1
 390 286 l 1,16,-1
 390 363 l 2,17,18
 390 390 390 390 379.5 404.5 c 128,-1,19
 369 419 369 419 344.5 425 c 128,-1,20
 320 431 320 431 273 431 c 0,21,22
 198 431 198 431 107 419 c 1,23,-1
 107 485 l 1,24,25
 206 494 206 494 286 494 c 0,26,27
 370 494 370 494 410 481.5 c 128,-1,28
 450 469 450 469 465 438 c 128,-1,29
 480 407 480 407 480 342 c 2,30,-1
 480 0 l 1,31,-1
 393 0 l 1,32,-1
 393 46 l 1,33,34
 382 -10 382 -10 247 -10 c 0,35,8
 178 -10 178 -10 140.5 3 c 128,-1,9
262 49 m 2,36,37
 311 49 311 49 345 56 c 0,38,39
 390 65 390 65 390 98 c 2,40,-1
 390 230 l 1,41,-1
 251 230 l 2,42,43
 208 230 208 230 189 223.5 c 128,-1,44
 170 217 170 217 164 199 c 128,-1,45
 158 181 158 181 158 141 c 0,46,47
 158 105 158 105 165 85.5 c 128,-1,48
 172 66 172 66 190 57.5 c 128,-1,49
 208 49 208 49 244 49 c 2,50,-1
 262 49 l 2,36,37
EndSplineSet
Substitution2: "'smcp' Lowercase to Small Capitals lookup 26 subtable" adieresis.smcp
Substitution2: "'aalt' Access All Alternates lookup 0 subtable" adieresis.smcp
EndChar

StartChar: amacron
Encoding: 257 257 193
Width: 550
Flags: W
LayerCount: 3
Fore
SplineSet
180 649 m 1,0,-1
 398 649 l 1,1,-1
 398 590 l 1,2,-1
 180 590 l 1,3,-1
 180 649 l 1,0,-1
140.5 3 m 128,-1,5
 103 16 103 16 86.5 49 c 128,-1,6
 70 82 70 82 70 144 c 0,7,8
 70 199 70 199 85.5 229.5 c 128,-1,9
 101 260 101 260 138.5 273 c 128,-1,10
 176 286 176 286 245 286 c 2,11,-1
 390 286 l 1,12,-1
 390 363 l 2,13,14
 390 390 390 390 379.5 404.5 c 128,-1,15
 369 419 369 419 344.5 425 c 128,-1,16
 320 431 320 431 273 431 c 0,17,18
 198 431 198 431 107 419 c 1,19,-1
 107 485 l 1,20,21
 206 494 206 494 286 494 c 0,22,23
 370 494 370 494 410 481.5 c 128,-1,24
 450 469 450 469 465 438 c 128,-1,25
 480 407 480 407 480 342 c 2,26,-1
 480 0 l 1,27,-1
 393 0 l 1,28,-1
 393 46 l 1,29,30
 382 -10 382 -10 247 -10 c 0,31,4
 178 -10 178 -10 140.5 3 c 128,-1,5
262 49 m 2,32,33
 311 49 311 49 345 56 c 0,34,35
 390 65 390 65 390 98 c 2,36,-1
 390 230 l 1,37,-1
 251 230 l 2,38,39
 208 230 208 230 189 223.5 c 128,-1,40
 170 217 170 217 164 199 c 128,-1,41
 158 181 158 181 158 141 c 0,42,43
 158 105 158 105 165 85.5 c 128,-1,44
 172 66 172 66 190 57.5 c 128,-1,45
 208 49 208 49 244 49 c 2,46,-1
 262 49 l 2,32,33
EndSplineSet
Substitution2: "'smcp' Lowercase to Small Capitals lookup 26 subtable" amacron.smcp
Substitution2: "'aalt' Access All Alternates lookup 0 subtable" amacron.smcp
EndChar

StartChar: aogonek
Encoding: 261 261 194
Width: 550
Flags: W
LayerCount: 3
Fore
SplineSet
368 -167 m 128,-1,1
 344 -148 344 -148 344 -106 c 0,2,3
 344 -56 344 -56 380 0 c 1,4,-1
 380 46 l 1,5,6
 369 -10 369 -10 234 -10 c 0,7,8
 165 -10 165 -10 127.5 3 c 128,-1,9
 90 16 90 16 73.5 49 c 128,-1,10
 57 82 57 82 57 144 c 0,11,12
 57 199 57 199 72.5 229.5 c 128,-1,13
 88 260 88 260 125.5 273 c 128,-1,14
 163 286 163 286 232 286 c 2,15,-1
 377 286 l 1,16,-1
 377 363 l 2,17,18
 377 390 377 390 366.5 404.5 c 128,-1,19
 356 419 356 419 331.5 425 c 128,-1,20
 307 431 307 431 260 431 c 0,21,22
 185 431 185 431 94 419 c 1,23,-1
 94 485 l 1,24,25
 193 494 193 494 273 494 c 0,26,27
 357 494 357 494 397 481.5 c 128,-1,28
 437 469 437 469 452 438 c 128,-1,29
 467 407 467 407 467 342 c 2,30,-1
 467 0 l 1,31,32
 423 -49 423 -49 423 -97 c 0,33,34
 423 -130 423 -130 462 -130 c 0,35,36
 472 -130 472 -130 493 -123 c 1,37,-1
 493 -176 l 1,38,39
 473 -186 473 -186 443 -186 c 0,40,0
 392 -186 392 -186 368 -167 c 128,-1,1
249 47 m 2,41,42
 298 47 298 47 332 54 c 0,43,44
 377 63 377 63 377 96 c 2,45,-1
 377 230 l 1,46,-1
 238 230 l 2,47,48
 195 230 195 230 176 223.5 c 128,-1,49
 157 217 157 217 151 199 c 128,-1,50
 145 181 145 181 145 141 c 0,51,52
 145 105 145 105 152 85 c 128,-1,53
 159 65 159 65 177.5 56 c 128,-1,54
 196 47 196 47 231 47 c 2,55,-1
 249 47 l 2,41,42
EndSplineSet
Substitution2: "'smcp' Lowercase to Small Capitals lookup 26 subtable" aogonek.smcp
Substitution2: "'aalt' Access All Alternates lookup 0 subtable" aogonek.smcp
EndChar

StartChar: aring
Encoding: 229 229 195
Width: 550
Flags: W
LayerCount: 3
Fore
SplineSet
232 555.5 m 128,-1,1
 213 558 213 558 193 567 c 256,2,3
 173 576 173 576 164 596 c 128,-1,4
 155 616 155 616 155 651 c 2,5,-1
 155 663 l 2,6,7
 155 700 155 700 164 721.5 c 128,-1,8
 173 743 173 743 193 753 c 0,9,10
 213 762 213 762 232 764.5 c 128,-1,11
 251 767 251 767 288 767 c 0,12,13
 318 767 318 767 334.5 765.5 c 128,-1,14
 351 764 351 764 369 759 c 0,15,16
 388 753 388 753 398 742.5 c 128,-1,17
 408 732 408 732 415 712 c 0,18,19
 422 694 422 694 422 663 c 2,20,-1
 422 651 l 2,21,22
 422 616 422 616 413.5 596 c 128,-1,23
 405 576 405 576 385 567 c 256,24,25
 365 558 365 558 345.5 555.5 c 128,-1,26
 326 553 326 553 288 553 c 0,27,0
 251 553 251 553 232 555.5 c 128,-1,1
332.5 598 m 128,-1,29
 347 601 347 601 353 611.5 c 128,-1,30
 359 622 359 622 359 644 c 2,31,-1
 359 671 l 2,32,33
 359 695 359 695 353 706.5 c 128,-1,34
 347 718 347 718 332.5 721.5 c 128,-1,35
 318 725 318 725 288 725 c 256,36,37
 258 725 258 725 244 721.5 c 128,-1,38
 230 718 230 718 224 706.5 c 128,-1,39
 218 695 218 695 218 671 c 2,40,-1
 218 644 l 2,41,42
 218 622 218 622 224 611.5 c 128,-1,43
 230 601 230 601 244 598 c 128,-1,44
 258 595 258 595 288 595 c 256,45,28
 318 595 318 595 332.5 598 c 128,-1,29
140.5 3 m 128,-1,47
 103 16 103 16 86.5 49 c 128,-1,48
 70 82 70 82 70 144 c 0,49,50
 70 199 70 199 85.5 229.5 c 128,-1,51
 101 260 101 260 138.5 273 c 128,-1,52
 176 286 176 286 245 286 c 2,53,-1
 390 286 l 1,54,-1
 390 363 l 2,55,56
 390 390 390 390 379.5 404.5 c 128,-1,57
 369 419 369 419 344.5 425 c 128,-1,58
 320 431 320 431 273 431 c 0,59,60
 198 431 198 431 107 419 c 1,61,-1
 107 485 l 1,62,63
 206 494 206 494 286 494 c 0,64,65
 370 494 370 494 410 481.5 c 128,-1,66
 450 469 450 469 465 438 c 128,-1,67
 480 407 480 407 480 342 c 2,68,-1
 480 0 l 1,69,-1
 393 0 l 1,70,-1
 393 46 l 1,71,72
 382 -10 382 -10 247 -10 c 0,73,46
 178 -10 178 -10 140.5 3 c 128,-1,47
262 49 m 2,74,75
 311 49 311 49 345 56 c 0,76,77
 390 65 390 65 390 98 c 2,78,-1
 390 230 l 1,79,-1
 251 230 l 2,80,81
 208 230 208 230 189 223.5 c 128,-1,82
 170 217 170 217 164 199 c 128,-1,83
 158 181 158 181 158 141 c 0,84,85
 158 105 158 105 165 85.5 c 128,-1,86
 172 66 172 66 190 57.5 c 128,-1,87
 208 49 208 49 244 49 c 2,88,-1
 262 49 l 2,74,75
EndSplineSet
Substitution2: "'smcp' Lowercase to Small Capitals lookup 26 subtable" aring.smcp
Substitution2: "'aalt' Access All Alternates lookup 0 subtable" aring.smcp
EndChar

StartChar: ae
Encoding: 230 230 197
Width: 550
Flags: W
LayerCount: 3
Fore
SplineSet
-20.5 2.5 m 128,-1,1
 -58.5 15 -58.5 15 -74.5 46.5 c 128,-1,2
 -90.5 78 -90.5 78 -90.5 140 c 0,3,4
 -90.5 198 -90.5 198 -75.5 229 c 128,-1,5
 -60.5 260 -60.5 260 -23.5 273 c 128,-1,6
 13.5 286 13.5 286 84.5 286 c 2,7,-1
 234.5 286 l 1,8,-1
 234.5 361 l 2,9,10
 234.5 399 234.5 399 209 415 c 128,-1,11
 183.5 431 183.5 431 120.5 431 c 0,12,13
 12.5 431 12.5 431 -53.5 414 c 1,14,-1
 -53.5 480 l 1,15,16
 24.5 494 24.5 494 132.5 494 c 0,17,18
 250.5 494 250.5 494 290.5 459 c 1,19,20
 340.5 494 340.5 494 443.5 494 c 0,21,22
 549.5 494 549.5 494 595 457.5 c 128,-1,23
 640.5 421 640.5 421 640.5 329 c 2,24,-1
 640.5 222 l 1,25,-1
 325.5 222 l 1,26,-1
 325.5 149 l 2,27,28
 325.5 99 325.5 99 358.5 77 c 128,-1,29
 391.5 55 391.5 55 463.5 55 c 0,30,31
 527.5 55 527.5 55 621.5 79 c 1,32,-1
 621.5 10 l 1,33,34
 527.5 -10 527.5 -10 448.5 -10 c 0,35,36
 321.5 -10 321.5 -10 267.5 47 c 1,37,38
 254.5 -10 254.5 -10 89.5 -10 c 0,39,0
 17.5 -10 17.5 -10 -20.5 2.5 c 128,-1,1
550.5 281 m 1,40,-1
 550.5 357 l 2,41,42
 550.5 402 550.5 402 526.5 418 c 128,-1,43
 502.5 434 502.5 434 439.5 434 c 0,44,45
 378.5 434 378.5 434 352 417.5 c 128,-1,46
 325.5 401 325.5 401 325.5 357 c 2,47,-1
 325.5 281 l 1,48,-1
 550.5 281 l 1,40,-1
135.5 48 m 128,-1,50
 153.5 49 153.5 49 173.5 52 c 0,51,52
 194.5 55 194.5 55 206 61 c 128,-1,53
 217.5 67 217.5 67 226.5 79 c 0,54,55
 234.5 92 234.5 92 234.5 109 c 2,56,-1
 234.5 230 l 1,57,-1
 90.5 230 l 2,58,59
 47.5 230 47.5 230 28.5 223.5 c 128,-1,60
 9.5 217 9.5 217 3.5 199 c 128,-1,61
 -2.5 181 -2.5 181 -2.5 141 c 0,62,63
 -2.5 102 -2.5 102 4.5 83 c 128,-1,64
 11.5 64 11.5 64 31.5 55.5 c 128,-1,65
 51.5 47 51.5 47 93.5 47 c 0,66,49
 117.5 47 117.5 47 135.5 48 c 128,-1,50
EndSplineSet
Substitution2: "'smcp' Lowercase to Small Capitals lookup 26 subtable" ae.smcp
Substitution2: "'aalt' Access All Alternates lookup 0 subtable" ae.smcp
EndChar

StartChar: b
Encoding: 98 98 198
Width: 550
Flags: W
LayerCount: 3
Fore
SplineSet
184 -4.5 m 128,-1,1
 151.5 1 151.5 1 119.5 16 c 0,2,3
 54.5 47 54.5 47 54.5 158 c 2,4,-1
 54.5 700 l 1,5,-1
 144.5 700 l 1,6,-1
 144.5 555 l 1,7,-1
 144.5 498 l 2,8,9
 143.5 472 143.5 472 143.5 440 c 1,10,11
 148.5 463 148.5 463 185.5 479 c 0,12,13
 223.5 494 223.5 494 295.5 494 c 0,14,15
 495.5 494 495.5 494 495.5 357 c 2,16,-1
 495.5 158 l 2,17,18
 495.5 115 495.5 115 483 83 c 128,-1,19
 470.5 51 470.5 51 450.5 33 c 0,20,21
 432.5 16 432.5 16 401 6 c 128,-1,22
 369.5 -4 369.5 -4 338.5 -7 c 0,23,24
 310.5 -10 310.5 -10 270.5 -10 c 0,25,0
 216.5 -10 216.5 -10 184 -4.5 c 128,-1,1
352 56.5 m 128,-1,27
 379.5 64 379.5 64 391.5 84 c 128,-1,28
 403.5 104 403.5 104 403.5 145 c 2,29,-1
 403.5 335 l 2,30,31
 403.5 376 403.5 376 391.5 396.5 c 128,-1,32
 379.5 417 379.5 417 352 423.5 c 128,-1,33
 324.5 430 324.5 430 271.5 430 c 0,34,35
 222.5 430 222.5 430 195.5 422 c 128,-1,36
 168.5 414 168.5 414 156.5 393.5 c 128,-1,37
 144.5 373 144.5 373 144.5 335 c 2,38,-1
 144.5 145 l 2,39,40
 144.5 104 144.5 104 156 84 c 128,-1,41
 167.5 64 167.5 64 194.5 56.5 c 128,-1,42
 221.5 49 221.5 49 272.5 49 c 0,43,26
 324.5 49 324.5 49 352 56.5 c 128,-1,27
EndSplineSet
Substitution2: "'smcp' Lowercase to Small Capitals lookup 26 subtable" b.smcp
Substitution2: "'aalt' Access All Alternates lookup 0 subtable" b.smcp
EndChar

StartChar: c
Encoding: 99 99 199
Width: 550
Flags: W
LayerCount: 3
Fore
SplineSet
231.5 -8 m 128,-1,1
 209 -6 209 -6 180 2 c 0,2,3
 149 10 149 10 132 26 c 128,-1,4
 115 42 115 42 103 73 c 0,5,6
 91 103 91 103 91 148 c 2,7,-1
 91 326 l 2,8,9
 91 407 91 407 122 442 c 0,10,11
 139 462 139 462 156.5 472.5 c 128,-1,12
 174 483 174 483 202 487 c 256,13,14
 230 491 230 491 252 492.5 c 128,-1,15
 274 494 274 494 314 494 c 0,16,17
 383 494 383 494 452 479 c 1,18,-1
 452 413 l 1,19,20
 372 433 372 433 303 433 c 0,21,22
 251 433 251 433 226.5 425.5 c 128,-1,23
 202 418 202 418 192.5 398.5 c 128,-1,24
 183 379 183 379 183 339 c 2,25,-1
 183 141 l 2,26,27
 183 104 183 104 193.5 86 c 128,-1,28
 204 68 204 68 231.5 60.5 c 128,-1,29
 259 53 259 53 313 53 c 0,30,31
 386 53 386 53 459 72 c 1,32,-1
 459 4 l 1,33,34
 391 -10 391 -10 304 -10 c 0,35,0
 254 -10 254 -10 231.5 -8 c 128,-1,1
EndSplineSet
Substitution2: "'smcp' Lowercase to Small Capitals lookup 26 subtable" c.smcp
Substitution2: "'aalt' Access All Alternates lookup 0 subtable" c.smcp
EndChar

StartChar: cacute
Encoding: 263 263 200
Width: 550
Flags: W
LayerCount: 3
Fore
SplineSet
330 680 m 1,0,-1
 439 680 l 1,1,-1
 314 553 l 1,2,-1
 240 553 l 1,3,-1
 330 680 l 1,0,-1
231.5 -8 m 128,-1,5
 209 -6 209 -6 180 2 c 0,6,7
 149 10 149 10 132 26 c 128,-1,8
 115 42 115 42 103 73 c 0,9,10
 91 103 91 103 91 148 c 2,11,-1
 91 326 l 2,12,13
 91 407 91 407 122 442 c 0,14,15
 139 462 139 462 156.5 472.5 c 128,-1,16
 174 483 174 483 202 487 c 256,17,18
 230 491 230 491 252 492.5 c 128,-1,19
 274 494 274 494 314 494 c 0,20,21
 383 494 383 494 452 479 c 1,22,-1
 452 413 l 1,23,24
 372 433 372 433 303 433 c 0,25,26
 251 433 251 433 226.5 425.5 c 128,-1,27
 202 418 202 418 192.5 398.5 c 128,-1,28
 183 379 183 379 183 339 c 2,29,-1
 183 141 l 2,30,31
 183 104 183 104 193.5 86 c 128,-1,32
 204 68 204 68 231.5 60.5 c 128,-1,33
 259 53 259 53 313 53 c 0,34,35
 386 53 386 53 459 72 c 1,36,-1
 459 4 l 1,37,38
 391 -10 391 -10 304 -10 c 0,39,4
 254 -10 254 -10 231.5 -8 c 128,-1,5
EndSplineSet
Substitution2: "'smcp' Lowercase to Small Capitals lookup 26 subtable" cacute.smcp
Substitution2: "'aalt' Access All Alternates lookup 0 subtable" cacute.smcp
EndChar

StartChar: ccaron
Encoding: 269 269 201
Width: 550
Flags: W
LayerCount: 3
Fore
SplineSet
176 680 m 1,0,-1
 234 680 l 1,1,-1
 297 593 l 1,2,-1
 359 680 l 1,3,-1
 417 680 l 1,4,-1
 351 553 l 1,5,-1
 244 553 l 1,6,-1
 176 680 l 1,0,-1
231.5 -8 m 128,-1,8
 209 -6 209 -6 180 2 c 0,9,10
 149 10 149 10 132 26 c 128,-1,11
 115 42 115 42 103 73 c 0,12,13
 91 103 91 103 91 148 c 2,14,-1
 91 326 l 2,15,16
 91 407 91 407 122 442 c 0,17,18
 139 462 139 462 156.5 472.5 c 128,-1,19
 174 483 174 483 202 487 c 256,20,21
 230 491 230 491 252 492.5 c 128,-1,22
 274 494 274 494 314 494 c 0,23,24
 383 494 383 494 452 479 c 1,25,-1
 452 413 l 1,26,27
 372 433 372 433 303 433 c 0,28,29
 251 433 251 433 226.5 425.5 c 128,-1,30
 202 418 202 418 192.5 398.5 c 128,-1,31
 183 379 183 379 183 339 c 2,32,-1
 183 141 l 2,33,34
 183 104 183 104 193.5 86 c 128,-1,35
 204 68 204 68 231.5 60.5 c 128,-1,36
 259 53 259 53 313 53 c 0,37,38
 386 53 386 53 459 72 c 1,39,-1
 459 4 l 1,40,41
 391 -10 391 -10 304 -10 c 0,42,7
 254 -10 254 -10 231.5 -8 c 128,-1,8
EndSplineSet
Substitution2: "'smcp' Lowercase to Small Capitals lookup 26 subtable" ccaron.smcp
Substitution2: "'aalt' Access All Alternates lookup 0 subtable" ccaron.smcp
EndChar

StartChar: ccedilla
Encoding: 231 231 202
Width: 550
Flags: W
LayerCount: 3
Fore
SplineSet
213 -201 m 1,1,-1
 234 -156 l 1,2,3
 265 -173 265 -173 292 -173 c 0,4,5
 339 -173 339 -173 339 -133 c 0,6,7
 339 -114 339 -114 317 -103 c 128,-1,8
 295 -92 295 -92 261 -92 c 2,9,-1
 228 -92 l 1,10,11
 252 -51 252 -51 272 -10 c 1,12,13
 235 -9 235 -9 212 -5.5 c 128,-1,14
 189 -2 189 -2 165 7 c 0,15,16
 140 16 140 16 125 32.5 c 128,-1,17
 110 49 110 49 101 78 c 0,18,19
 91 105 91 105 91 148 c 2,20,-1
 91 326 l 2,21,22
 91 407 91 407 122 442 c 0,23,24
 139 462 139 462 156.5 472.5 c 128,-1,25
 174 483 174 483 202 487 c 256,26,27
 230 491 230 491 252 492.5 c 128,-1,28
 274 494 274 494 314 494 c 0,29,30
 383 494 383 494 452 479 c 1,31,-1
 452 413 l 1,32,33
 372 433 372 433 303 433 c 0,34,35
 249 433 249 433 224.5 426.5 c 128,-1,36
 200 420 200 420 191.5 401 c 128,-1,37
 183 382 183 382 183 339 c 2,38,-1
 183 139 l 2,39,40
 183 102 183 102 193.5 84.5 c 128,-1,41
 204 67 204 67 231 60 c 128,-1,42
 258 53 258 53 313 53 c 0,43,44
 386 53 386 53 459 72 c 1,45,-1
 459 4 l 1,46,47
 394 -8 394 -8 335 -9 c 1,48,-1
 314 -52 l 1,49,50
 353 -53 353 -53 380 -73.5 c 128,-1,51
 407 -94 407 -94 407 -130 c 0,52,53
 407 -172 407 -172 374.5 -196 c 128,-1,54
 342 -220 342 -220 294 -220 c 0,55,0
 244 -220 244 -220 213 -201 c 1,1,-1
EndSplineSet
Substitution2: "'smcp' Lowercase to Small Capitals lookup 26 subtable" ccedilla.smcp
Substitution2: "'aalt' Access All Alternates lookup 0 subtable" ccedilla.smcp
EndChar

StartChar: ccircumflex
Encoding: 265 265 203
Width: 550
Flags: W
LayerCount: 3
Fore
SplineSet
251 680 m 1,0,-1
 358 680 l 1,1,-1
 424 553 l 1,2,-1
 366 553 l 1,3,-1
 304 640 l 1,4,-1
 241 553 l 1,5,-1
 183 553 l 1,6,-1
 251 680 l 1,0,-1
231.5 -8 m 128,-1,8
 209 -6 209 -6 180 2 c 0,9,10
 149 10 149 10 132 26 c 128,-1,11
 115 42 115 42 103 73 c 0,12,13
 91 103 91 103 91 148 c 2,14,-1
 91 326 l 2,15,16
 91 407 91 407 122 442 c 0,17,18
 139 462 139 462 156.5 472.5 c 128,-1,19
 174 483 174 483 202 487 c 256,20,21
 230 491 230 491 252 492.5 c 128,-1,22
 274 494 274 494 314 494 c 0,23,24
 383 494 383 494 452 479 c 1,25,-1
 452 413 l 1,26,27
 372 433 372 433 303 433 c 0,28,29
 251 433 251 433 226.5 425.5 c 128,-1,30
 202 418 202 418 192.5 398.5 c 128,-1,31
 183 379 183 379 183 339 c 2,32,-1
 183 141 l 2,33,34
 183 104 183 104 193.5 86 c 128,-1,35
 204 68 204 68 231.5 60.5 c 128,-1,36
 259 53 259 53 313 53 c 0,37,38
 386 53 386 53 459 72 c 1,39,-1
 459 4 l 1,40,41
 391 -10 391 -10 304 -10 c 0,42,7
 254 -10 254 -10 231.5 -8 c 128,-1,8
EndSplineSet
Substitution2: "'smcp' Lowercase to Small Capitals lookup 26 subtable" ccircumflex.smcp
Substitution2: "'aalt' Access All Alternates lookup 0 subtable" ccircumflex.smcp
EndChar

StartChar: cdotaccent
Encoding: 267 267 204
Width: 550
Flags: W
LayerCount: 3
Fore
SplineSet
257 666 m 1,0,-1
 347 666 l 1,1,-1
 347 568 l 1,2,-1
 257 568 l 1,3,-1
 257 666 l 1,0,-1
231.5 -8 m 128,-1,5
 209 -6 209 -6 180 2 c 0,6,7
 149 10 149 10 132 26 c 128,-1,8
 115 42 115 42 103 73 c 0,9,10
 91 103 91 103 91 148 c 2,11,-1
 91 326 l 2,12,13
 91 407 91 407 122 442 c 0,14,15
 139 462 139 462 156.5 472.5 c 128,-1,16
 174 483 174 483 202 487 c 256,17,18
 230 491 230 491 252 492.5 c 128,-1,19
 274 494 274 494 314 494 c 0,20,21
 383 494 383 494 452 479 c 1,22,-1
 452 413 l 1,23,24
 372 433 372 433 303 433 c 0,25,26
 251 433 251 433 226.5 425.5 c 128,-1,27
 202 418 202 418 192.5 398.5 c 128,-1,28
 183 379 183 379 183 339 c 2,29,-1
 183 141 l 2,30,31
 183 104 183 104 193.5 86 c 128,-1,32
 204 68 204 68 231.5 60.5 c 128,-1,33
 259 53 259 53 313 53 c 0,34,35
 386 53 386 53 459 72 c 1,36,-1
 459 4 l 1,37,38
 391 -10 391 -10 304 -10 c 0,39,4
 254 -10 254 -10 231.5 -8 c 128,-1,5
EndSplineSet
Substitution2: "'smcp' Lowercase to Small Capitals lookup 26 subtable" cdotaccent.smcp
Substitution2: "'aalt' Access All Alternates lookup 0 subtable" cdotaccent.smcp
EndChar

StartChar: d
Encoding: 100 100 205
Width: 550
GlyphClass: 2
Flags: W
AnchorPoint: "Anchor-12" -5.5 0 basechar 0
AnchorPoint: "Anchor-11" 545.5 484 basechar 0
AnchorPoint: "Anchor-10" 387.5 590 basechar 0
AnchorPoint: "Anchor-9" 280.5 484 basechar 0
AnchorPoint: "Anchor-8" 280.5 0 basechar 0
LayerCount: 3
Fore
SplineSet
132.5 4.5 m 128,-1,1
 91.5 19 91.5 19 73 52 c 128,-1,2
 54.5 85 54.5 85 54.5 144 c 2,3,-1
 54.5 357 l 2,4,5
 54.5 430 54.5 430 100 462 c 128,-1,6
 145.5 494 145.5 494 250.5 494 c 0,7,8
 313.5 494 313.5 494 359 478 c 128,-1,9
 404.5 462 404.5 462 405.5 432 c 1,10,-1
 407.5 432 l 1,11,-1
 405.5 555 l 1,12,-1
 405.5 700 l 1,13,-1
 495.5 700 l 1,14,-1
 495.5 0 l 1,15,-1
 407.5 0 l 1,16,-1
 407.5 57 l 1,17,18
 407.5 30 407.5 30 364.5 11 c 0,19,20
 321.5 -10 321.5 -10 245.5 -10 c 0,21,0
 173.5 -10 173.5 -10 132.5 4.5 c 128,-1,1
372.5 69 m 128,-1,23
 405.5 86 405.5 86 405.5 127 c 2,24,-1
 405.5 366 l 2,25,26
 405.5 431 405.5 431 272.5 431 c 0,27,28
 192.5 431 192.5 431 168.5 419 c 0,29,30
 143.5 407 143.5 407 143.5 366 c 2,31,-1
 143.5 127 l 2,32,33
 143.5 86 143.5 86 171 69 c 128,-1,34
 198.5 52 198.5 52 264.5 52 c 0,35,22
 339.5 52 339.5 52 372.5 69 c 128,-1,23
EndSplineSet
Substitution2: "'smcp' Lowercase to Small Capitals lookup 26 subtable" d.smcp
Substitution2: "'aalt' Access All Alternates lookup 0 subtable" d.smcp
EndChar

StartChar: eth
Encoding: 240 240 206
Width: 550
Flags: W
LayerCount: 3
Fore
SplineSet
191.5 -7.5 m 128,-1,1
 164 -5 164 -5 135 3 c 0,2,3
 105 12 105 12 89.5 28.5 c 128,-1,4
 74 45 74 45 64 77 c 0,5,6
 54 106 54 106 54 153 c 2,7,-1
 54 321 l 2,8,9
 54 408 54 408 90 451 c 0,10,11
 105 468 105 468 134 478 c 128,-1,12
 163 488 163 488 197 491 c 0,13,14
 227 494 227 494 275 494 c 0,15,16
 336 494 336 494 368 490 c 1,17,18
 335 552 335 552 297 599 c 1,19,-1
 181 565 l 1,20,-1
 181 622 l 1,21,-1
 257 645 l 1,22,23
 246 658 246 658 204 700 c 1,24,-1
 310 700 l 1,25,-1
 341 670 l 1,26,-1
 442 700 l 1,27,-1
 442 643 l 1,28,-1
 381 625 l 1,29,30
 496 486 496 486 496 321 c 2,31,-1
 496 153 l 2,32,33
 496 69 496 69 461 29 c 0,34,35
 446 13 446 13 416.5 4 c 128,-1,36
 387 -5 387 -5 354 -8 c 0,37,38
 316 -10 316 -10 275 -10 c 0,39,0
 219 -10 219 -10 191.5 -7.5 c 128,-1,1
355.5 54.5 m 128,-1,41
 382 61 382 61 394 80 c 128,-1,42
 406 99 406 99 406 140 c 2,43,-1
 406 336 l 2,44,45
 406 381 406 381 395 402 c 128,-1,46
 384 423 384 423 357.5 429.5 c 128,-1,47
 331 436 331 436 275 436 c 256,48,49
 219 436 219 436 192.5 429.5 c 128,-1,50
 166 423 166 423 155 402 c 128,-1,51
 144 381 144 381 144 336 c 2,52,-1
 144 140 l 2,53,54
 144 99 144 99 156 80 c 128,-1,55
 168 61 168 61 194.5 54.5 c 128,-1,56
 221 48 221 48 275 48 c 256,57,40
 329 48 329 48 355.5 54.5 c 128,-1,41
EndSplineSet
Substitution2: "'smcp' Lowercase to Small Capitals lookup 26 subtable" eth.smcp
Substitution2: "'aalt' Access All Alternates lookup 0 subtable" eth.smcp
EndChar

StartChar: dcaron
Encoding: 271 271 207
Width: 550
Flags: W
LayerCount: 3
Fore
SplineSet
31.5 4.5 m 128,-1,1
 -9.5 19 -9.5 19 -28 52 c 128,-1,2
 -46.5 85 -46.5 85 -46.5 144 c 2,3,-1
 -46.5 357 l 2,4,5
 -46.5 430 -46.5 430 -1 462 c 128,-1,6
 44.5 494 44.5 494 149.5 494 c 0,7,8
 212.5 494 212.5 494 258 478 c 128,-1,9
 303.5 462 303.5 462 304.5 432 c 1,10,-1
 306.5 432 l 1,11,-1
 304.5 555 l 1,12,-1
 304.5 693 l 1,13,-1
 394.5 693 l 1,14,-1
 394.5 0 l 1,15,-1
 306.5 0 l 1,16,-1
 306.5 57 l 1,17,18
 306.5 30 306.5 30 263.5 11 c 0,19,20
 220.5 -10 220.5 -10 144.5 -10 c 0,21,0
 72.5 -10 72.5 -10 31.5 4.5 c 128,-1,1
502.5 679 m 1,22,-1
 596.5 679 l 1,23,-1
 513.5 529 l 1,24,-1
 456.5 529 l 1,25,-1
 502.5 679 l 1,22,-1
271.5 69 m 128,-1,27
 304.5 86 304.5 86 304.5 127 c 2,28,-1
 304.5 366 l 2,29,30
 304.5 431 304.5 431 171.5 431 c 0,31,32
 91.5 431 91.5 431 67.5 419 c 0,33,34
 42.5 407 42.5 407 42.5 366 c 2,35,-1
 42.5 127 l 2,36,37
 42.5 86 42.5 86 70 69 c 128,-1,38
 97.5 52 97.5 52 163.5 52 c 0,39,26
 238.5 52 238.5 52 271.5 69 c 128,-1,27
EndSplineSet
Substitution2: "'smcp' Lowercase to Small Capitals lookup 26 subtable" dcaron.smcp
Substitution2: "'aalt' Access All Alternates lookup 0 subtable" dcaron.smcp
EndChar

StartChar: dcroat
Encoding: 273 273 208
Width: 550
GlyphClass: 2
Flags: W
AnchorPoint: "Anchor-12" -35 0 basechar 0
AnchorPoint: "Anchor-11" 516 484 basechar 0
AnchorPoint: "Anchor-10" 358 590 basechar 0
AnchorPoint: "Anchor-9" 251 484 basechar 0
AnchorPoint: "Anchor-8" 251 0 basechar 0
LayerCount: 3
Fore
SplineSet
525 553 m 1,0,-1
 466 553 l 1,1,-1
 466 0 l 1,2,-1
 378 0 l 1,3,-1
 378 57 l 1,4,5
 378 30 378 30 335 11 c 0,6,7
 292 -10 292 -10 216 -10 c 0,8,9
 144 -10 144 -10 103 4.5 c 128,-1,10
 62 19 62 19 43.5 52 c 128,-1,11
 25 85 25 85 25 144 c 2,12,-1
 25 357 l 2,13,14
 25 430 25 430 70.5 462 c 128,-1,15
 116 494 116 494 221 494 c 0,16,17
 284 494 284 494 329.5 478 c 128,-1,18
 375 462 375 462 376 432 c 1,19,-1
 378 432 l 1,20,-1
 376 553 l 1,21,-1
 266 553 l 1,22,-1
 266 605 l 1,23,-1
 376 605 l 1,24,-1
 376 700 l 1,25,-1
 466 700 l 1,26,-1
 466 605 l 1,27,-1
 525 605 l 1,28,-1
 525 553 l 1,0,-1
376 366 m 2,29,30
 376 431 376 431 243 431 c 0,31,32
 163 431 163 431 139 419 c 0,33,34
 114 407 114 407 114 366 c 2,35,-1
 114 127 l 2,36,37
 114 86 114 86 141.5 69 c 128,-1,38
 169 52 169 52 235 52 c 0,39,40
 310 52 310 52 343 69 c 128,-1,41
 376 86 376 86 376 127 c 2,42,-1
 376 366 l 2,29,30
EndSplineSet
Substitution2: "'smcp' Lowercase to Small Capitals lookup 26 subtable" dcroat.smcp
Substitution2: "'aalt' Access All Alternates lookup 0 subtable" dcroat.smcp
EndChar

StartChar: e
Encoding: 101 101 209
Width: 550
GlyphClass: 2
Flags: W
AnchorPoint: "Anchor-12" 7 0 basechar 0
AnchorPoint: "Anchor-11" 7 0 basechar 0
AnchorPoint: "Anchor-10" 7 0 basechar 0
AnchorPoint: "Anchor-9" 275 484 basechar 0
AnchorPoint: "Anchor-8" 275 0 basechar 0
LayerCount: 3
Fore
SplineSet
67 138 m 2,1,-1
 67 329 l 2,2,3
 67 417 67 417 117.5 455.5 c 128,-1,4
 168 494 168 494 281 494 c 0,5,6
 388 494 388 494 435.5 457 c 128,-1,7
 483 420 483 420 483 329 c 2,8,-1
 483 222 l 1,9,-1
 158 222 l 1,10,-1
 158 149 l 2,11,12
 158 99 158 99 193 77 c 128,-1,13
 228 55 228 55 301 55 c 0,14,15
 370 55 370 55 464 79 c 1,16,-1
 464 10 l 1,17,18
 372 -10 372 -10 289 -10 c 0,19,0
 67 -10 67 -10 67 138 c 2,1,-1
393 281 m 1,20,-1
 393 357 l 2,21,22
 393 401 393 401 366.5 417.5 c 128,-1,23
 340 434 340 434 276 434 c 0,24,25
 214 434 214 434 186 417.5 c 128,-1,26
 158 401 158 401 158 357 c 2,27,-1
 158 281 l 1,28,-1
 393 281 l 1,20,-1
EndSplineSet
Substitution2: "'smcp' Lowercase to Small Capitals lookup 26 subtable" e.smcp
Substitution2: "'aalt' Access All Alternates lookup 0 subtable" e.smcp
EndChar

StartChar: ebreve
Encoding: 277 277 211
Width: 550
Flags: W
LayerCount: 3
Fore
SplineSet
200.5 587.5 m 128,-1,1
 169 622 169 622 167 680 c 1,2,-1
 221 680 l 1,3,4
 227 612 227 612 285 612 c 256,5,6
 343 612 343 612 349 680 c 1,7,-1
 403 680 l 1,8,9
 402 623 402 623 370 588 c 256,10,11
 338 553 338 553 285 553 c 256,12,0
 232 553 232 553 200.5 587.5 c 128,-1,1
67 138 m 2,14,-1
 67 329 l 2,15,16
 67 417 67 417 117.5 455.5 c 128,-1,17
 168 494 168 494 281 494 c 0,18,19
 388 494 388 494 435.5 457 c 128,-1,20
 483 420 483 420 483 329 c 2,21,-1
 483 222 l 1,22,-1
 158 222 l 1,23,-1
 158 149 l 2,24,25
 158 99 158 99 193 77 c 128,-1,26
 228 55 228 55 301 55 c 0,27,28
 370 55 370 55 464 79 c 1,29,-1
 464 10 l 1,30,31
 372 -10 372 -10 289 -10 c 0,32,13
 67 -10 67 -10 67 138 c 2,14,-1
393 281 m 1,33,-1
 393 357 l 2,34,35
 393 401 393 401 366.5 417.5 c 128,-1,36
 340 434 340 434 276 434 c 0,37,38
 214 434 214 434 186 417.5 c 128,-1,39
 158 401 158 401 158 357 c 2,40,-1
 158 281 l 1,41,-1
 393 281 l 1,33,-1
EndSplineSet
Substitution2: "'smcp' Lowercase to Small Capitals lookup 26 subtable" ebreve.smcp
Substitution2: "'aalt' Access All Alternates lookup 0 subtable" ebreve.smcp
EndChar

StartChar: ecaron
Encoding: 283 283 212
Width: 550
Flags: W
LayerCount: 3
Fore
SplineSet
157 680 m 1,0,-1
 215 680 l 1,1,-1
 278 593 l 1,2,-1
 340 680 l 1,3,-1
 398 680 l 1,4,-1
 332 553 l 1,5,-1
 225 553 l 1,6,-1
 157 680 l 1,0,-1
67 138 m 2,8,-1
 67 329 l 2,9,10
 67 417 67 417 117.5 455.5 c 128,-1,11
 168 494 168 494 281 494 c 0,12,13
 388 494 388 494 435.5 457 c 128,-1,14
 483 420 483 420 483 329 c 2,15,-1
 483 222 l 1,16,-1
 158 222 l 1,17,-1
 158 149 l 2,18,19
 158 99 158 99 193 77 c 128,-1,20
 228 55 228 55 301 55 c 0,21,22
 370 55 370 55 464 79 c 1,23,-1
 464 10 l 1,24,25
 372 -10 372 -10 289 -10 c 0,26,7
 67 -10 67 -10 67 138 c 2,8,-1
393 281 m 1,27,-1
 393 357 l 2,28,29
 393 401 393 401 366.5 417.5 c 128,-1,30
 340 434 340 434 276 434 c 0,31,32
 214 434 214 434 186 417.5 c 128,-1,33
 158 401 158 401 158 357 c 2,34,-1
 158 281 l 1,35,-1
 393 281 l 1,27,-1
EndSplineSet
Substitution2: "'smcp' Lowercase to Small Capitals lookup 26 subtable" ecaron.smcp
Substitution2: "'aalt' Access All Alternates lookup 0 subtable" ecaron.smcp
EndChar

StartChar: uni1EBF
Encoding: 7871 7871 214
Width: 550
GlyphClass: 2
Flags: W
AnchorPoint: "Anchor-12" -15.5 0 basechar 0
AnchorPoint: "Anchor-11" -15.5 0 basechar 0
AnchorPoint: "Anchor-10" -15.5 0 basechar 0
AnchorPoint: "Anchor-9" 456.5 753 basechar 0
AnchorPoint: "Anchor-8" 252.5 0 basechar 0
LayerCount: 3
Fore
SplineSet
396.5 722 m 1,0,-1
 505.5 722 l 1,1,-1
 430.5 626 l 1,2,-1
 356.5 626 l 1,3,-1
 396.5 722 l 1,0,-1
199.5 680 m 1,4,-1
 306.5 680 l 1,5,-1
 372.5 553 l 1,6,-1
 314.5 553 l 1,7,-1
 252.5 640 l 1,8,-1
 189.5 553 l 1,9,-1
 131.5 553 l 1,10,-1
 199.5 680 l 1,4,-1
44.5 138 m 2,12,-1
 44.5 329 l 2,13,14
 44.5 417 44.5 417 95 455.5 c 128,-1,15
 145.5 494 145.5 494 258.5 494 c 0,16,17
 365.5 494 365.5 494 413 457 c 128,-1,18
 460.5 420 460.5 420 460.5 329 c 2,19,-1
 460.5 222 l 1,20,-1
 135.5 222 l 1,21,-1
 135.5 149 l 2,22,23
 135.5 99 135.5 99 170.5 77 c 128,-1,24
 205.5 55 205.5 55 278.5 55 c 0,25,26
 347.5 55 347.5 55 441.5 79 c 1,27,-1
 441.5 10 l 1,28,29
 349.5 -10 349.5 -10 266.5 -10 c 0,30,11
 44.5 -10 44.5 -10 44.5 138 c 2,12,-1
370.5 281 m 1,31,-1
 370.5 357 l 2,32,33
 370.5 401 370.5 401 344 417.5 c 128,-1,34
 317.5 434 317.5 434 253.5 434 c 0,35,36
 191.5 434 191.5 434 163.5 417.5 c 128,-1,37
 135.5 401 135.5 401 135.5 357 c 2,38,-1
 135.5 281 l 1,39,-1
 370.5 281 l 1,31,-1
EndSplineSet
EndChar

StartChar: uni1EC1
Encoding: 7873 7873 216
Width: 550
GlyphClass: 2
Flags: W
AnchorPoint: "Anchor-12" 6 0 basechar 0
AnchorPoint: "Anchor-11" 6 0 basechar 0
AnchorPoint: "Anchor-10" 6 0 basechar 0
AnchorPoint: "Anchor-9" 350 773 basechar 0
AnchorPoint: "Anchor-8" 274 0 basechar 0
LayerCount: 3
Fore
SplineSet
344 742 m 1,0,-1
 453 742 l 1,1,-1
 484 646 l 1,2,-1
 410 646 l 1,3,-1
 344 742 l 1,0,-1
221 680 m 1,4,-1
 328 680 l 1,5,-1
 394 553 l 1,6,-1
 336 553 l 1,7,-1
 274 640 l 1,8,-1
 211 553 l 1,9,-1
 153 553 l 1,10,-1
 221 680 l 1,4,-1
66 138 m 2,12,-1
 66 329 l 2,13,14
 66 417 66 417 116.5 455.5 c 128,-1,15
 167 494 167 494 280 494 c 0,16,17
 387 494 387 494 434.5 457 c 128,-1,18
 482 420 482 420 482 329 c 2,19,-1
 482 222 l 1,20,-1
 157 222 l 1,21,-1
 157 149 l 2,22,23
 157 99 157 99 192 77 c 128,-1,24
 227 55 227 55 300 55 c 0,25,26
 369 55 369 55 463 79 c 1,27,-1
 463 10 l 1,28,29
 371 -10 371 -10 288 -10 c 0,30,11
 66 -10 66 -10 66 138 c 2,12,-1
392 281 m 1,31,-1
 392 357 l 2,32,33
 392 401 392 401 365.5 417.5 c 128,-1,34
 339 434 339 434 275 434 c 0,35,36
 213 434 213 434 185 417.5 c 128,-1,37
 157 401 157 401 157 357 c 2,38,-1
 157 281 l 1,39,-1
 392 281 l 1,31,-1
EndSplineSet
EndChar

StartChar: edieresis
Encoding: 235 235 219
Width: 550
Flags: W
LayerCount: 3
Fore
SplineSet
137 659 m 1,0,-1
 227 659 l 1,1,-1
 227 565 l 1,2,-1
 137 565 l 1,3,-1
 137 659 l 1,0,-1
307 659 m 1,4,-1
 397 659 l 1,5,-1
 397 565 l 1,6,-1
 307 565 l 1,7,-1
 307 659 l 1,4,-1
67 138 m 2,9,-1
 67 329 l 2,10,11
 67 417 67 417 117.5 455.5 c 128,-1,12
 168 494 168 494 281 494 c 0,13,14
 388 494 388 494 435.5 457 c 128,-1,15
 483 420 483 420 483 329 c 2,16,-1
 483 222 l 1,17,-1
 158 222 l 1,18,-1
 158 149 l 2,19,20
 158 99 158 99 193 77 c 128,-1,21
 228 55 228 55 301 55 c 0,22,23
 370 55 370 55 464 79 c 1,24,-1
 464 10 l 1,25,26
 372 -10 372 -10 289 -10 c 0,27,8
 67 -10 67 -10 67 138 c 2,9,-1
393 281 m 1,28,-1
 393 357 l 2,29,30
 393 401 393 401 366.5 417.5 c 128,-1,31
 340 434 340 434 276 434 c 0,32,33
 214 434 214 434 186 417.5 c 128,-1,34
 158 401 158 401 158 357 c 2,35,-1
 158 281 l 1,36,-1
 393 281 l 1,28,-1
EndSplineSet
Substitution2: "'smcp' Lowercase to Small Capitals lookup 26 subtable" edieresis.smcp
Substitution2: "'aalt' Access All Alternates lookup 0 subtable" edieresis.smcp
EndChar

StartChar: edotaccent
Encoding: 279 279 220
Width: 550
Flags: W
LayerCount: 3
Fore
SplineSet
233 666 m 1,0,-1
 323 666 l 1,1,-1
 323 568 l 1,2,-1
 233 568 l 1,3,-1
 233 666 l 1,0,-1
67 138 m 2,5,-1
 67 329 l 2,6,7
 67 417 67 417 117.5 455.5 c 128,-1,8
 168 494 168 494 281 494 c 0,9,10
 388 494 388 494 435.5 457 c 128,-1,11
 483 420 483 420 483 329 c 2,12,-1
 483 222 l 1,13,-1
 158 222 l 1,14,-1
 158 149 l 2,15,16
 158 99 158 99 193 77 c 128,-1,17
 228 55 228 55 301 55 c 0,18,19
 370 55 370 55 464 79 c 1,20,-1
 464 10 l 1,21,22
 372 -10 372 -10 289 -10 c 0,23,4
 67 -10 67 -10 67 138 c 2,5,-1
393 281 m 1,24,-1
 393 357 l 2,25,26
 393 401 393 401 366.5 417.5 c 128,-1,27
 340 434 340 434 276 434 c 0,28,29
 214 434 214 434 186 417.5 c 128,-1,30
 158 401 158 401 158 357 c 2,31,-1
 158 281 l 1,32,-1
 393 281 l 1,24,-1
EndSplineSet
Substitution2: "'smcp' Lowercase to Small Capitals lookup 26 subtable" edotaccent.smcp
Substitution2: "'aalt' Access All Alternates lookup 0 subtable" edotaccent.smcp
EndChar

StartChar: emacron
Encoding: 275 275 224
Width: 550
Flags: W
LayerCount: 3
Fore
SplineSet
161 647 m 1,0,-1
 402 647 l 1,1,-1
 402 584 l 1,2,-1
 161 584 l 1,3,-1
 161 647 l 1,0,-1
67 138 m 2,5,-1
 67 329 l 2,6,7
 67 417 67 417 117.5 455.5 c 128,-1,8
 168 494 168 494 281 494 c 0,9,10
 388 494 388 494 435.5 457 c 128,-1,11
 483 420 483 420 483 329 c 2,12,-1
 483 222 l 1,13,-1
 158 222 l 1,14,-1
 158 149 l 2,15,16
 158 99 158 99 193 77 c 128,-1,17
 228 55 228 55 301 55 c 0,18,19
 370 55 370 55 464 79 c 1,20,-1
 464 10 l 1,21,22
 372 -10 372 -10 289 -10 c 0,23,4
 67 -10 67 -10 67 138 c 2,5,-1
393 281 m 1,24,-1
 393 357 l 2,25,26
 393 401 393 401 366.5 417.5 c 128,-1,27
 340 434 340 434 276 434 c 0,28,29
 214 434 214 434 186 417.5 c 128,-1,30
 158 401 158 401 158 357 c 2,31,-1
 158 281 l 1,32,-1
 393 281 l 1,24,-1
EndSplineSet
Substitution2: "'smcp' Lowercase to Small Capitals lookup 26 subtable" emacron.smcp
Substitution2: "'aalt' Access All Alternates lookup 0 subtable" emacron.smcp
EndChar

StartChar: eogonek
Encoding: 281 281 225
Width: 550
Flags: W
LayerCount: 3
Fore
SplineSet
285.5 -167 m 128,-1,1
 261 -148 261 -148 261 -106 c 0,2,3
 261 -59 261 -59 290 -10 c 1,4,-1
 277 -10 l 2,5,6
 180 -10 180 -10 123.5 27 c 128,-1,7
 67 64 67 64 67 138 c 2,8,-1
 67 329 l 2,9,10
 67 417 67 417 117.5 455.5 c 128,-1,11
 168 494 168 494 281 494 c 0,12,13
 388 494 388 494 435.5 457 c 128,-1,14
 483 420 483 420 483 329 c 2,15,-1
 483 222 l 1,16,-1
 158 222 l 1,17,-1
 158 149 l 2,18,19
 158 99 158 99 193.5 77 c 128,-1,20
 229 55 229 55 305 55 c 0,21,22
 370 55 370 55 464 79 c 1,23,-1
 464 10 l 1,24,25
 414 -1 414 -1 368 -6 c 1,26,27
 340 -52 340 -52 340 -97 c 0,28,29
 340 -130 340 -130 379 -130 c 0,30,31
 389 -130 389 -130 410 -123 c 1,32,-1
 410 -176 l 1,33,34
 390 -186 390 -186 360 -186 c 0,35,0
 310 -186 310 -186 285.5 -167 c 128,-1,1
393 281 m 1,36,-1
 393 357 l 2,37,38
 393 400 393 400 367 417 c 128,-1,39
 341 434 341 434 279 434 c 0,40,41
 214 434 214 434 186 417.5 c 128,-1,42
 158 401 158 401 158 357 c 2,43,-1
 158 281 l 1,44,-1
 393 281 l 1,36,-1
EndSplineSet
Substitution2: "'smcp' Lowercase to Small Capitals lookup 26 subtable" eogonek.smcp
Substitution2: "'aalt' Access All Alternates lookup 0 subtable" eogonek.smcp
EndChar

StartChar: f
Encoding: 102 102 227
Width: 550
Flags: W
LayerCount: 3
Fore
SplineSet
200 425 m 1,0,-1
 89 425 l 1,1,-1
 89 484 l 1,2,-1
 200 484 l 1,3,-1
 200 562 l 2,4,5
 200 641 200 641 244.5 675.5 c 128,-1,6
 289 710 289 710 380 710 c 0,7,8
 414 710 414 710 461 705 c 1,9,-1
 461 646 l 1,10,11
 423 651 423 651 383 651 c 0,12,13
 333 651 333 651 311.5 633 c 128,-1,14
 290 615 290 615 290 568 c 2,15,-1
 290 484 l 1,16,-1
 451 484 l 1,17,-1
 451 425 l 1,18,-1
 290 425 l 1,19,-1
 290 0 l 1,20,-1
 200 0 l 1,21,-1
 200 425 l 1,0,-1
EndSplineSet
Substitution2: "'smcp' Lowercase to Small Capitals lookup 26 subtable" f.smcp
Substitution2: "'aalt' Access All Alternates lookup 0 subtable" f.smcp
EndChar

StartChar: g
Encoding: 103 103 228
Width: 550
Flags: W
LayerCount: 3
Fore
SplineSet
93.5 -209 m 1,1,-1
 93.5 -145 l 1,2,3
 213.5 -159 213.5 -159 268.5 -159 c 0,4,5
 337.5 -159 337.5 -159 369 -137 c 128,-1,6
 400.5 -115 400.5 -115 400.5 -64 c 2,7,-1
 400.5 52 l 1,8,9
 398.5 20 398.5 20 357 5 c 128,-1,10
 315.5 -10 315.5 -10 252.5 -10 c 0,11,12
 177.5 -10 177.5 -10 136 4 c 128,-1,13
 94.5 18 94.5 18 77 50 c 128,-1,14
 59.5 82 59.5 82 59.5 137 c 2,15,-1
 59.5 334 l 2,16,17
 59.5 420 59.5 420 106 457 c 128,-1,18
 152.5 494 152.5 494 258.5 494 c 0,19,20
 384.5 494 384.5 494 406.5 437 c 1,21,-1
 406.5 484 l 1,22,-1
 490.5 484 l 1,23,-1
 490.5 -46 l 2,24,25
 490.5 -113 490.5 -113 465.5 -151 c 128,-1,26
 440.5 -189 440.5 -189 390.5 -204.5 c 128,-1,27
 340.5 -220 340.5 -220 260.5 -220 c 0,28,0
 161.5 -220 161.5 -220 93.5 -209 c 1,1,-1
371.5 67 m 128,-1,30
 400.5 84 400.5 84 400.5 131 c 2,31,-1
 400.5 350 l 2,32,33
 400.5 383 400.5 383 390 400 c 128,-1,34
 379.5 417 379.5 417 351.5 424.5 c 128,-1,35
 323.5 432 323.5 432 269.5 432 c 0,36,37
 218.5 432 218.5 432 193 425 c 128,-1,38
 167.5 418 167.5 418 158 400.5 c 128,-1,39
 148.5 383 148.5 383 148.5 350 c 2,40,-1
 148.5 131 l 2,41,42
 148.5 97 148.5 97 158.5 80 c 128,-1,43
 168.5 63 168.5 63 194.5 56.5 c 128,-1,44
 220.5 50 220.5 50 271.5 50 c 0,45,29
 342.5 50 342.5 50 371.5 67 c 128,-1,30
EndSplineSet
Substitution2: "'smcp' Lowercase to Small Capitals lookup 26 subtable" g.smcp
Substitution2: "'aalt' Access All Alternates lookup 0 subtable" g.smcp
EndChar

StartChar: gbreve
Encoding: 287 287 229
Width: 550
Flags: W
LayerCount: 3
Fore
SplineSet
180 587.5 m 128,-1,1
 148.5 622 148.5 622 146.5 680 c 1,2,-1
 200.5 680 l 1,3,4
 206.5 612 206.5 612 264.5 612 c 256,5,6
 322.5 612 322.5 612 328.5 680 c 1,7,-1
 382.5 680 l 1,8,9
 381.5 623 381.5 623 349.5 588 c 256,10,11
 317.5 553 317.5 553 264.5 553 c 256,12,0
 211.5 553 211.5 553 180 587.5 c 128,-1,1
93.5 -209 m 1,14,-1
 93.5 -145 l 1,15,16
 213.5 -159 213.5 -159 268.5 -159 c 0,17,18
 337.5 -159 337.5 -159 369 -137 c 128,-1,19
 400.5 -115 400.5 -115 400.5 -64 c 2,20,-1
 400.5 52 l 1,21,22
 398.5 20 398.5 20 357 5 c 128,-1,23
 315.5 -10 315.5 -10 252.5 -10 c 0,24,25
 177.5 -10 177.5 -10 136 4 c 128,-1,26
 94.5 18 94.5 18 77 50 c 128,-1,27
 59.5 82 59.5 82 59.5 137 c 2,28,-1
 59.5 334 l 2,29,30
 59.5 420 59.5 420 106 457 c 128,-1,31
 152.5 494 152.5 494 258.5 494 c 0,32,33
 384.5 494 384.5 494 406.5 437 c 1,34,-1
 406.5 484 l 1,35,-1
 490.5 484 l 1,36,-1
 490.5 -46 l 2,37,38
 490.5 -113 490.5 -113 465.5 -151 c 128,-1,39
 440.5 -189 440.5 -189 390.5 -204.5 c 128,-1,40
 340.5 -220 340.5 -220 260.5 -220 c 0,41,13
 161.5 -220 161.5 -220 93.5 -209 c 1,14,-1
371.5 67 m 128,-1,43
 400.5 84 400.5 84 400.5 131 c 2,44,-1
 400.5 350 l 2,45,46
 400.5 383 400.5 383 390 400 c 128,-1,47
 379.5 417 379.5 417 351.5 424.5 c 128,-1,48
 323.5 432 323.5 432 269.5 432 c 0,49,50
 218.5 432 218.5 432 193 425 c 128,-1,51
 167.5 418 167.5 418 158 400.5 c 128,-1,52
 148.5 383 148.5 383 148.5 350 c 2,53,-1
 148.5 131 l 2,54,55
 148.5 97 148.5 97 158.5 80 c 128,-1,56
 168.5 63 168.5 63 194.5 56.5 c 128,-1,57
 220.5 50 220.5 50 271.5 50 c 0,58,42
 342.5 50 342.5 50 371.5 67 c 128,-1,43
EndSplineSet
Substitution2: "'smcp' Lowercase to Small Capitals lookup 26 subtable" gbreve.smcp
Substitution2: "'aalt' Access All Alternates lookup 0 subtable" gbreve.smcp
EndChar

StartChar: gcircumflex
Encoding: 285 285 230
Width: 550
Flags: W
LayerCount: 3
Fore
SplineSet
225.5 680 m 1,0,-1
 332.5 680 l 1,1,-1
 398.5 553 l 1,2,-1
 340.5 553 l 1,3,-1
 278.5 640 l 1,4,-1
 215.5 553 l 1,5,-1
 157.5 553 l 1,6,-1
 225.5 680 l 1,0,-1
93.5 -209 m 1,8,-1
 93.5 -145 l 1,9,10
 213.5 -159 213.5 -159 268.5 -159 c 0,11,12
 337.5 -159 337.5 -159 369 -137 c 128,-1,13
 400.5 -115 400.5 -115 400.5 -64 c 2,14,-1
 400.5 52 l 1,15,16
 398.5 20 398.5 20 357 5 c 128,-1,17
 315.5 -10 315.5 -10 252.5 -10 c 0,18,19
 177.5 -10 177.5 -10 136 4 c 128,-1,20
 94.5 18 94.5 18 77 50 c 128,-1,21
 59.5 82 59.5 82 59.5 137 c 2,22,-1
 59.5 334 l 2,23,24
 59.5 420 59.5 420 106 457 c 128,-1,25
 152.5 494 152.5 494 258.5 494 c 0,26,27
 384.5 494 384.5 494 406.5 437 c 1,28,-1
 406.5 484 l 1,29,-1
 490.5 484 l 1,30,-1
 490.5 -46 l 2,31,32
 490.5 -113 490.5 -113 465.5 -151 c 128,-1,33
 440.5 -189 440.5 -189 390.5 -204.5 c 128,-1,34
 340.5 -220 340.5 -220 260.5 -220 c 0,35,7
 161.5 -220 161.5 -220 93.5 -209 c 1,8,-1
371.5 67 m 128,-1,37
 400.5 84 400.5 84 400.5 131 c 2,38,-1
 400.5 350 l 2,39,40
 400.5 383 400.5 383 390 400 c 128,-1,41
 379.5 417 379.5 417 351.5 424.5 c 128,-1,42
 323.5 432 323.5 432 269.5 432 c 0,43,44
 218.5 432 218.5 432 193 425 c 128,-1,45
 167.5 418 167.5 418 158 400.5 c 128,-1,46
 148.5 383 148.5 383 148.5 350 c 2,47,-1
 148.5 131 l 2,48,49
 148.5 97 148.5 97 158.5 80 c 128,-1,50
 168.5 63 168.5 63 194.5 56.5 c 128,-1,51
 220.5 50 220.5 50 271.5 50 c 0,52,36
 342.5 50 342.5 50 371.5 67 c 128,-1,37
EndSplineSet
Substitution2: "'smcp' Lowercase to Small Capitals lookup 26 subtable" gcircumflex.smcp
Substitution2: "'aalt' Access All Alternates lookup 0 subtable" gcircumflex.smcp
EndChar

StartChar: gcommaaccent
Encoding: 291 291 231
Width: 550
Flags: W
LayerCount: 3
Fore
SplineSet
287.5 689 m 1,0,-1
 381.5 689 l 1,1,-1
 298.5 539 l 1,2,-1
 241.5 539 l 1,3,-1
 287.5 689 l 1,0,-1
93.5 -179 m 1,5,-1
 93.5 -115 l 1,6,7
 213.5 -129 213.5 -129 268.5 -129 c 0,8,9
 339.5 -129 339.5 -129 373 -106.5 c 128,-1,10
 406.5 -84 406.5 -84 406.5 -34 c 2,11,-1
 406.5 52 l 1,12,13
 404.5 20 404.5 20 360.5 5 c 128,-1,14
 316.5 -10 316.5 -10 252.5 -10 c 0,15,16
 177.5 -10 177.5 -10 136 4 c 128,-1,17
 94.5 18 94.5 18 77 50 c 128,-1,18
 59.5 82 59.5 82 59.5 137 c 2,19,-1
 59.5 334 l 2,20,21
 59.5 420 59.5 420 106 457 c 128,-1,22
 152.5 494 152.5 494 258.5 494 c 0,23,24
 384.5 494 384.5 494 406.5 437 c 1,25,-1
 406.5 484 l 1,26,-1
 490.5 484 l 1,27,-1
 490.5 -16 l 2,28,29
 490.5 -83 490.5 -83 465.5 -121 c 128,-1,30
 440.5 -159 440.5 -159 390.5 -174.5 c 128,-1,31
 340.5 -190 340.5 -190 260.5 -190 c 0,32,4
 161.5 -190 161.5 -190 93.5 -179 c 1,5,-1
371.5 67 m 128,-1,34
 400.5 84 400.5 84 400.5 131 c 2,35,-1
 400.5 350 l 2,36,37
 400.5 383 400.5 383 390 400 c 128,-1,38
 379.5 417 379.5 417 351.5 424.5 c 128,-1,39
 323.5 432 323.5 432 269.5 432 c 0,40,41
 218.5 432 218.5 432 193 425 c 128,-1,42
 167.5 418 167.5 418 158 400.5 c 128,-1,43
 148.5 383 148.5 383 148.5 350 c 2,44,-1
 148.5 131 l 2,45,46
 148.5 97 148.5 97 158.5 80 c 128,-1,47
 168.5 63 168.5 63 194.5 56.5 c 128,-1,48
 220.5 50 220.5 50 271.5 50 c 0,49,33
 342.5 50 342.5 50 371.5 67 c 128,-1,34
EndSplineSet
Substitution2: "'smcp' Lowercase to Small Capitals lookup 26 subtable" gcommaaccent.smcp
Substitution2: "'aalt' Access All Alternates lookup 0 subtable" gcommaaccent.smcp
EndChar

StartChar: gdotaccent
Encoding: 289 289 232
Width: 550
Flags: W
LayerCount: 3
Fore
SplineSet
231.5 666 m 1,0,-1
 321.5 666 l 1,1,-1
 321.5 568 l 1,2,-1
 231.5 568 l 1,3,-1
 231.5 666 l 1,0,-1
93.5 -209 m 1,5,-1
 93.5 -145 l 1,6,7
 213.5 -159 213.5 -159 268.5 -159 c 0,8,9
 337.5 -159 337.5 -159 369 -137 c 128,-1,10
 400.5 -115 400.5 -115 400.5 -64 c 2,11,-1
 400.5 52 l 1,12,13
 398.5 20 398.5 20 357 5 c 128,-1,14
 315.5 -10 315.5 -10 252.5 -10 c 0,15,16
 177.5 -10 177.5 -10 136 4 c 128,-1,17
 94.5 18 94.5 18 77 50 c 128,-1,18
 59.5 82 59.5 82 59.5 137 c 2,19,-1
 59.5 334 l 2,20,21
 59.5 420 59.5 420 106 457 c 128,-1,22
 152.5 494 152.5 494 258.5 494 c 0,23,24
 384.5 494 384.5 494 406.5 437 c 1,25,-1
 406.5 484 l 1,26,-1
 490.5 484 l 1,27,-1
 490.5 -46 l 2,28,29
 490.5 -113 490.5 -113 465.5 -151 c 128,-1,30
 440.5 -189 440.5 -189 390.5 -204.5 c 128,-1,31
 340.5 -220 340.5 -220 260.5 -220 c 0,32,4
 161.5 -220 161.5 -220 93.5 -209 c 1,5,-1
371.5 67 m 128,-1,34
 400.5 84 400.5 84 400.5 131 c 2,35,-1
 400.5 350 l 2,36,37
 400.5 383 400.5 383 390 400 c 128,-1,38
 379.5 417 379.5 417 351.5 424.5 c 128,-1,39
 323.5 432 323.5 432 269.5 432 c 0,40,41
 218.5 432 218.5 432 193 425 c 128,-1,42
 167.5 418 167.5 418 158 400.5 c 128,-1,43
 148.5 383 148.5 383 148.5 350 c 2,44,-1
 148.5 131 l 2,45,46
 148.5 97 148.5 97 158.5 80 c 128,-1,47
 168.5 63 168.5 63 194.5 56.5 c 128,-1,48
 220.5 50 220.5 50 271.5 50 c 0,49,33
 342.5 50 342.5 50 371.5 67 c 128,-1,34
EndSplineSet
Substitution2: "'smcp' Lowercase to Small Capitals lookup 26 subtable" gdotaccent.smcp
Substitution2: "'aalt' Access All Alternates lookup 0 subtable" gdotaccent.smcp
EndChar

StartChar: h
Encoding: 104 104 233
Width: 550
Flags: W
LayerCount: 3
Fore
SplineSet
66.5 700 m 1,0,-1
 156.5 700 l 1,1,-1
 156.5 425 l 1,2,3
 170.5 494 170.5 494 315.5 494 c 0,4,5
 408.5 494 408.5 494 446 460.5 c 128,-1,6
 483.5 427 483.5 427 483.5 355 c 2,7,-1
 483.5 0 l 1,8,-1
 393.5 0 l 1,9,-1
 393.5 349 l 2,10,11
 393.5 368 393.5 368 390.5 380 c 128,-1,12
 387.5 392 387.5 392 378.5 404 c 0,13,14
 358.5 429 358.5 429 289.5 429 c 0,15,16
 234.5 429 234.5 429 206 421.5 c 128,-1,17
 177.5 414 177.5 414 167 397 c 128,-1,18
 156.5 380 156.5 380 156.5 349 c 2,19,-1
 156.5 0 l 1,20,-1
 66.5 0 l 1,21,-1
 66.5 700 l 1,0,-1
EndSplineSet
Substitution2: "'smcp' Lowercase to Small Capitals lookup 26 subtable" h.smcp
Substitution2: "'aalt' Access All Alternates lookup 0 subtable" h.smcp
EndChar

StartChar: hbar
Encoding: 295 295 234
Width: 550
Flags: W
LayerCount: 3
Fore
SplineSet
96 553 m 1,0,-1
 37 553 l 1,1,-1
 37 605 l 1,2,-1
 96 605 l 1,3,-1
 96 700 l 1,4,-1
 186 700 l 1,5,-1
 186 605 l 1,6,-1
 296 605 l 1,7,-1
 296 553 l 1,8,-1
 186 553 l 1,9,-1
 186 425 l 1,10,11
 200 494 200 494 345 494 c 0,12,13
 438 494 438 494 475.5 460.5 c 128,-1,14
 513 427 513 427 513 355 c 2,15,-1
 513 0 l 1,16,-1
 423 0 l 1,17,-1
 423 349 l 2,18,19
 423 368 423 368 420 380 c 128,-1,20
 417 392 417 392 408 404 c 0,21,22
 388 429 388 429 319 429 c 0,23,24
 264 429 264 429 235.5 421.5 c 128,-1,25
 207 414 207 414 196.5 397 c 128,-1,26
 186 380 186 380 186 349 c 2,27,-1
 186 0 l 1,28,-1
 96 0 l 1,29,-1
 96 553 l 1,0,-1
EndSplineSet
Substitution2: "'smcp' Lowercase to Small Capitals lookup 26 subtable" hbar.smcp
Substitution2: "'aalt' Access All Alternates lookup 0 subtable" hbar.smcp
EndChar

StartChar: hcircumflex
Encoding: 293 293 235
Width: 550
Flags: W
LayerCount: 3
Fore
SplineSet
100.5 860 m 1,0,-1
 207.5 860 l 1,1,-1
 273.5 733 l 1,2,-1
 215.5 733 l 1,3,-1
 153.5 820 l 1,4,-1
 90.5 733 l 1,5,-1
 32.5 733 l 1,6,-1
 100.5 860 l 1,0,-1
100.5 700 m 1,7,-1
 190.5 700 l 1,8,-1
 190.5 425 l 1,9,10
 204.5 494 204.5 494 349.5 494 c 0,11,12
 442.5 494 442.5 494 480 460.5 c 128,-1,13
 517.5 427 517.5 427 517.5 355 c 2,14,-1
 517.5 0 l 1,15,-1
 427.5 0 l 1,16,-1
 427.5 349 l 2,17,18
 427.5 368 427.5 368 424.5 380 c 128,-1,19
 421.5 392 421.5 392 412.5 404 c 0,20,21
 392.5 429 392.5 429 323.5 429 c 0,22,23
 268.5 429 268.5 429 240 421.5 c 128,-1,24
 211.5 414 211.5 414 201 397 c 128,-1,25
 190.5 380 190.5 380 190.5 349 c 2,26,-1
 190.5 0 l 1,27,-1
 100.5 0 l 1,28,-1
 100.5 700 l 1,7,-1
EndSplineSet
Substitution2: "'smcp' Lowercase to Small Capitals lookup 26 subtable" hcircumflex.smcp
Substitution2: "'aalt' Access All Alternates lookup 0 subtable" hcircumflex.smcp
EndChar

StartChar: i
Encoding: 105 105 236
Width: 545
GlyphClass: 2
Flags: W
AnchorPoint: "Anchor-12" 151.5 0 basechar 0
AnchorPoint: "Anchor-11" 151.5 0 basechar 0
AnchorPoint: "Anchor-10" 151.5 0 basechar 0
AnchorPoint: "Anchor-9" 151.5 0 basechar 0
AnchorPoint: "Anchor-8" 274.5 0 basechar 0
LayerCount: 3
Fore
SplineSet
229.5 659 m 1,0,-1
 319.5 659 l 1,1,-1
 319.5 565 l 1,2,-1
 229.5 565 l 1,3,-1
 229.5 659 l 1,0,-1
86.5 485 m 1,4,-1
 319.5 484 l 1,5,-1
 319.5 83 l 1,6,-1
 462.5 83 l 1,7,-1
 462.5 1 l 1,8,-1
 319.5 1 l 1,9,-1
 319.5 0 l 1,10,-1
 229.5 0 l 1,11,-1
 229.5 1 l 1,12,-1
 82.5 1 l 1,13,-1
 82.5 83 l 1,14,-1
 229.5 83 l 1,15,-1
 229.5 403 l 1,16,-1
 86.5 403 l 1,17,-1
 86.5 485 l 1,4,-1
EndSplineSet
Substitution2: "Single Substitution lookup 33 subtable" dotlessi
Substitution2: "'smcp' Lowercase to Small Capitals lookup 26 subtable" i.smcp
Substitution2: "'locl' Localized Forms in Latin lookup 12 subtable" i.loclTRK
Substitution2: "'locl' Localized Forms in Latin lookup 11 subtable" i.loclTRK
Substitution2: "'locl' Localized Forms in Latin lookup 10 subtable" i.loclTRK
Substitution2: "'locl' Localized Forms in Latin lookup 9 subtable" i.loclTRK
Substitution2: "'locl' Localized Forms in Latin lookup 8 subtable" i.loclTRK
AlternateSubs2: "'aalt' Access All Alternates lookup 1 subtable" dotlessi i.loclTRK i.smcp
EndChar

StartChar: dotlessi
Encoding: 305 305 237
Width: 550
GlyphClass: 2
Flags: W
AnchorPoint: "Anchor-12" 274 0 basechar 0
AnchorPoint: "Anchor-11" 151 0 basechar 0
AnchorPoint: "Anchor-10" 151 0 basechar 0
AnchorPoint: "Anchor-9" 274 484 basechar 0
AnchorPoint: "Anchor-8" 274 0 basechar 0
LayerCount: 3
Fore
SplineSet
230 484 m 1,0,-1
 320 484 l 1,1,-1
 320 0 l 1,2,-1
 230 0 l 1,3,-1
 230 484 l 1,0,-1
EndSplineSet
Substitution2: "'smcp' Lowercase to Small Capitals lookup 26 subtable" dotlessi.smcp
Substitution2: "'aalt' Access All Alternates lookup 0 subtable" dotlessi.smcp
EndChar

StartChar: ibreve
Encoding: 301 301 239
Width: 550
Flags: W
LayerCount: 3
Fore
SplineSet
190.5 587.5 m 128,-1,1
 159 622 159 622 157 680 c 1,2,-1
 211 680 l 1,3,4
 217 612 217 612 275 612 c 256,5,6
 333 612 333 612 339 680 c 1,7,-1
 393 680 l 1,8,9
 392 623 392 623 360 588 c 256,10,11
 328 553 328 553 275 553 c 256,12,0
 222 553 222 553 190.5 587.5 c 128,-1,1
230 484 m 1,13,-1
 320 484 l 1,14,-1
 320 0 l 1,15,-1
 230 0 l 1,16,-1
 230 484 l 1,13,-1
EndSplineSet
Substitution2: "'smcp' Lowercase to Small Capitals lookup 26 subtable" ibreve.smcp
Substitution2: "'aalt' Access All Alternates lookup 0 subtable" ibreve.smcp
EndChar

StartChar: icircumflex
Encoding: 238 238 240
Width: 550
Flags: W
LayerCount: 3
Fore
SplineSet
222.5 680 m 1,0,-1
 329.5 680 l 1,1,-1
 395.5 553 l 1,2,-1
 337.5 553 l 1,3,-1
 275.5 640 l 1,4,-1
 212.5 553 l 1,5,-1
 154.5 553 l 1,6,-1
 222.5 680 l 1,0,-1
226.5 484 m 1,7,-1
 316.5 484 l 1,8,-1
 316.5 0 l 1,9,-1
 226.5 0 l 1,10,-1
 226.5 484 l 1,7,-1
EndSplineSet
Substitution2: "'smcp' Lowercase to Small Capitals lookup 26 subtable" icircumflex.smcp
Substitution2: "'aalt' Access All Alternates lookup 0 subtable" icircumflex.smcp
EndChar

StartChar: idieresis
Encoding: 239 239 241
Width: 550
Flags: W
LayerCount: 3
Fore
SplineSet
145 659 m 1,0,-1
 235 659 l 1,1,-1
 235 565 l 1,2,-1
 145 565 l 1,3,-1
 145 659 l 1,0,-1
315 659 m 1,4,-1
 405 659 l 1,5,-1
 405 565 l 1,6,-1
 315 565 l 1,7,-1
 315 659 l 1,4,-1
229 484 m 1,8,-1
 319 484 l 1,9,-1
 319 0 l 1,10,-1
 229 0 l 1,11,-1
 229 484 l 1,8,-1
EndSplineSet
Substitution2: "'smcp' Lowercase to Small Capitals lookup 26 subtable" idieresis.smcp
Substitution2: "'aalt' Access All Alternates lookup 0 subtable" idieresis.smcp
EndChar

StartChar: ij
Encoding: 307 307 246
Width: 550
Flags: W
LayerCount: 3
Fore
SplineSet
114.5 660 m 1,0,-1
 204.5 660 l 1,1,-1
 204.5 565 l 1,2,-1
 114.5 565 l 1,3,-1
 114.5 660 l 1,0,-1
345.5 660 m 1,4,-1
 435.5 660 l 1,5,-1
 435.5 565 l 1,6,-1
 345.5 565 l 1,7,-1
 345.5 660 l 1,4,-1
114.5 484 m 1,8,-1
 204.5 484 l 1,9,-1
 204.5 0 l 1,10,-1
 114.5 0 l 1,11,-1
 114.5 484 l 1,8,-1
223.5 -186 m 1,13,-1
 223.5 -130 l 1,14,15
 227.5 -131 227.5 -131 241.5 -131 c 0,16,17
 282.5 -131 282.5 -131 304 -125 c 128,-1,18
 325.5 -119 325.5 -119 335.5 -101 c 128,-1,19
 345.5 -83 345.5 -83 345.5 -47 c 2,20,-1
 345.5 484 l 1,21,-1
 435.5 484 l 1,22,-1
 435.5 -40 l 2,23,24
 435.5 -100 435.5 -100 420.5 -131.5 c 128,-1,25
 405.5 -163 405.5 -163 371.5 -175 c 128,-1,26
 337.5 -187 337.5 -187 274.5 -187 c 0,27,12
 234.5 -187 234.5 -187 223.5 -186 c 1,13,-1
EndSplineSet
Substitution2: "'smcp' Lowercase to Small Capitals lookup 26 subtable" ij.smcp
Substitution2: "'aalt' Access All Alternates lookup 0 subtable" ij.smcp
EndChar

StartChar: imacron
Encoding: 299 299 247
Width: 550
Flags: W
LayerCount: 3
Fore
SplineSet
154.5 654 m 1,0,-1
 395.5 654 l 1,1,-1
 395.5 591 l 1,2,-1
 154.5 591 l 1,3,-1
 154.5 654 l 1,0,-1
230.5 484 m 1,4,-1
 320.5 484 l 1,5,-1
 320.5 0 l 1,6,-1
 230.5 0 l 1,7,-1
 230.5 484 l 1,4,-1
EndSplineSet
Substitution2: "'smcp' Lowercase to Small Capitals lookup 26 subtable" imacron.smcp
Substitution2: "'aalt' Access All Alternates lookup 0 subtable" imacron.smcp
EndChar

StartChar: iogonek
Encoding: 303 303 248
Width: 550
Flags: W
LayerCount: 3
Fore
SplineSet
224.5 -167 m 128,-1,1
 200.5 -148 200.5 -148 200.5 -106 c 0,2,3
 200.5 -56 200.5 -56 236.5 0 c 1,4,-1
 236.5 484 l 1,5,-1
 326.5 484 l 1,6,-1
 326.5 0 l 1,7,8
 279.5 -45 279.5 -45 279.5 -97 c 0,9,10
 279.5 -130 279.5 -130 318.5 -130 c 0,11,12
 328.5 -130 328.5 -130 349.5 -123 c 1,13,-1
 349.5 -176 l 1,14,15
 329.5 -186 329.5 -186 299.5 -186 c 0,16,0
 248.5 -186 248.5 -186 224.5 -167 c 128,-1,1
EndSplineSet
Substitution2: "'smcp' Lowercase to Small Capitals lookup 26 subtable" iogonek.smcp
Substitution2: "'aalt' Access All Alternates lookup 0 subtable" iogonek.smcp
EndChar

StartChar: j
Encoding: 106 106 250
Width: 550
Flags: W
LayerCount: 3
Fore
SplineSet
169.5 414 m 1,0,-1
 369.5 411 l 0,1,2
 386.5 -53 386.5 -53 369.5 -80 c 0,3,4
 324.5 -151 324.5 -151 259.418945312 -131.983398438 c 128,-1,5
 194.5 -113 194.5 -113 176.5 -73 c 0,6,-1
 152.5 -21 l 0,7,-1
 90.5 -47 l 1,8,9
 95.5 -140 95.5 -140 154.5 -169 c 0,10,11
 308.5 -244 308.5 -244 400.290039062 -165.260742188 c 0,12,13
 459.5 -115 459.5 -115 459.5 -73 c 2,14,-1
 459.5 484 l 1,15,-1
 167.5 483 l 1,16,-1
 169.5 414 l 1,0,-1
369.5 659 m 1,17,-1
 459.5 659 l 1,18,-1
 459.5 565 l 1,19,-1
 369.5 565 l 1,20,-1
 369.5 659 l 1,17,-1
EndSplineSet
Substitution2: "Single Substitution lookup 33 subtable" uni0237
Substitution2: "'smcp' Lowercase to Small Capitals lookup 26 subtable" j.smcp
AlternateSubs2: "'aalt' Access All Alternates lookup 1 subtable" uni0237 j.smcp
EndChar

StartChar: uni0237
Encoding: 567 567 251
Width: 550
Flags: W
LayerCount: 3
Fore
SplineSet
169 -219 m 1,1,-1
 169 -163 l 1,2,3
 173 -164 173 -164 187 -164 c 0,4,5
 228 -164 228 -164 249.5 -158 c 128,-1,6
 271 -152 271 -152 281 -134 c 128,-1,7
 291 -116 291 -116 291 -80 c 2,8,-1
 291 484 l 1,9,-1
 381 484 l 1,10,-1
 381 -73 l 2,11,12
 381 -133 381 -133 366 -164.5 c 128,-1,13
 351 -196 351 -196 317 -208 c 128,-1,14
 283 -220 283 -220 220 -220 c 0,15,0
 180 -220 180 -220 169 -219 c 1,1,-1
EndSplineSet
EndChar

StartChar: jcircumflex
Encoding: 309 309 252
Width: 550
Flags: W
LayerCount: 3
Fore
SplineSet
247.5 680 m 1,0,-1
 354.5 680 l 1,1,-1
 420.5 553 l 1,2,-1
 362.5 553 l 1,3,-1
 300.5 640 l 1,4,-1
 237.5 553 l 1,5,-1
 179.5 553 l 1,6,-1
 247.5 680 l 1,0,-1
129.5 -219 m 1,8,-1
 129.5 -163 l 1,9,10
 133.5 -164 133.5 -164 147.5 -164 c 0,11,12
 188.5 -164 188.5 -164 210 -158 c 128,-1,13
 231.5 -152 231.5 -152 241.5 -134 c 128,-1,14
 251.5 -116 251.5 -116 251.5 -80 c 2,15,-1
 251.5 484 l 1,16,-1
 341.5 484 l 1,17,-1
 341.5 -73 l 2,18,19
 341.5 -133 341.5 -133 326.5 -164.5 c 128,-1,20
 311.5 -196 311.5 -196 277.5 -208 c 128,-1,21
 243.5 -220 243.5 -220 180.5 -220 c 0,22,7
 140.5 -220 140.5 -220 129.5 -219 c 1,8,-1
EndSplineSet
Substitution2: "'smcp' Lowercase to Small Capitals lookup 26 subtable" jcircumflex.smcp
Substitution2: "'aalt' Access All Alternates lookup 0 subtable" jcircumflex.smcp
EndChar

StartChar: k
Encoding: 107 107 253
Width: 550
Flags: W
LayerCount: 3
Fore
SplineSet
58 700 m 1,0,-1
 148 700 l 1,1,-1
 148 0 l 1,2,-1
 58 0 l 1,3,-1
 58 700 l 1,0,-1
159 265 m 1,4,-1
 363 484 l 1,5,-1
 473 484 l 1,6,-1
 263 265 l 1,7,-1
 492 0 l 1,8,-1
 380 0 l 1,9,-1
 159 265 l 1,4,-1
EndSplineSet
Substitution2: "'smcp' Lowercase to Small Capitals lookup 26 subtable" k.smcp
Substitution2: "'aalt' Access All Alternates lookup 0 subtable" k.smcp
EndChar

StartChar: kcommaaccent
Encoding: 311 311 254
Width: 550
Flags: W
LayerCount: 3
Fore
SplineSet
58 693 m 1,0,-1
 148 693 l 1,1,-1
 148 0 l 1,2,-1
 58 0 l 1,3,-1
 58 693 l 1,0,-1
159 265 m 1,4,-1
 363 484 l 1,5,-1
 473 484 l 1,6,-1
 263 265 l 1,7,-1
 492 0 l 1,8,-1
 380 0 l 1,9,-1
 159 265 l 1,4,-1
208 -40 m 1,10,-1
 302 -40 l 1,11,-1
 219 -190 l 1,12,-1
 162 -190 l 1,13,-1
 208 -40 l 1,10,-1
EndSplineSet
Substitution2: "'smcp' Lowercase to Small Capitals lookup 26 subtable" kcommaaccent.smcp
Substitution2: "'aalt' Access All Alternates lookup 0 subtable" kcommaaccent.smcp
EndChar

StartChar: kgreenlandic
Encoding: 312 312 255
Width: 550
Flags: W
LayerCount: 3
Fore
SplineSet
31 484 m 1,0,-1
 121 484 l 1,1,-1
 121 0 l 1,2,-1
 31 0 l 1,3,-1
 31 484 l 1,0,-1
123 250 m 1,4,-1
 373 484 l 1,5,-1
 490 484 l 1,6,-1
 238 254 l 1,7,-1
 519 0 l 1,8,-1
 393 0 l 1,9,-1
 123 250 l 1,4,-1
EndSplineSet
Substitution2: "'case' Case-Sensitive Forms lookup 27 subtable" kgreenlandic.case
Substitution2: "'smcp' Lowercase to Small Capitals lookup 26 subtable" kgreenlandic.smcp
AlternateSubs2: "'aalt' Access All Alternates lookup 1 subtable" kgreenlandic.smcp kgreenlandic.case
EndChar

StartChar: l
Encoding: 108 108 256
Width: 550
Flags: W
LayerCount: 3
Fore
SplineSet
230 700 m 1,0,-1
 320 700 l 1,1,-1
 320 0 l 1,2,-1
 230 0 l 1,3,-1
 230 700 l 1,0,-1
EndSplineSet
Substitution2: "'smcp' Lowercase to Small Capitals lookup 26 subtable" l.smcp
Substitution2: "'aalt' Access All Alternates lookup 0 subtable" l.smcp
EndChar

StartChar: lacute
Encoding: 314 314 257
Width: 550
Flags: W
LayerCount: 3
Fore
SplineSet
265.5 868 m 1,0,-1
 374.5 868 l 1,1,-1
 249.5 741 l 1,2,-1
 175.5 741 l 1,3,-1
 265.5 868 l 1,0,-1
175.5 700 m 1,4,-1
 265.5 700 l 1,5,-1
 265.5 0 l 1,6,-1
 175.5 0 l 1,7,-1
 175.5 700 l 1,4,-1
EndSplineSet
Substitution2: "'smcp' Lowercase to Small Capitals lookup 26 subtable" lacute.smcp
Substitution2: "'aalt' Access All Alternates lookup 0 subtable" lacute.smcp
EndChar

StartChar: lcaron
Encoding: 318 318 258
Width: 550
Flags: W
LayerCount: 3
Fore
SplineSet
133 693 m 1,0,-1
 223 693 l 1,1,-1
 223 0 l 1,2,-1
 133 0 l 1,3,-1
 133 693 l 1,0,-1
323 679 m 1,4,-1
 417 679 l 1,5,-1
 334 529 l 1,6,-1
 277 529 l 1,7,-1
 323 679 l 1,4,-1
EndSplineSet
Substitution2: "'smcp' Lowercase to Small Capitals lookup 26 subtable" lcaron.smcp
Substitution2: "'aalt' Access All Alternates lookup 0 subtable" lcaron.smcp
EndChar

StartChar: lcommaaccent
Encoding: 316 316 259
Width: 550
Flags: W
LayerCount: 3
Fore
SplineSet
241 693 m 1,0,-1
 331 693 l 1,1,-1
 331 0 l 1,2,-1
 241 0 l 1,3,-1
 241 693 l 1,0,-1
251 -40 m 1,4,-1
 345 -40 l 1,5,-1
 262 -190 l 1,6,-1
 205 -190 l 1,7,-1
 251 -40 l 1,4,-1
EndSplineSet
Substitution2: "'smcp' Lowercase to Small Capitals lookup 26 subtable" lcommaaccent.smcp
Substitution2: "'aalt' Access All Alternates lookup 0 subtable" lcommaaccent.smcp
EndChar

StartChar: ldot
Encoding: 320 320 260
Width: 550
Flags: W
LayerCount: 3
Fore
SplineSet
155 693 m 1,0,-1
 245 693 l 1,1,-1
 245 0 l 1,2,-1
 155 0 l 1,3,-1
 155 693 l 1,0,-1
305 468 m 1,4,-1
 395 468 l 1,5,-1
 395 370 l 1,6,-1
 305 370 l 1,7,-1
 305 468 l 1,4,-1
EndSplineSet
Ligature2: "Ligature Substitution lookup 34 subtable" l periodcentered
Substitution2: "'smcp' Lowercase to Small Capitals lookup 26 subtable" ldot.smcp
Substitution2: "'aalt' Access All Alternates lookup 0 subtable" ldot.smcp
EndChar

StartChar: lslash
Encoding: 322 322 261
Width: 550
Flags: W
LayerCount: 3
Fore
SplineSet
230 355 m 1,0,-1
 152 323 l 1,1,-1
 152 394 l 1,2,-1
 230 426 l 1,3,-1
 230 700 l 1,4,-1
 320 700 l 1,5,-1
 320 462 l 1,6,-1
 398 494 l 1,7,-1
 398 423 l 1,8,-1
 320 391 l 1,9,-1
 320 0 l 1,10,-1
 230 0 l 1,11,-1
 230 355 l 1,0,-1
EndSplineSet
Substitution2: "'smcp' Lowercase to Small Capitals lookup 26 subtable" lslash.smcp
Substitution2: "'aalt' Access All Alternates lookup 0 subtable" lslash.smcp
EndChar

StartChar: m
Encoding: 109 109 262
Width: 550
Flags: W
LayerCount: 3
Fore
SplineSet
-92 484 m 1,0,-1
 -2 484 l 1,1,-1
 -2 425 l 1,2,3
 12 494 12 494 161 494 c 0,4,5
 282 494 282 494 312 428 c 1,6,7
 321 460 321 460 366.5 477 c 128,-1,8
 412 494 412 494 478 494 c 0,9,10
 568 494 568 494 605 460.5 c 128,-1,11
 642 427 642 427 642 355 c 2,12,-1
 642 0 l 1,13,-1
 552 0 l 1,14,-1
 552 349 l 2,15,16
 552 368 552 368 549 380 c 128,-1,17
 546 392 546 392 537 404 c 0,18,19
 517 429 517 429 448 429 c 0,20,21
 395 429 395 429 369 422 c 128,-1,22
 343 415 343 415 333.5 398 c 128,-1,23
 324 381 324 381 324 349 c 2,24,-1
 324 0 l 1,25,-1
 234 0 l 1,26,-1
 234 349 l 2,27,28
 234 368 234 368 231 380 c 128,-1,29
 228 392 228 392 219 404 c 0,30,31
 199 429 199 429 131 429 c 0,32,33
 76 429 76 429 48 422 c 128,-1,34
 20 415 20 415 9 398.5 c 128,-1,35
 -2 382 -2 382 -2 349 c 2,36,-1
 -2 0 l 1,37,-1
 -92 0 l 1,38,-1
 -92 484 l 1,0,-1
EndSplineSet
Substitution2: "'smcp' Lowercase to Small Capitals lookup 26 subtable" m.smcp
Substitution2: "'aalt' Access All Alternates lookup 0 subtable" m.smcp
EndChar

StartChar: n
Encoding: 110 110 263
Width: 550
Flags: W
LayerCount: 3
Fore
SplineSet
66.5 484 m 1,0,-1
 156.5 484 l 1,1,-1
 156.5 425 l 1,2,3
 170.5 494 170.5 494 315.5 494 c 0,4,5
 408.5 494 408.5 494 446 460.5 c 128,-1,6
 483.5 427 483.5 427 483.5 355 c 2,7,-1
 483.5 0 l 1,8,-1
 393.5 0 l 1,9,-1
 393.5 350 l 2,10,11
 393.5 369 393.5 369 390.5 381 c 128,-1,12
 387.5 393 387.5 393 378.5 405 c 0,13,14
 358.5 430 358.5 430 289.5 430 c 0,15,16
 236.5 430 236.5 430 208 422.5 c 128,-1,17
 179.5 415 179.5 415 168 398 c 128,-1,18
 156.5 381 156.5 381 156.5 350 c 2,19,-1
 156.5 0 l 1,20,-1
 66.5 0 l 1,21,-1
 66.5 484 l 1,0,-1
EndSplineSet
Substitution2: "'smcp' Lowercase to Small Capitals lookup 26 subtable" n.smcp
Substitution2: "'aalt' Access All Alternates lookup 0 subtable" n.smcp
EndChar

StartChar: nacute
Encoding: 324 324 264
Width: 550
Flags: W
LayerCount: 3
Fore
SplineSet
298.5 680 m 1,0,-1
 407.5 680 l 1,1,-1
 282.5 553 l 1,2,-1
 208.5 553 l 1,3,-1
 298.5 680 l 1,0,-1
66.5 484 m 1,4,-1
 156.5 484 l 1,5,-1
 156.5 425 l 1,6,7
 170.5 494 170.5 494 315.5 494 c 0,8,9
 408.5 494 408.5 494 446 460.5 c 128,-1,10
 483.5 427 483.5 427 483.5 355 c 2,11,-1
 483.5 0 l 1,12,-1
 393.5 0 l 1,13,-1
 393.5 350 l 2,14,15
 393.5 369 393.5 369 390.5 381 c 128,-1,16
 387.5 393 387.5 393 378.5 405 c 0,17,18
 358.5 430 358.5 430 289.5 430 c 0,19,20
 236.5 430 236.5 430 208 422.5 c 128,-1,21
 179.5 415 179.5 415 168 398 c 128,-1,22
 156.5 381 156.5 381 156.5 350 c 2,23,-1
 156.5 0 l 1,24,-1
 66.5 0 l 1,25,-1
 66.5 484 l 1,4,-1
EndSplineSet
Substitution2: "'smcp' Lowercase to Small Capitals lookup 26 subtable" nacute.smcp
Substitution2: "'aalt' Access All Alternates lookup 0 subtable" nacute.smcp
EndChar

StartChar: napostrophe
Encoding: 329 329 265
Width: 550
Flags: W
LayerCount: 3
Fore
SplineSet
112.5 679 m 1,0,-1
 209.5 679 l 1,1,-1
 134.5 539 l 1,2,-1
 76.5 539 l 1,3,-1
 112.5 679 l 1,0,-1
66.5 484 m 1,4,-1
 156.5 484 l 1,5,-1
 156.5 425 l 1,6,7
 170.5 494 170.5 494 315.5 494 c 0,8,9
 408.5 494 408.5 494 446 460.5 c 128,-1,10
 483.5 427 483.5 427 483.5 355 c 2,11,-1
 483.5 0 l 1,12,-1
 393.5 0 l 1,13,-1
 393.5 350 l 2,14,15
 393.5 369 393.5 369 390.5 381 c 128,-1,16
 387.5 393 387.5 393 378.5 405 c 0,17,18
 358.5 430 358.5 430 289.5 430 c 0,19,20
 236.5 430 236.5 430 208 422.5 c 128,-1,21
 179.5 415 179.5 415 168 398 c 128,-1,22
 156.5 381 156.5 381 156.5 350 c 2,23,-1
 156.5 0 l 1,24,-1
 66.5 0 l 1,25,-1
 66.5 484 l 1,4,-1
EndSplineSet
Substitution2: "'smcp' Lowercase to Small Capitals lookup 26 subtable" napostrophe.smcp
Substitution2: "'aalt' Access All Alternates lookup 0 subtable" napostrophe.smcp
EndChar

StartChar: ncaron
Encoding: 328 328 266
Width: 550
Flags: W
LayerCount: 3
Fore
SplineSet
138.5 680 m 1,0,-1
 196.5 680 l 1,1,-1
 259.5 593 l 1,2,-1
 321.5 680 l 1,3,-1
 379.5 680 l 1,4,-1
 313.5 553 l 1,5,-1
 206.5 553 l 1,6,-1
 138.5 680 l 1,0,-1
66.5 484 m 1,7,-1
 156.5 484 l 1,8,-1
 156.5 425 l 1,9,10
 170.5 494 170.5 494 315.5 494 c 0,11,12
 408.5 494 408.5 494 446 460.5 c 128,-1,13
 483.5 427 483.5 427 483.5 355 c 2,14,-1
 483.5 0 l 1,15,-1
 393.5 0 l 1,16,-1
 393.5 350 l 2,17,18
 393.5 369 393.5 369 390.5 381 c 128,-1,19
 387.5 393 387.5 393 378.5 405 c 0,20,21
 358.5 430 358.5 430 289.5 430 c 0,22,23
 236.5 430 236.5 430 208 422.5 c 128,-1,24
 179.5 415 179.5 415 168 398 c 128,-1,25
 156.5 381 156.5 381 156.5 350 c 2,26,-1
 156.5 0 l 1,27,-1
 66.5 0 l 1,28,-1
 66.5 484 l 1,7,-1
EndSplineSet
Substitution2: "'smcp' Lowercase to Small Capitals lookup 26 subtable" ncaron.smcp
Substitution2: "'aalt' Access All Alternates lookup 0 subtable" ncaron.smcp
EndChar

StartChar: ncommaaccent
Encoding: 326 326 267
Width: 550
Flags: W
LayerCount: 3
Fore
SplineSet
66.5 484 m 1,0,-1
 156.5 484 l 1,1,-1
 156.5 425 l 1,2,3
 170.5 494 170.5 494 315.5 494 c 0,4,5
 408.5 494 408.5 494 446 460.5 c 128,-1,6
 483.5 427 483.5 427 483.5 355 c 2,7,-1
 483.5 0 l 1,8,-1
 393.5 0 l 1,9,-1
 393.5 350 l 2,10,11
 393.5 369 393.5 369 390.5 381 c 128,-1,12
 387.5 393 387.5 393 378.5 405 c 0,13,14
 358.5 430 358.5 430 289.5 430 c 0,15,16
 236.5 430 236.5 430 208 422.5 c 128,-1,17
 179.5 415 179.5 415 168 398 c 128,-1,18
 156.5 381 156.5 381 156.5 350 c 2,19,-1
 156.5 0 l 1,20,-1
 66.5 0 l 1,21,-1
 66.5 484 l 1,0,-1
238.5 -40 m 1,22,-1
 332.5 -40 l 1,23,-1
 249.5 -190 l 1,24,-1
 192.5 -190 l 1,25,-1
 238.5 -40 l 1,22,-1
EndSplineSet
Substitution2: "'smcp' Lowercase to Small Capitals lookup 26 subtable" ncommaaccent.smcp
Substitution2: "'aalt' Access All Alternates lookup 0 subtable" ncommaaccent.smcp
EndChar

StartChar: eng
Encoding: 331 331 268
Width: 550
Flags: W
LayerCount: 3
Fore
SplineSet
298.5 -156 m 1,0,1
 352.5 -156 352.5 -156 373 -136 c 128,-1,2
 393.5 -116 393.5 -116 393.5 -76 c 2,3,-1
 393.5 350 l 2,4,5
 393.5 369 393.5 369 390.5 381 c 128,-1,6
 387.5 393 387.5 393 378.5 405 c 0,7,8
 358.5 430 358.5 430 289.5 430 c 0,9,10
 236.5 430 236.5 430 208 422.5 c 128,-1,11
 179.5 415 179.5 415 168 398 c 128,-1,12
 156.5 381 156.5 381 156.5 350 c 2,13,-1
 156.5 0 l 1,14,-1
 66.5 0 l 1,15,-1
 66.5 484 l 1,16,-1
 156.5 484 l 1,17,-1
 156.5 425 l 1,18,19
 170.5 494 170.5 494 315.5 494 c 0,20,21
 408.5 494 408.5 494 446 460.5 c 128,-1,22
 483.5 427 483.5 427 483.5 355 c 2,23,-1
 483.5 -81 l 2,24,25
 483.5 -131 483.5 -131 470 -161 c 128,-1,26
 456.5 -191 456.5 -191 422 -205.5 c 128,-1,27
 387.5 -220 387.5 -220 324.5 -220 c 2,28,-1
 298.5 -220 l 1,29,-1
 298.5 -156 l 1,0,1
EndSplineSet
Substitution2: "'smcp' Lowercase to Small Capitals lookup 26 subtable" eng.smcp
Substitution2: "'aalt' Access All Alternates lookup 0 subtable" eng.smcp
EndChar

StartChar: ntilde
Encoding: 241 241 269
Width: 550
Flags: W
LayerCount: 3
Fore
SplineSet
138.5 614 m 1,0,1
 162.5 643 162.5 643 203.5 643 c 0,2,3
 226.5 643 226.5 643 268.5 626 c 256,4,5
 310.5 609 310.5 609 328.5 609 c 0,6,7
 349.5 609 349.5 609 363.5 619 c 128,-1,8
 377.5 629 377.5 629 393.5 652 c 1,9,-1
 393.5 583 l 1,10,11
 371.5 544 371.5 544 328.5 544 c 0,12,13
 303.5 544 303.5 544 262.5 562 c 0,14,15
 222.5 580 222.5 580 203.5 580 c 0,16,17
 164.5 580 164.5 580 138.5 541 c 1,18,-1
 138.5 614 l 1,0,1
66.5 484 m 1,19,-1
 156.5 484 l 1,20,-1
 156.5 425 l 1,21,22
 170.5 494 170.5 494 315.5 494 c 0,23,24
 408.5 494 408.5 494 446 460.5 c 128,-1,25
 483.5 427 483.5 427 483.5 355 c 2,26,-1
 483.5 0 l 1,27,-1
 393.5 0 l 1,28,-1
 393.5 350 l 2,29,30
 393.5 369 393.5 369 390.5 381 c 128,-1,31
 387.5 393 387.5 393 378.5 405 c 0,32,33
 358.5 430 358.5 430 289.5 430 c 0,34,35
 236.5 430 236.5 430 208 422.5 c 128,-1,36
 179.5 415 179.5 415 168 398 c 128,-1,37
 156.5 381 156.5 381 156.5 350 c 2,38,-1
 156.5 0 l 1,39,-1
 66.5 0 l 1,40,-1
 66.5 484 l 1,19,-1
EndSplineSet
Substitution2: "'smcp' Lowercase to Small Capitals lookup 26 subtable" ntilde.smcp
Substitution2: "'aalt' Access All Alternates lookup 0 subtable" ntilde.smcp
EndChar

StartChar: o
Encoding: 111 111 270
Width: 550
GlyphClass: 2
Flags: W
AnchorPoint: "Anchor-12" -8 0 basechar 0
AnchorPoint: "Anchor-11" 478 484 basechar 0
AnchorPoint: "Anchor-10" 276 242 basechar 0
AnchorPoint: "Anchor-9" 276 484 basechar 0
AnchorPoint: "Anchor-8" 276 0 basechar 0
LayerCount: 3
Fore
SplineSet
179 -5.5 m 128,-1,1
 147 -1 147 -1 115 14 c 0,2,3
 82 29 82 29 67 62.5 c 128,-1,4
 52 96 52 96 52 153 c 2,5,-1
 52 321 l 2,6,7
 52 366 52 366 63 400 c 128,-1,8
 74 434 74 434 92 453 c 0,9,10
 107 470 107 470 137.5 479.5 c 128,-1,11
 168 489 168 489 200 492 c 0,12,13
 236 494 236 494 275 494 c 0,14,15
 327 494 327 494 353.5 491.5 c 128,-1,16
 380 489 380 489 410 481 c 0,17,18
 441 472 441 472 458 454 c 128,-1,19
 475 436 475 436 487 402 c 0,20,21
 498 367 498 367 498 321 c 2,22,-1
 498 153 l 2,23,24
 498 68 498 68 459 29 c 0,25,26
 443 13 443 13 413 4 c 128,-1,27
 383 -5 383 -5 351 -8 c 0,28,29
 313 -10 313 -10 275 -10 c 0,30,0
 211 -10 211 -10 179 -5.5 c 128,-1,1
336 51 m 128,-1,32
 355 53 355 53 373 62 c 0,33,34
 391 70 391 70 398.5 88.5 c 128,-1,35
 406 107 406 107 406 140 c 2,36,-1
 406 336 l 2,37,38
 406 381 406 381 395 401.5 c 128,-1,39
 384 422 384 422 357.5 428.5 c 128,-1,40
 331 435 331 435 275 435 c 256,41,42
 219 435 219 435 192.5 428.5 c 128,-1,43
 166 422 166 422 155 401.5 c 128,-1,44
 144 381 144 381 144 336 c 2,45,-1
 144 140 l 2,46,47
 144 107 144 107 151.5 88.5 c 128,-1,48
 159 70 159 70 177 62 c 0,49,50
 195 53 195 53 214 51 c 128,-1,51
 233 49 233 49 275 49 c 256,52,31
 317 49 317 49 336 51 c 128,-1,32
EndSplineSet
Substitution2: "Single Substitution lookup 35 subtable" ordmasculine
Substitution2: "'smcp' Lowercase to Small Capitals lookup 26 subtable" o.smcp
AlternateSubs2: "'aalt' Access All Alternates lookup 1 subtable" ordmasculine o.smcp
EndChar

StartChar: obreve
Encoding: 335 335 272
Width: 550
Flags: W
LayerCount: 3
Fore
SplineSet
186.5 587.5 m 128,-1,1
 155 622 155 622 153 680 c 1,2,-1
 207 680 l 1,3,4
 213 612 213 612 271 612 c 256,5,6
 329 612 329 612 335 680 c 1,7,-1
 389 680 l 1,8,9
 388 623 388 623 356 588 c 256,10,11
 324 553 324 553 271 553 c 256,12,0
 218 553 218 553 186.5 587.5 c 128,-1,1
179 -5.5 m 128,-1,14
 147 -1 147 -1 115 14 c 0,15,16
 82 29 82 29 67 62.5 c 128,-1,17
 52 96 52 96 52 153 c 2,18,-1
 52 321 l 2,19,20
 52 366 52 366 63 400 c 128,-1,21
 74 434 74 434 92 453 c 0,22,23
 107 470 107 470 137.5 479.5 c 128,-1,24
 168 489 168 489 200 492 c 0,25,26
 236 494 236 494 275 494 c 0,27,28
 327 494 327 494 353.5 491.5 c 128,-1,29
 380 489 380 489 410 481 c 0,30,31
 441 472 441 472 458 454 c 128,-1,32
 475 436 475 436 487 402 c 0,33,34
 498 367 498 367 498 321 c 2,35,-1
 498 153 l 2,36,37
 498 68 498 68 459 29 c 0,38,39
 443 13 443 13 413 4 c 128,-1,40
 383 -5 383 -5 351 -8 c 0,41,42
 313 -10 313 -10 275 -10 c 0,43,13
 211 -10 211 -10 179 -5.5 c 128,-1,14
336 51 m 128,-1,45
 355 53 355 53 373 62 c 0,46,47
 391 70 391 70 398.5 88.5 c 128,-1,48
 406 107 406 107 406 140 c 2,49,-1
 406 336 l 2,50,51
 406 381 406 381 395 401.5 c 128,-1,52
 384 422 384 422 357.5 428.5 c 128,-1,53
 331 435 331 435 275 435 c 256,54,55
 219 435 219 435 192.5 428.5 c 128,-1,56
 166 422 166 422 155 401.5 c 128,-1,57
 144 381 144 381 144 336 c 2,58,-1
 144 140 l 2,59,60
 144 107 144 107 151.5 88.5 c 128,-1,61
 159 70 159 70 177 62 c 0,62,63
 195 53 195 53 214 51 c 128,-1,64
 233 49 233 49 275 49 c 256,65,44
 317 49 317 49 336 51 c 128,-1,45
EndSplineSet
Substitution2: "'smcp' Lowercase to Small Capitals lookup 26 subtable" obreve.smcp
Substitution2: "'aalt' Access All Alternates lookup 0 subtable" obreve.smcp
EndChar

StartChar: uni1ED1
Encoding: 7889 7889 274
Width: 550
GlyphClass: 2
Flags: W
AnchorPoint: "Anchor-12" -23.5 0 basechar 0
AnchorPoint: "Anchor-11" 462.5 484 basechar 0
AnchorPoint: "Anchor-10" 260.5 242 basechar 0
AnchorPoint: "Anchor-9" 464.5 753 basechar 0
AnchorPoint: "Anchor-8" 260.5 0 basechar 0
LayerCount: 3
Fore
SplineSet
404.5 722 m 1,0,-1
 513.5 722 l 1,1,-1
 438.5 626 l 1,2,-1
 364.5 626 l 1,3,-1
 404.5 722 l 1,0,-1
207.5 680 m 1,4,-1
 314.5 680 l 1,5,-1
 380.5 553 l 1,6,-1
 322.5 553 l 1,7,-1
 260.5 640 l 1,8,-1
 197.5 553 l 1,9,-1
 139.5 553 l 1,10,-1
 207.5 680 l 1,4,-1
163.5 -5.5 m 128,-1,12
 131.5 -1 131.5 -1 99.5 14 c 0,13,14
 66.5 29 66.5 29 51.5 62.5 c 128,-1,15
 36.5 96 36.5 96 36.5 153 c 2,16,-1
 36.5 321 l 2,17,18
 36.5 366 36.5 366 47.5 400 c 128,-1,19
 58.5 434 58.5 434 76.5 453 c 0,20,21
 91.5 470 91.5 470 122 479.5 c 128,-1,22
 152.5 489 152.5 489 184.5 492 c 0,23,24
 220.5 494 220.5 494 259.5 494 c 0,25,26
 311.5 494 311.5 494 338 491.5 c 128,-1,27
 364.5 489 364.5 489 394.5 481 c 0,28,29
 425.5 472 425.5 472 442.5 454 c 128,-1,30
 459.5 436 459.5 436 471.5 402 c 0,31,32
 482.5 367 482.5 367 482.5 321 c 2,33,-1
 482.5 153 l 2,34,35
 482.5 68 482.5 68 443.5 29 c 0,36,37
 427.5 13 427.5 13 397.5 4 c 128,-1,38
 367.5 -5 367.5 -5 335.5 -8 c 0,39,40
 297.5 -10 297.5 -10 259.5 -10 c 0,41,11
 195.5 -10 195.5 -10 163.5 -5.5 c 128,-1,12
320.5 51 m 128,-1,43
 339.5 53 339.5 53 357.5 62 c 0,44,45
 375.5 70 375.5 70 383 88.5 c 128,-1,46
 390.5 107 390.5 107 390.5 140 c 2,47,-1
 390.5 336 l 2,48,49
 390.5 381 390.5 381 379.5 401.5 c 128,-1,50
 368.5 422 368.5 422 342 428.5 c 128,-1,51
 315.5 435 315.5 435 259.5 435 c 256,52,53
 203.5 435 203.5 435 177 428.5 c 128,-1,54
 150.5 422 150.5 422 139.5 401.5 c 128,-1,55
 128.5 381 128.5 381 128.5 336 c 2,56,-1
 128.5 140 l 2,57,58
 128.5 107 128.5 107 136 88.5 c 128,-1,59
 143.5 70 143.5 70 161.5 62 c 0,60,61
 179.5 53 179.5 53 198.5 51 c 128,-1,62
 217.5 49 217.5 49 259.5 49 c 256,63,42
 301.5 49 301.5 49 320.5 51 c 128,-1,43
EndSplineSet
EndChar

StartChar: uni1ED3
Encoding: 7891 7891 276
Width: 550
GlyphClass: 2
Flags: W
AnchorPoint: "Anchor-12" -8 0 basechar 0
AnchorPoint: "Anchor-11" 478 484 basechar 0
AnchorPoint: "Anchor-10" 276 242 basechar 0
AnchorPoint: "Anchor-9" 352 773 basechar 0
AnchorPoint: "Anchor-8" 276 0 basechar 0
LayerCount: 3
Fore
SplineSet
346 742 m 1,0,-1
 455 742 l 1,1,-1
 486 646 l 1,2,-1
 412 646 l 1,3,-1
 346 742 l 1,0,-1
223 680 m 1,4,-1
 330 680 l 1,5,-1
 396 553 l 1,6,-1
 338 553 l 1,7,-1
 276 640 l 1,8,-1
 213 553 l 1,9,-1
 155 553 l 1,10,-1
 223 680 l 1,4,-1
179 -5.5 m 128,-1,12
 147 -1 147 -1 115 14 c 0,13,14
 82 29 82 29 67 62.5 c 128,-1,15
 52 96 52 96 52 153 c 2,16,-1
 52 321 l 2,17,18
 52 366 52 366 63 400 c 128,-1,19
 74 434 74 434 92 453 c 0,20,21
 107 470 107 470 137.5 479.5 c 128,-1,22
 168 489 168 489 200 492 c 0,23,24
 236 494 236 494 275 494 c 0,25,26
 327 494 327 494 353.5 491.5 c 128,-1,27
 380 489 380 489 410 481 c 0,28,29
 441 472 441 472 458 454 c 128,-1,30
 475 436 475 436 487 402 c 0,31,32
 498 367 498 367 498 321 c 2,33,-1
 498 153 l 2,34,35
 498 68 498 68 459 29 c 0,36,37
 443 13 443 13 413 4 c 128,-1,38
 383 -5 383 -5 351 -8 c 0,39,40
 313 -10 313 -10 275 -10 c 0,41,11
 211 -10 211 -10 179 -5.5 c 128,-1,12
336 51 m 128,-1,43
 355 53 355 53 373 62 c 0,44,45
 391 70 391 70 398.5 88.5 c 128,-1,46
 406 107 406 107 406 140 c 2,47,-1
 406 336 l 2,48,49
 406 381 406 381 395 401.5 c 128,-1,50
 384 422 384 422 357.5 428.5 c 128,-1,51
 331 435 331 435 275 435 c 256,52,53
 219 435 219 435 192.5 428.5 c 128,-1,54
 166 422 166 422 155 401.5 c 128,-1,55
 144 381 144 381 144 336 c 2,56,-1
 144 140 l 2,57,58
 144 107 144 107 151.5 88.5 c 128,-1,59
 159 70 159 70 177 62 c 0,60,61
 195 53 195 53 214 51 c 128,-1,62
 233 49 233 49 275 49 c 256,63,42
 317 49 317 49 336 51 c 128,-1,43
EndSplineSet
EndChar

StartChar: odieresis
Encoding: 246 246 279
Width: 550
Flags: W
LayerCount: 3
Fore
SplineSet
146 659 m 1,0,-1
 236 659 l 1,1,-1
 236 565 l 1,2,-1
 146 565 l 1,3,-1
 146 659 l 1,0,-1
316 659 m 1,4,-1
 406 659 l 1,5,-1
 406 565 l 1,6,-1
 316 565 l 1,7,-1
 316 659 l 1,4,-1
179 -5.5 m 128,-1,9
 147 -1 147 -1 115 14 c 0,10,11
 82 29 82 29 67 62.5 c 128,-1,12
 52 96 52 96 52 153 c 2,13,-1
 52 321 l 2,14,15
 52 366 52 366 63 400 c 128,-1,16
 74 434 74 434 92 453 c 0,17,18
 107 470 107 470 137.5 479.5 c 128,-1,19
 168 489 168 489 200 492 c 0,20,21
 236 494 236 494 275 494 c 0,22,23
 327 494 327 494 353.5 491.5 c 128,-1,24
 380 489 380 489 410 481 c 0,25,26
 441 472 441 472 458 454 c 128,-1,27
 475 436 475 436 487 402 c 0,28,29
 498 367 498 367 498 321 c 2,30,-1
 498 153 l 2,31,32
 498 68 498 68 459 29 c 0,33,34
 443 13 443 13 413 4 c 128,-1,35
 383 -5 383 -5 351 -8 c 0,36,37
 313 -10 313 -10 275 -10 c 0,38,8
 211 -10 211 -10 179 -5.5 c 128,-1,9
336 51 m 128,-1,40
 355 53 355 53 373 62 c 0,41,42
 391 70 391 70 398.5 88.5 c 128,-1,43
 406 107 406 107 406 140 c 2,44,-1
 406 336 l 2,45,46
 406 381 406 381 395 401.5 c 128,-1,47
 384 422 384 422 357.5 428.5 c 128,-1,48
 331 435 331 435 275 435 c 256,49,50
 219 435 219 435 192.5 428.5 c 128,-1,51
 166 422 166 422 155 401.5 c 128,-1,52
 144 381 144 381 144 336 c 2,53,-1
 144 140 l 2,54,55
 144 107 144 107 151.5 88.5 c 128,-1,56
 159 70 159 70 177 62 c 0,57,58
 195 53 195 53 214 51 c 128,-1,59
 233 49 233 49 275 49 c 256,60,39
 317 49 317 49 336 51 c 128,-1,40
EndSplineSet
Substitution2: "'smcp' Lowercase to Small Capitals lookup 26 subtable" odieresis.smcp
Substitution2: "'aalt' Access All Alternates lookup 0 subtable" odieresis.smcp
EndChar

StartChar: ohorn
Encoding: 417 417 283
Width: 550
GlyphClass: 2
Flags: W
AnchorPoint: "Anchor-12" -40.5 0 basechar 0
AnchorPoint: "Anchor-11" 445.5 484 basechar 0
AnchorPoint: "Anchor-10" 243.5 242 basechar 0
AnchorPoint: "Anchor-9" 243.5 484 basechar 0
AnchorPoint: "Anchor-8" 243.5 0 basechar 0
LayerCount: 3
Fore
SplineSet
512.5 471 m 128,-1,1
 494.5 439 494.5 439 443.5 427 c 1,2,3
 451.5 411 451.5 411 454.5 402 c 0,4,5
 465.5 367 465.5 367 465.5 321 c 2,6,-1
 465.5 153 l 2,7,8
 465.5 68 465.5 68 426.5 29 c 0,9,10
 410.5 13 410.5 13 380.5 4 c 128,-1,11
 350.5 -5 350.5 -5 318.5 -8 c 0,12,13
 280.5 -10 280.5 -10 242.5 -10 c 0,14,15
 178.5 -10 178.5 -10 146.5 -5.5 c 128,-1,16
 114.5 -1 114.5 -1 82.5 14 c 0,17,18
 49.5 29 49.5 29 34.5 62.5 c 128,-1,19
 19.5 96 19.5 96 19.5 153 c 2,20,-1
 19.5 321 l 2,21,22
 19.5 366 19.5 366 30.5 400 c 128,-1,23
 41.5 434 41.5 434 59.5 453 c 0,24,25
 74.5 470 74.5 470 105 479.5 c 128,-1,26
 135.5 489 135.5 489 167.5 492 c 0,27,28
 203.5 494 203.5 494 242.5 494 c 0,29,30
 289.5 494 289.5 494 314.5 492 c 128,-1,31
 339.5 490 339.5 490 365.5 484 c 1,32,33
 402.5 485 402.5 485 419 491 c 128,-1,34
 435.5 497 435.5 497 441.5 515 c 128,-1,35
 447.5 533 447.5 533 447.5 572 c 1,36,-1
 530.5 571 l 1,37,0
 530.5 503 530.5 503 512.5 471 c 128,-1,1
373.5 336 m 2,38,39
 373.5 381 373.5 381 362.5 401.5 c 128,-1,40
 351.5 422 351.5 422 325 428.5 c 128,-1,41
 298.5 435 298.5 435 242.5 435 c 256,42,43
 186.5 435 186.5 435 160 428.5 c 128,-1,44
 133.5 422 133.5 422 122.5 401.5 c 128,-1,45
 111.5 381 111.5 381 111.5 336 c 2,46,-1
 111.5 140 l 2,47,48
 111.5 107 111.5 107 119 88.5 c 128,-1,49
 126.5 70 126.5 70 144.5 62 c 0,50,51
 162.5 53 162.5 53 181.5 51 c 128,-1,52
 200.5 49 200.5 49 242.5 49 c 256,53,54
 284.5 49 284.5 49 303.5 51 c 128,-1,55
 322.5 53 322.5 53 340.5 62 c 0,56,57
 358.5 70 358.5 70 366 88.5 c 128,-1,58
 373.5 107 373.5 107 373.5 140 c 2,59,-1
 373.5 336 l 2,38,39
EndSplineSet
EndChar

StartChar: ohungarumlaut
Encoding: 337 337 289
Width: 550
Flags: W
LayerCount: 3
Fore
SplineSet
232 680 m 1,0,-1
 308 680 l 1,1,-1
 238 552 l 1,2,-1
 162 552 l 1,3,-1
 232 680 l 1,0,-1
359 680 m 1,4,-1
 435 680 l 1,5,-1
 365 552 l 1,6,-1
 289 552 l 1,7,-1
 359 680 l 1,4,-1
179 -5.5 m 128,-1,9
 147 -1 147 -1 115 14 c 0,10,11
 82 29 82 29 67 62.5 c 128,-1,12
 52 96 52 96 52 153 c 2,13,-1
 52 321 l 2,14,15
 52 366 52 366 63 400 c 128,-1,16
 74 434 74 434 92 453 c 0,17,18
 107 470 107 470 137.5 479.5 c 128,-1,19
 168 489 168 489 200 492 c 0,20,21
 236 494 236 494 275 494 c 0,22,23
 327 494 327 494 353.5 491.5 c 128,-1,24
 380 489 380 489 410 481 c 0,25,26
 441 472 441 472 458 454 c 128,-1,27
 475 436 475 436 487 402 c 0,28,29
 498 367 498 367 498 321 c 2,30,-1
 498 153 l 2,31,32
 498 68 498 68 459 29 c 0,33,34
 443 13 443 13 413 4 c 128,-1,35
 383 -5 383 -5 351 -8 c 0,36,37
 313 -10 313 -10 275 -10 c 0,38,8
 211 -10 211 -10 179 -5.5 c 128,-1,9
336 51 m 128,-1,40
 355 53 355 53 373 62 c 0,41,42
 391 70 391 70 398.5 88.5 c 128,-1,43
 406 107 406 107 406 140 c 2,44,-1
 406 336 l 2,45,46
 406 381 406 381 395 401.5 c 128,-1,47
 384 422 384 422 357.5 428.5 c 128,-1,48
 331 435 331 435 275 435 c 256,49,50
 219 435 219 435 192.5 428.5 c 128,-1,51
 166 422 166 422 155 401.5 c 128,-1,52
 144 381 144 381 144 336 c 2,53,-1
 144 140 l 2,54,55
 144 107 144 107 151.5 88.5 c 128,-1,56
 159 70 159 70 177 62 c 0,57,58
 195 53 195 53 214 51 c 128,-1,59
 233 49 233 49 275 49 c 256,60,39
 317 49 317 49 336 51 c 128,-1,40
EndSplineSet
Substitution2: "'smcp' Lowercase to Small Capitals lookup 26 subtable" ohungarumlaut.smcp
Substitution2: "'aalt' Access All Alternates lookup 0 subtable" ohungarumlaut.smcp
EndChar

StartChar: omacron
Encoding: 333 333 290
Width: 550
Flags: W
LayerCount: 3
Fore
SplineSet
156 652 m 1,0,-1
 397 652 l 1,1,-1
 397 589 l 1,2,-1
 156 589 l 1,3,-1
 156 652 l 1,0,-1
179 -5.5 m 128,-1,5
 147 -1 147 -1 115 14 c 0,6,7
 82 29 82 29 67 62.5 c 128,-1,8
 52 96 52 96 52 153 c 2,9,-1
 52 321 l 2,10,11
 52 366 52 366 63 400 c 128,-1,12
 74 434 74 434 92 453 c 0,13,14
 107 470 107 470 137.5 479.5 c 128,-1,15
 168 489 168 489 200 492 c 0,16,17
 236 494 236 494 275 494 c 0,18,19
 327 494 327 494 353.5 491.5 c 128,-1,20
 380 489 380 489 410 481 c 0,21,22
 441 472 441 472 458 454 c 128,-1,23
 475 436 475 436 487 402 c 0,24,25
 498 367 498 367 498 321 c 2,26,-1
 498 153 l 2,27,28
 498 68 498 68 459 29 c 0,29,30
 443 13 443 13 413 4 c 128,-1,31
 383 -5 383 -5 351 -8 c 0,32,33
 313 -10 313 -10 275 -10 c 0,34,4
 211 -10 211 -10 179 -5.5 c 128,-1,5
336 51 m 128,-1,36
 355 53 355 53 373 62 c 0,37,38
 391 70 391 70 398.5 88.5 c 128,-1,39
 406 107 406 107 406 140 c 2,40,-1
 406 336 l 2,41,42
 406 381 406 381 395 401.5 c 128,-1,43
 384 422 384 422 357.5 428.5 c 128,-1,44
 331 435 331 435 275 435 c 256,45,46
 219 435 219 435 192.5 428.5 c 128,-1,47
 166 422 166 422 155 401.5 c 128,-1,48
 144 381 144 381 144 336 c 2,49,-1
 144 140 l 2,50,51
 144 107 144 107 151.5 88.5 c 128,-1,52
 159 70 159 70 177 62 c 0,53,54
 195 53 195 53 214 51 c 128,-1,55
 233 49 233 49 275 49 c 256,56,35
 317 49 317 49 336 51 c 128,-1,36
EndSplineSet
Substitution2: "'smcp' Lowercase to Small Capitals lookup 26 subtable" omacron.smcp
Substitution2: "'aalt' Access All Alternates lookup 0 subtable" omacron.smcp
EndChar

StartChar: oslash
Encoding: 248 248 291
Width: 550
Flags: W
LayerCount: 3
Fore
SplineSet
179 -5.5 m 128,-1,1
 147 -1 147 -1 115 14 c 0,2,3
 82 29 82 29 67 62.5 c 128,-1,4
 52 96 52 96 52 153 c 2,5,-1
 52 321 l 2,6,7
 52 366 52 366 63 400 c 128,-1,8
 74 434 74 434 92 453 c 0,9,10
 107 470 107 470 137.5 479.5 c 128,-1,11
 168 489 168 489 200 492 c 0,12,13
 236 494 236 494 275 494 c 0,14,15
 327 494 327 494 353.5 491.5 c 128,-1,16
 380 489 380 489 410 481 c 0,17,18
 441 472 441 472 458 454 c 128,-1,19
 475 436 475 436 487 402 c 0,20,21
 498 367 498 367 498 321 c 2,22,-1
 498 153 l 2,23,24
 498 68 498 68 459 29 c 0,25,26
 443 13 443 13 413 4 c 128,-1,27
 383 -5 383 -5 351 -8 c 0,28,29
 313 -10 313 -10 275 -10 c 0,30,0
 211 -10 211 -10 179 -5.5 c 128,-1,1
365 426 m 1,31,32
 341 435 341 435 275 435 c 0,33,34
 219 435 219 435 192.5 428.5 c 128,-1,35
 166 422 166 422 155 401.5 c 128,-1,36
 144 381 144 381 144 336 c 2,37,-1
 144 140 l 2,38,39
 144 107 144 107 151 92 c 1,40,-1
 365 426 l 1,31,32
336 51 m 128,-1,42
 355 53 355 53 373 62 c 0,43,44
 391 70 391 70 398.5 88.5 c 128,-1,45
 406 107 406 107 406 140 c 2,46,-1
 406 336 l 2,47,48
 406 368 406 368 399 389 c 1,49,-1
 186 57 l 1,50,51
 212 49 212 49 275 49 c 0,52,41
 317 49 317 49 336 51 c 128,-1,42
EndSplineSet
Substitution2: "'smcp' Lowercase to Small Capitals lookup 26 subtable" oslash.smcp
Substitution2: "'aalt' Access All Alternates lookup 0 subtable" oslash.smcp
EndChar

StartChar: oe
Encoding: 339 339 293
Width: 550
Flags: W
LayerCount: 3
Fore
SplineSet
16.5 -5.5 m 128,-1,1
 -15.5 -1 -15.5 -1 -47.5 14 c 0,2,3
 -80.5 29 -80.5 29 -95.5 62.5 c 128,-1,4
 -110.5 96 -110.5 96 -110.5 153 c 2,5,-1
 -110.5 321 l 2,6,7
 -110.5 366 -110.5 366 -99.5 400 c 128,-1,8
 -88.5 434 -88.5 434 -70.5 453 c 0,9,10
 -55.5 470 -55.5 470 -25 479.5 c 128,-1,11
 5.5 489 5.5 489 37.5 492 c 0,12,13
 73.5 494 73.5 494 112.5 494 c 0,14,15
 249.5 494 249.5 494 293.5 444 c 1,16,17
 332.5 494 332.5 494 458.5 494 c 0,18,19
 565.5 494 565.5 494 613 457 c 128,-1,20
 660.5 420 660.5 420 660.5 329 c 2,21,-1
 660.5 222 l 1,22,-1
 335.5 222 l 1,23,-1
 335.5 149 l 2,24,25
 335.5 99 335.5 99 371 77 c 128,-1,26
 406.5 55 406.5 55 482.5 55 c 0,27,28
 547.5 55 547.5 55 641.5 79 c 1,29,-1
 641.5 10 l 1,30,31
 544.5 -10 544.5 -10 454.5 -10 c 0,32,33
 360.5 -10 360.5 -10 289.5 42 c 1,34,35
 237.5 -10 237.5 -10 112.5 -10 c 0,36,0
 48.5 -10 48.5 -10 16.5 -5.5 c 128,-1,1
191 57 m 128,-1,38
 218.5 65 218.5 65 231 86.5 c 128,-1,39
 243.5 108 243.5 108 243.5 149 c 2,40,-1
 243.5 336 l 2,41,42
 243.5 381 243.5 381 232.5 401.5 c 128,-1,43
 221.5 422 221.5 422 195 428.5 c 128,-1,44
 168.5 435 168.5 435 112.5 435 c 256,45,46
 56.5 435 56.5 435 30 428.5 c 128,-1,47
 3.5 422 3.5 422 -7.5 401.5 c 128,-1,48
 -18.5 381 -18.5 381 -18.5 336 c 2,49,-1
 -18.5 140 l 2,50,51
 -18.5 107 -18.5 107 -11 88.5 c 128,-1,52
 -3.5 70 -3.5 70 14.5 62 c 0,53,54
 32.5 53 32.5 53 51.5 51 c 128,-1,55
 70.5 49 70.5 49 112.5 49 c 0,56,37
 163.5 49 163.5 49 191 57 c 128,-1,38
570.5 281 m 1,57,-1
 570.5 357 l 2,58,59
 570.5 400 570.5 400 544 417 c 128,-1,60
 517.5 434 517.5 434 455.5 434 c 0,61,62
 391.5 434 391.5 434 363.5 417.5 c 128,-1,63
 335.5 401 335.5 401 335.5 357 c 2,64,-1
 335.5 281 l 1,65,-1
 570.5 281 l 1,57,-1
EndSplineSet
Substitution2: "'smcp' Lowercase to Small Capitals lookup 26 subtable" oe.smcp
Substitution2: "'aalt' Access All Alternates lookup 0 subtable" oe.smcp
EndChar

StartChar: p
Encoding: 112 112 294
Width: 550
Flags: W
LayerCount: 3
Fore
SplineSet
54.5 484 m 1,0,-1
 143.5 484 l 1,1,-1
 143.5 432 l 1,2,-1
 144.5 432 l 1,3,4
 155.5 494 155.5 494 309.5 494 c 0,5,6
 401.5 494 401.5 494 448.5 455.5 c 128,-1,7
 495.5 417 495.5 417 495.5 357 c 2,8,-1
 495.5 158 l 2,9,10
 495.5 115 495.5 115 483 83 c 128,-1,11
 470.5 51 470.5 51 450.5 33 c 0,12,13
 432.5 16 432.5 16 401 6 c 128,-1,14
 369.5 -4 369.5 -4 338.5 -7 c 0,15,16
 310.5 -10 310.5 -10 270.5 -10 c 0,17,18
 226.5 -10 226.5 -10 190 0.5 c 128,-1,19
 153.5 11 153.5 11 144.5 31 c 1,20,-1
 144.5 -208 l 1,21,-1
 54.5 -208 l 1,22,-1
 54.5 484 l 1,0,-1
352 58.5 m 128,-1,24
 379.5 66 379.5 66 391.5 86 c 128,-1,25
 403.5 106 403.5 106 403.5 147 c 2,26,-1
 403.5 325 l 2,27,28
 403.5 370 403.5 370 391.5 392 c 128,-1,29
 379.5 414 379.5 414 352 421.5 c 128,-1,30
 324.5 429 324.5 429 271.5 429 c 256,31,32
 218.5 429 218.5 429 192.5 421.5 c 128,-1,33
 166.5 414 166.5 414 155.5 392.5 c 128,-1,34
 144.5 371 144.5 371 144.5 325 c 2,35,-1
 144.5 147 l 2,36,37
 144.5 106 144.5 106 156 86 c 128,-1,38
 167.5 66 167.5 66 194.5 58.5 c 128,-1,39
 221.5 51 221.5 51 272.5 51 c 0,40,23
 324.5 51 324.5 51 352 58.5 c 128,-1,24
EndSplineSet
Substitution2: "'smcp' Lowercase to Small Capitals lookup 26 subtable" p.smcp
Substitution2: "'aalt' Access All Alternates lookup 0 subtable" p.smcp
EndChar

StartChar: thorn
Encoding: 254 254 295
Width: 550
Flags: W
LayerCount: 3
Fore
SplineSet
54.5 700 m 1,0,-1
 144.5 700 l 1,1,-1
 144.5 432 l 1,2,3
 155.5 494 155.5 494 309.5 494 c 0,4,5
 401.5 494 401.5 494 448.5 455.5 c 128,-1,6
 495.5 417 495.5 417 495.5 357 c 2,7,-1
 495.5 158 l 2,8,9
 495.5 115 495.5 115 483 83 c 128,-1,10
 470.5 51 470.5 51 450.5 33 c 0,11,12
 432.5 16 432.5 16 401 6 c 128,-1,13
 369.5 -4 369.5 -4 338.5 -7 c 0,14,15
 310.5 -10 310.5 -10 270.5 -10 c 0,16,17
 226.5 -10 226.5 -10 190 0.5 c 128,-1,18
 153.5 11 153.5 11 144.5 31 c 1,19,-1
 144.5 -208 l 1,20,-1
 54.5 -208 l 1,21,-1
 54.5 700 l 1,0,-1
352 58.5 m 128,-1,23
 379.5 66 379.5 66 391.5 86 c 128,-1,24
 403.5 106 403.5 106 403.5 147 c 2,25,-1
 403.5 325 l 2,26,27
 403.5 370 403.5 370 391.5 392 c 128,-1,28
 379.5 414 379.5 414 352 421.5 c 128,-1,29
 324.5 429 324.5 429 271.5 429 c 256,30,31
 218.5 429 218.5 429 191 421.5 c 128,-1,32
 163.5 414 163.5 414 151.5 392 c 128,-1,33
 139.5 370 139.5 370 139.5 325 c 2,34,-1
 139.5 147 l 2,35,36
 139.5 107 139.5 107 152 86.5 c 128,-1,37
 164.5 66 164.5 66 192.5 58.5 c 128,-1,38
 220.5 51 220.5 51 272.5 51 c 256,39,22
 324.5 51 324.5 51 352 58.5 c 128,-1,23
EndSplineSet
Substitution2: "'smcp' Lowercase to Small Capitals lookup 26 subtable" thorn.smcp
Substitution2: "'aalt' Access All Alternates lookup 0 subtable" thorn.smcp
EndChar

StartChar: q
Encoding: 113 113 296
Width: 550
Flags: W
LayerCount: 3
Fore
SplineSet
405.5 31 m 1,0,1
 385.5 -10 385.5 -10 259.5 -10 c 0,2,3
 213.5 -10 213.5 -10 186.5 -7 c 128,-1,4
 159.5 -4 159.5 -4 133.5 5 c 0,5,6
 106.5 15 106.5 15 90.5 33 c 128,-1,7
 74.5 51 74.5 51 64.5 82 c 0,8,9
 54.5 112 54.5 112 54.5 158 c 2,10,-1
 54.5 337 l 2,11,12
 54.5 421 54.5 421 107 457.5 c 128,-1,13
 159.5 494 159.5 494 281.5 494 c 0,14,15
 397.5 494 397.5 494 446.5 457.5 c 128,-1,16
 495.5 421 495.5 421 495.5 337 c 2,17,-1
 495.5 -208 l 1,18,-1
 405.5 -208 l 1,19,-1
 405.5 31 l 1,0,1
357 59.5 m 128,-1,21
 383.5 67 383.5 67 394.5 87.5 c 128,-1,22
 405.5 108 405.5 108 405.5 148 c 2,23,-1
 405.5 325 l 2,24,25
 405.5 371 405.5 371 394.5 392.5 c 128,-1,26
 383.5 414 383.5 414 357.5 421.5 c 128,-1,27
 331.5 429 331.5 429 278.5 429 c 0,28,29
 216.5 429 216.5 429 190 422 c 128,-1,30
 163.5 415 163.5 415 155 394 c 128,-1,31
 146.5 373 146.5 373 146.5 325 c 2,32,-1
 146.5 148 l 2,33,34
 146.5 107 146.5 107 158.5 87 c 128,-1,35
 170.5 67 170.5 67 198 59.5 c 128,-1,36
 225.5 52 225.5 52 277.5 52 c 0,37,20
 330.5 52 330.5 52 357 59.5 c 128,-1,21
EndSplineSet
Substitution2: "'smcp' Lowercase to Small Capitals lookup 26 subtable" q.smcp
Substitution2: "'aalt' Access All Alternates lookup 0 subtable" q.smcp
EndChar

StartChar: r
Encoding: 114 114 297
Width: 550
Flags: W
LayerCount: 3
Fore
SplineSet
144.5 484 m 1,0,-1
 229.5 484 l 1,1,-1
 229.5 405 l 1,2,3
 229.5 428 229.5 428 249.5 448.5 c 128,-1,4
 269.5 469 269.5 469 300.5 481.5 c 128,-1,5
 331.5 494 331.5 494 361.5 494 c 2,6,-1
 405.5 494 l 1,7,-1
 405.5 417 l 1,8,-1
 355.5 417 l 2,9,10
 291.5 417 291.5 417 263 400.5 c 128,-1,11
 234.5 384 234.5 384 234.5 341 c 2,12,-1
 234.5 0 l 1,13,-1
 144.5 0 l 1,14,-1
 144.5 484 l 1,0,-1
EndSplineSet
Substitution2: "'smcp' Lowercase to Small Capitals lookup 26 subtable" r.smcp
Substitution2: "'aalt' Access All Alternates lookup 0 subtable" r.smcp
EndChar

StartChar: racute
Encoding: 341 341 298
Width: 550
Flags: W
LayerCount: 3
Fore
SplineSet
272.5 680 m 1,0,-1
 381.5 680 l 1,1,-1
 256.5 553 l 1,2,-1
 182.5 553 l 1,3,-1
 272.5 680 l 1,0,-1
144.5 484 m 1,4,-1
 229.5 484 l 1,5,-1
 229.5 405 l 1,6,7
 229.5 428 229.5 428 249.5 448.5 c 128,-1,8
 269.5 469 269.5 469 300.5 481.5 c 128,-1,9
 331.5 494 331.5 494 361.5 494 c 2,10,-1
 405.5 494 l 1,11,-1
 405.5 417 l 1,12,-1
 355.5 417 l 2,13,14
 291.5 417 291.5 417 263 400.5 c 128,-1,15
 234.5 384 234.5 384 234.5 341 c 2,16,-1
 234.5 0 l 1,17,-1
 144.5 0 l 1,18,-1
 144.5 484 l 1,4,-1
EndSplineSet
Substitution2: "'smcp' Lowercase to Small Capitals lookup 26 subtable" racute.smcp
Substitution2: "'aalt' Access All Alternates lookup 0 subtable" racute.smcp
EndChar

StartChar: rcaron
Encoding: 345 345 299
Width: 550
Flags: W
LayerCount: 3
Fore
SplineSet
137 680 m 1,0,-1
 195 680 l 1,1,-1
 258 593 l 1,2,-1
 320 680 l 1,3,-1
 378 680 l 1,4,-1
 312 553 l 1,5,-1
 205 553 l 1,6,-1
 137 680 l 1,0,-1
152 484 m 1,7,-1
 237 484 l 1,8,-1
 237 405 l 1,9,10
 237 428 237 428 257 448.5 c 128,-1,11
 277 469 277 469 308 481.5 c 128,-1,12
 339 494 339 494 369 494 c 2,13,-1
 413 494 l 1,14,-1
 413 417 l 1,15,-1
 363 417 l 2,16,17
 299 417 299 417 270.5 400.5 c 128,-1,18
 242 384 242 384 242 341 c 2,19,-1
 242 0 l 1,20,-1
 152 0 l 1,21,-1
 152 484 l 1,7,-1
EndSplineSet
Substitution2: "'smcp' Lowercase to Small Capitals lookup 26 subtable" rcaron.smcp
Substitution2: "'aalt' Access All Alternates lookup 0 subtable" rcaron.smcp
EndChar

StartChar: rcommaaccent
Encoding: 343 343 300
Width: 550
Flags: W
LayerCount: 3
Fore
SplineSet
155 484 m 1,0,-1
 240 484 l 1,1,-1
 240 419 l 1,2,3
 240 451 240 451 285 472 c 128,-1,4
 330 493 330 493 384 493 c 2,5,-1
 416 493 l 1,6,-1
 416 413 l 1,7,-1
 366 413 l 2,8,9
 299 413 299 413 272 398.5 c 128,-1,10
 245 384 245 384 245 341 c 2,11,-1
 245 0 l 1,12,-1
 155 0 l 1,13,-1
 155 484 l 1,0,-1
180 -40 m 1,14,-1
 274 -40 l 1,15,-1
 191 -190 l 1,16,-1
 134 -190 l 1,17,-1
 180 -40 l 1,14,-1
EndSplineSet
Substitution2: "'smcp' Lowercase to Small Capitals lookup 26 subtable" rcommaaccent.smcp
Substitution2: "'aalt' Access All Alternates lookup 0 subtable" rcommaaccent.smcp
EndChar

StartChar: s
Encoding: 115 115 301
Width: 550
Flags: W
LayerCount: 3
Fore
SplineSet
91.5 2 m 1,1,-1
 91.5 71 l 1,2,3
 208.5 52 208.5 52 259.5 52 c 0,4,5
 323.5 52 323.5 52 351.5 64.5 c 128,-1,6
 379.5 77 379.5 77 379.5 111 c 2,7,-1
 379.5 160 l 2,8,9
 379.5 191 379.5 191 358.5 204 c 128,-1,10
 337.5 217 337.5 217 290.5 217 c 2,11,-1
 235.5 217 l 2,12,13
 160.5 217 160.5 217 121 248 c 128,-1,14
 81.5 279 81.5 279 81.5 335 c 2,15,-1
 81.5 380 l 2,16,17
 81.5 494 81.5 494 297.5 494 c 0,18,19
 313.5 494 313.5 494 444.5 486 c 1,20,-1
 444.5 421 l 1,21,22
 355.5 435 355.5 435 293.5 435 c 0,23,24
 222.5 435 222.5 435 196.5 421 c 256,25,26
 170.5 407 170.5 407 170.5 374 c 2,27,-1
 170.5 333 l 2,28,29
 170.5 284 170.5 284 259.5 284 c 2,30,-1
 315.5 284 l 2,31,32
 468.5 284 468.5 284 468.5 170 c 2,33,-1
 468.5 128 l 2,34,35
 468.5 53 468.5 53 416.5 21.5 c 128,-1,36
 364.5 -10 364.5 -10 257.5 -10 c 0,37,0
 180.5 -10 180.5 -10 91.5 2 c 1,1,-1
EndSplineSet
Substitution2: "'smcp' Lowercase to Small Capitals lookup 26 subtable" s.smcp
Substitution2: "'aalt' Access All Alternates lookup 0 subtable" s.smcp
EndChar

StartChar: sacute
Encoding: 347 347 302
Width: 550
Flags: W
LayerCount: 3
Fore
SplineSet
295.5 680 m 1,0,-1
 404.5 680 l 1,1,-1
 279.5 553 l 1,2,-1
 205.5 553 l 1,3,-1
 295.5 680 l 1,0,-1
91.5 2 m 1,5,-1
 91.5 71 l 1,6,7
 208.5 52 208.5 52 259.5 52 c 0,8,9
 323.5 52 323.5 52 351.5 64.5 c 128,-1,10
 379.5 77 379.5 77 379.5 111 c 2,11,-1
 379.5 160 l 2,12,13
 379.5 191 379.5 191 358.5 204 c 128,-1,14
 337.5 217 337.5 217 290.5 217 c 2,15,-1
 235.5 217 l 2,16,17
 160.5 217 160.5 217 121 248 c 128,-1,18
 81.5 279 81.5 279 81.5 335 c 2,19,-1
 81.5 380 l 2,20,21
 81.5 494 81.5 494 297.5 494 c 0,22,23
 313.5 494 313.5 494 444.5 486 c 1,24,-1
 444.5 421 l 1,25,26
 355.5 435 355.5 435 293.5 435 c 0,27,28
 222.5 435 222.5 435 196.5 421 c 256,29,30
 170.5 407 170.5 407 170.5 374 c 2,31,-1
 170.5 333 l 2,32,33
 170.5 284 170.5 284 259.5 284 c 2,34,-1
 315.5 284 l 2,35,36
 468.5 284 468.5 284 468.5 170 c 2,37,-1
 468.5 128 l 2,38,39
 468.5 53 468.5 53 416.5 21.5 c 128,-1,40
 364.5 -10 364.5 -10 257.5 -10 c 0,41,4
 180.5 -10 180.5 -10 91.5 2 c 1,5,-1
EndSplineSet
Substitution2: "'smcp' Lowercase to Small Capitals lookup 26 subtable" sacute.smcp
Substitution2: "'aalt' Access All Alternates lookup 0 subtable" sacute.smcp
EndChar

StartChar: scaron
Encoding: 353 353 303
Width: 550
Flags: W
LayerCount: 3
Fore
SplineSet
154.5 680 m 1,0,-1
 212.5 680 l 1,1,-1
 275.5 593 l 1,2,-1
 337.5 680 l 1,3,-1
 395.5 680 l 1,4,-1
 329.5 553 l 1,5,-1
 222.5 553 l 1,6,-1
 154.5 680 l 1,0,-1
91.5 2 m 1,8,-1
 91.5 71 l 1,9,10
 208.5 52 208.5 52 259.5 52 c 0,11,12
 323.5 52 323.5 52 351.5 64.5 c 128,-1,13
 379.5 77 379.5 77 379.5 111 c 2,14,-1
 379.5 160 l 2,15,16
 379.5 191 379.5 191 358.5 204 c 128,-1,17
 337.5 217 337.5 217 290.5 217 c 2,18,-1
 235.5 217 l 2,19,20
 160.5 217 160.5 217 121 248 c 128,-1,21
 81.5 279 81.5 279 81.5 335 c 2,22,-1
 81.5 380 l 2,23,24
 81.5 494 81.5 494 297.5 494 c 0,25,26
 313.5 494 313.5 494 444.5 486 c 1,27,-1
 444.5 421 l 1,28,29
 355.5 435 355.5 435 293.5 435 c 0,30,31
 222.5 435 222.5 435 196.5 421 c 256,32,33
 170.5 407 170.5 407 170.5 374 c 2,34,-1
 170.5 333 l 2,35,36
 170.5 284 170.5 284 259.5 284 c 2,37,-1
 315.5 284 l 2,38,39
 468.5 284 468.5 284 468.5 170 c 2,40,-1
 468.5 128 l 2,41,42
 468.5 53 468.5 53 416.5 21.5 c 128,-1,43
 364.5 -10 364.5 -10 257.5 -10 c 0,44,7
 180.5 -10 180.5 -10 91.5 2 c 1,8,-1
EndSplineSet
Substitution2: "'smcp' Lowercase to Small Capitals lookup 26 subtable" scaron.smcp
Substitution2: "'aalt' Access All Alternates lookup 0 subtable" scaron.smcp
EndChar

